<?xml version="1.0" encoding="utf-8"?>
<!DOCTYPE svg PUBLIC "-//W3C//DTD SVG 1.0//EN" "http://www.w3.org/TR/2001/REC-SVG-20010904/DTD/svg10.dtd">
<svg xmlns="http://www.w3.org/2000/svg" xml:space="preserve" xmlns:xlink="http://www.w3.org/1999/xlink" width="82" height="82" viewBox="0 0 82 82">
<desc></desc>
<rect width="82" height="82" fill="#ffffff" cx="0" cy="0" />
<defs>
<rect id="p" width="2" height="2" />
</defs>
<g fill="#000000">
<use x="0" y="0" xlink:href="#p" />
<use x="2" y="0" xlink:href="#p" />
<use x="4" y="0" xlink:href="#p" />
<use x="6" y="0" xlink:href="#p" />
<use x="8" y="0" xlink:href="#p" />
<use x="10" y="0" xlink:href="#p" />
<use x="12" y="0" xlink:href="#p" />
<use x="16" y="0" xlink:href="#p" />
<use x="20" y="0" xlink:href="#p" />
<use x="22" y="0" xlink:href="#p" />
<use x="26" y="0" xlink:href="#p" />
<use x="30" y="0" xlink:href="#p" />
<use x="34" y="0" xlink:href="#p" />
<use x="36" y="0" xlink:href="#p" />
<use x="38" y="0" xlink:href="#p" />
<use x="44" y="0" xlink:href="#p" />
<use x="46" y="0" xlink:href="#p" />
<use x="48" y="0" xlink:href="#p" />
<use x="60" y="0" xlink:href="#p" />
<use x="62" y="0" xlink:href="#p" />
<use x="64" y="0" xlink:href="#p" />
<use x="68" y="0" xlink:href="#p" />
<use x="70" y="0" xlink:href="#p" />
<use x="72" y="0" xlink:href="#p" />
<use x="74" y="0" xlink:href="#p" />
<use x="76" y="0" xlink:href="#p" />
<use x="78" y="0" xlink:href="#p" />
<use x="80" y="0" xlink:href="#p" />
<use x="0" y="2" xlink:href="#p" />
<use x="12" y="2" xlink:href="#p" />
<use x="16" y="2" xlink:href="#p" />
<use x="20" y="2" xlink:href="#p" />
<use x="22" y="2" xlink:href="#p" />
<use x="28" y="2" xlink:href="#p" />
<use x="30" y="2" xlink:href="#p" />
<use x="32" y="2" xlink:href="#p" />
<use x="34" y="2" xlink:href="#p" />
<use x="40" y="2" xlink:href="#p" />
<use x="42" y="2" xlink:href="#p" />
<use x="54" y="2" xlink:href="#p" />
<use x="56" y="2" xlink:href="#p" />
<use x="60" y="2" xlink:href="#p" />
<use x="64" y="2" xlink:href="#p" />
<use x="68" y="2" xlink:href="#p" />
<use x="80" y="2" xlink:href="#p" />
<use x="0" y="4" xlink:href="#p" />
<use x="4" y="4" xlink:href="#p" />
<use x="6" y="4" xlink:href="#p" />
<use x="8" y="4" xlink:href="#p" />
<use x="12" y="4" xlink:href="#p" />
<use x="16" y="4" xlink:href="#p" />
<use x="18" y="4" xlink:href="#p" />
<use x="24" y="4" xlink:href="#p" />
<use x="34" y="4" xlink:href="#p" />
<use x="36" y="4" xlink:href="#p" />
<use x="40" y="4" xlink:href="#p" />
<use x="42" y="4" xlink:href="#p" />
<use x="52" y="4" xlink:href="#p" />
<use x="58" y="4" xlink:href="#p" />
<use x="62" y="4" xlink:href="#p" />
<use x="64" y="4" xlink:href="#p" />
<use x="68" y="4" xlink:href="#p" />
<use x="72" y="4" xlink:href="#p" />
<use x="74" y="4" xlink:href="#p" />
<use x="76" y="4" xlink:href="#p" />
<use x="80" y="4" xlink:href="#p" />
<use x="0" y="6" xlink:href="#p" />
<use x="4" y="6" xlink:href="#p" />
<use x="6" y="6" xlink:href="#p" />
<use x="8" y="6" xlink:href="#p" />
<use x="12" y="6" xlink:href="#p" />
<use x="22" y="6" xlink:href="#p" />
<use x="26" y="6" xlink:href="#p" />
<use x="28" y="6" xlink:href="#p" />
<use x="30" y="6" xlink:href="#p" />
<use x="32" y="6" xlink:href="#p" />
<use x="36" y="6" xlink:href="#p" />
<use x="42" y="6" xlink:href="#p" />
<use x="54" y="6" xlink:href="#p" />
<use x="60" y="6" xlink:href="#p" />
<use x="62" y="6" xlink:href="#p" />
<use x="68" y="6" xlink:href="#p" />
<use x="72" y="6" xlink:href="#p" />
<use x="74" y="6" xlink:href="#p" />
<use x="76" y="6" xlink:href="#p" />
<use x="80" y="6" xlink:href="#p" />
<use x="0" y="8" xlink:href="#p" />
<use x="4" y="8" xlink:href="#p" />
<use x="6" y="8" xlink:href="#p" />
<use x="8" y="8" xlink:href="#p" />
<use x="12" y="8" xlink:href="#p" />
<use x="22" y="8" xlink:href="#p" />
<use x="28" y="8" xlink:href="#p" />
<use x="30" y="8" xlink:href="#p" />
<use x="34" y="8" xlink:href="#p" />
<use x="38" y="8" xlink:href="#p" />
<use x="40" y="8" xlink:href="#p" />
<use x="42" y="8" xlink:href="#p" />
<use x="52" y="8" xlink:href="#p" />
<use x="60" y="8" xlink:href="#p" />
<use x="62" y="8" xlink:href="#p" />
<use x="64" y="8" xlink:href="#p" />
<use x="68" y="8" xlink:href="#p" />
<use x="72" y="8" xlink:href="#p" />
<use x="74" y="8" xlink:href="#p" />
<use x="76" y="8" xlink:href="#p" />
<use x="80" y="8" xlink:href="#p" />
<use x="0" y="10" xlink:href="#p" />
<use x="12" y="10" xlink:href="#p" />
<use x="16" y="10" xlink:href="#p" />
<use x="20" y="10" xlink:href="#p" />
<use x="24" y="10" xlink:href="#p" />
<use x="26" y="10" xlink:href="#p" />
<use x="28" y="10" xlink:href="#p" />
<use x="38" y="10" xlink:href="#p" />
<use x="46" y="10" xlink:href="#p" />
<use x="52" y="10" xlink:href="#p" />
<use x="54" y="10" xlink:href="#p" />
<use x="68" y="10" xlink:href="#p" />
<use x="80" y="10" xlink:href="#p" />
<use x="0" y="12" xlink:href="#p" />
<use x="2" y="12" xlink:href="#p" />
<use x="4" y="12" xlink:href="#p" />
<use x="6" y="12" xlink:href="#p" />
<use x="8" y="12" xlink:href="#p" />
<use x="10" y="12" xlink:href="#p" />
<use x="12" y="12" xlink:href="#p" />
<use x="16" y="12" xlink:href="#p" />
<use x="20" y="12" xlink:href="#p" />
<use x="24" y="12" xlink:href="#p" />
<use x="28" y="12" xlink:href="#p" />
<use x="32" y="12" xlink:href="#p" />
<use x="36" y="12" xlink:href="#p" />
<use x="40" y="12" xlink:href="#p" />
<use x="44" y="12" xlink:href="#p" />
<use x="48" y="12" xlink:href="#p" />
<use x="52" y="12" xlink:href="#p" />
<use x="56" y="12" xlink:href="#p" />
<use x="60" y="12" xlink:href="#p" />
<use x="64" y="12" xlink:href="#p" />
<use x="68" y="12" xlink:href="#p" />
<use x="70" y="12" xlink:href="#p" />
<use x="72" y="12" xlink:href="#p" />
<use x="74" y="12" xlink:href="#p" />
<use x="76" y="12" xlink:href="#p" />
<use x="78" y="12" xlink:href="#p" />
<use x="80" y="12" xlink:href="#p" />
<use x="16" y="14" xlink:href="#p" />
<use x="20" y="14" xlink:href="#p" />
<use x="22" y="14" xlink:href="#p" />
<use x="24" y="14" xlink:href="#p" />
<use x="26" y="14" xlink:href="#p" />
<use x="34" y="14" xlink:href="#p" />
<use x="46" y="14" xlink:href="#p" />
<use x="48" y="14" xlink:href="#p" />
<use x="54" y="14" xlink:href="#p" />
<use x="62" y="14" xlink:href="#p" />
<use x="64" y="14" xlink:href="#p" />
<use x="4" y="16" xlink:href="#p" />
<use x="6" y="16" xlink:href="#p" />
<use x="8" y="16" xlink:href="#p" />
<use x="12" y="16" xlink:href="#p" />
<use x="16" y="16" xlink:href="#p" />
<use x="18" y="16" xlink:href="#p" />
<use x="20" y="16" xlink:href="#p" />
<use x="22" y="16" xlink:href="#p" />
<use x="30" y="16" xlink:href="#p" />
<use x="38" y="16" xlink:href="#p" />
<use x="42" y="16" xlink:href="#p" />
<use x="44" y="16" xlink:href="#p" />
<use x="50" y="16" xlink:href="#p" />
<use x="52" y="16" xlink:href="#p" />
<use x="58" y="16" xlink:href="#p" />
<use x="62" y="16" xlink:href="#p" />
<use x="66" y="16" xlink:href="#p" />
<use x="68" y="16" xlink:href="#p" />
<use x="70" y="16" xlink:href="#p" />
<use x="76" y="16" xlink:href="#p" />
<use x="78" y="16" xlink:href="#p" />
<use x="80" y="16" xlink:href="#p" />
<use x="2" y="18" xlink:href="#p" />
<use x="6" y="18" xlink:href="#p" />
<use x="8" y="18" xlink:href="#p" />
<use x="14" y="18" xlink:href="#p" />
<use x="18" y="18" xlink:href="#p" />
<use x="22" y="18" xlink:href="#p" />
<use x="24" y="18" xlink:href="#p" />
<use x="26" y="18" xlink:href="#p" />
<use x="30" y="18" xlink:href="#p" />
<use x="32" y="18" xlink:href="#p" />
<use x="38" y="18" xlink:href="#p" />
<use x="46" y="18" xlink:href="#p" />
<use x="48" y="18" xlink:href="#p" />
<use x="50" y="18" xlink:href="#p" />
<use x="52" y="18" xlink:href="#p" />
<use x="56" y="18" xlink:href="#p" />
<use x="58" y="18" xlink:href="#p" />
<use x="60" y="18" xlink:href="#p" />
<use x="62" y="18" xlink:href="#p" />
<use x="64" y="18" xlink:href="#p" />
<use x="66" y="18" xlink:href="#p" />
<use x="68" y="18" xlink:href="#p" />
<use x="72" y="18" xlink:href="#p" />
<use x="76" y="18" xlink:href="#p" />
<use x="78" y="18" xlink:href="#p" />
<use x="80" y="18" xlink:href="#p" />
<use x="0" y="20" xlink:href="#p" />
<use x="2" y="20" xlink:href="#p" />
<use x="6" y="20" xlink:href="#p" />
<use x="12" y="20" xlink:href="#p" />
<use x="14" y="20" xlink:href="#p" />
<use x="20" y="20" xlink:href="#p" />
<use x="34" y="20" xlink:href="#p" />
<use x="38" y="20" xlink:href="#p" />
<use x="40" y="20" xlink:href="#p" />
<use x="46" y="20" xlink:href="#p" />
<use x="54" y="20" xlink:href="#p" />
<use x="60" y="20" xlink:href="#p" />
<use x="66" y="20" xlink:href="#p" />
<use x="4" y="22" xlink:href="#p" />
<use x="6" y="22" xlink:href="#p" />
<use x="10" y="22" xlink:href="#p" />
<use x="16" y="22" xlink:href="#p" />
<use x="20" y="22" xlink:href="#p" />
<use x="28" y="22" xlink:href="#p" />
<use x="30" y="22" xlink:href="#p" />
<use x="32" y="22" xlink:href="#p" />
<use x="36" y="22" xlink:href="#p" />
<use x="38" y="22" xlink:href="#p" />
<use x="40" y="22" xlink:href="#p" />
<use x="44" y="22" xlink:href="#p" />
<use x="46" y="22" xlink:href="#p" />
<use x="48" y="22" xlink:href="#p" />
<use x="54" y="22" xlink:href="#p" />
<use x="56" y="22" xlink:href="#p" />
<use x="64" y="22" xlink:href="#p" />
<use x="66" y="22" xlink:href="#p" />
<use x="70" y="22" xlink:href="#p" />
<use x="74" y="22" xlink:href="#p" />
<use x="78" y="22" xlink:href="#p" />
<use x="80" y="22" xlink:href="#p" />
<use x="4" y="24" xlink:href="#p" />
<use x="8" y="24" xlink:href="#p" />
<use x="12" y="24" xlink:href="#p" />
<use x="14" y="24" xlink:href="#p" />
<use x="16" y="24" xlink:href="#p" />
<use x="18" y="24" xlink:href="#p" />
<use x="22" y="24" xlink:href="#p" />
<use x="24" y="24" xlink:href="#p" />
<use x="26" y="24" xlink:href="#p" />
<use x="30" y="24" xlink:href="#p" />
<use x="34" y="24" xlink:href="#p" />
<use x="36" y="24" xlink:href="#p" />
<use x="40" y="24" xlink:href="#p" />
<use x="42" y="24" xlink:href="#p" />
<use x="44" y="24" xlink:href="#p" />
<use x="54" y="24" xlink:href="#p" />
<use x="58" y="24" xlink:href="#p" />
<use x="66" y="24" xlink:href="#p" />
<use x="74" y="24" xlink:href="#p" />
<use x="76" y="24" xlink:href="#p" />
<use x="2" y="26" xlink:href="#p" />
<use x="4" y="26" xlink:href="#p" />
<use x="6" y="26" xlink:href="#p" />
<use x="8" y="26" xlink:href="#p" />
<use x="14" y="26" xlink:href="#p" />
<use x="16" y="26" xlink:href="#p" />
<use x="18" y="26" xlink:href="#p" />
<use x="20" y="26" xlink:href="#p" />
<use x="22" y="26" xlink:href="#p" />
<use x="40" y="26" xlink:href="#p" />
<use x="46" y="26" xlink:href="#p" />
<use x="48" y="26" xlink:href="#p" />
<use x="50" y="26" xlink:href="#p" />
<use x="54" y="26" xlink:href="#p" />
<use x="56" y="26" xlink:href="#p" />
<use x="60" y="26" xlink:href="#p" />
<use x="62" y="26" xlink:href="#p" />
<use x="68" y="26" xlink:href="#p" />
<use x="70" y="26" xlink:href="#p" />
<use x="72" y="26" xlink:href="#p" />
<use x="76" y="26" xlink:href="#p" />
<use x="78" y="26" xlink:href="#p" />
<use x="80" y="26" xlink:href="#p" />
<use x="4" y="28" xlink:href="#p" />
<use x="8" y="28" xlink:href="#p" />
<use x="10" y="28" xlink:href="#p" />
<use x="12" y="28" xlink:href="#p" />
<use x="16" y="28" xlink:href="#p" />
<use x="20" y="28" xlink:href="#p" />
<use x="22" y="28" xlink:href="#p" />
<use x="32" y="28" xlink:href="#p" />
<use x="36" y="28" xlink:href="#p" />
<use x="38" y="28" xlink:href="#p" />
<use x="40" y="28" xlink:href="#p" />
<use x="42" y="28" xlink:href="#p" />
<use x="44" y="28" xlink:href="#p" />
<use x="52" y="28" xlink:href="#p" />
<use x="62" y="28" xlink:href="#p" />
<use x="66" y="28" xlink:href="#p" />
<use x="68" y="28" xlink:href="#p" />
<use x="70" y="28" xlink:href="#p" />
<use x="72" y="28" xlink:href="#p" />
<use x="74" y="28" xlink:href="#p" />
<use x="76" y="28" xlink:href="#p" />
<use x="2" y="30" xlink:href="#p" />
<use x="4" y="30" xlink:href="#p" />
<use x="8" y="30" xlink:href="#p" />
<use x="20" y="30" xlink:href="#p" />
<use x="30" y="30" xlink:href="#p" />
<use x="36" y="30" xlink:href="#p" />
<use x="38" y="30" xlink:href="#p" />
<use x="40" y="30" xlink:href="#p" />
<use x="42" y="30" xlink:href="#p" />
<use x="46" y="30" xlink:href="#p" />
<use x="50" y="30" xlink:href="#p" />
<use x="52" y="30" xlink:href="#p" />
<use x="56" y="30" xlink:href="#p" />
<use x="60" y="30" xlink:href="#p" />
<use x="66" y="30" xlink:href="#p" />
<use x="68" y="30" xlink:href="#p" />
<use x="70" y="30" xlink:href="#p" />
<use x="0" y="32" xlink:href="#p" />
<use x="2" y="32" xlink:href="#p" />
<use x="4" y="32" xlink:href="#p" />
<use x="6" y="32" xlink:href="#p" />
<use x="8" y="32" xlink:href="#p" />
<use x="10" y="32" xlink:href="#p" />
<use x="12" y="32" xlink:href="#p" />
<use x="16" y="32" xlink:href="#p" />
<use x="18" y="32" xlink:href="#p" />
<use x="20" y="32" xlink:href="#p" />
<use x="24" y="32" xlink:href="#p" />
<use x="36" y="32" xlink:href="#p" />
<use x="38" y="32" xlink:href="#p" />
<use x="42" y="32" xlink:href="#p" />
<use x="56" y="32" xlink:href="#p" />
<use x="58" y="32" xlink:href="#p" />
<use x="66" y="32" xlink:href="#p" />
<use x="70" y="32" xlink:href="#p" />
<use x="76" y="32" xlink:href="#p" />
<use x="78" y="32" xlink:href="#p" />
<use x="2" y="34" xlink:href="#p" />
<use x="6" y="34" xlink:href="#p" />
<use x="16" y="34" xlink:href="#p" />
<use x="18" y="34" xlink:href="#p" />
<use x="26" y="34" xlink:href="#p" />
<use x="30" y="34" xlink:href="#p" />
<use x="38" y="34" xlink:href="#p" />
<use x="40" y="34" xlink:href="#p" />
<use x="42" y="34" xlink:href="#p" />
<use x="46" y="34" xlink:href="#p" />
<use x="48" y="34" xlink:href="#p" />
<use x="50" y="34" xlink:href="#p" />
<use x="52" y="34" xlink:href="#p" />
<use x="56" y="34" xlink:href="#p" />
<use x="58" y="34" xlink:href="#p" />
<use x="62" y="34" xlink:href="#p" />
<use x="64" y="34" xlink:href="#p" />
<use x="66" y="34" xlink:href="#p" />
<use x="68" y="34" xlink:href="#p" />
<use x="72" y="34" xlink:href="#p" />
<use x="74" y="34" xlink:href="#p" />
<use x="78" y="34" xlink:href="#p" />
<use x="80" y="34" xlink:href="#p" />
<use x="2" y="36" xlink:href="#p" />
<use x="6" y="36" xlink:href="#p" />
<use x="8" y="36" xlink:href="#p" />
<use x="10" y="36" xlink:href="#p" />
<use x="12" y="36" xlink:href="#p" />
<use x="16" y="36" xlink:href="#p" />
<use x="24" y="36" xlink:href="#p" />
<use x="26" y="36" xlink:href="#p" />
<use x="28" y="36" xlink:href="#p" />
<use x="30" y="36" xlink:href="#p" />
<use x="34" y="36" xlink:href="#p" />
<use x="36" y="36" xlink:href="#p" />
<use x="38" y="36" xlink:href="#p" />
<use x="40" y="36" xlink:href="#p" />
<use x="42" y="36" xlink:href="#p" />
<use x="44" y="36" xlink:href="#p" />
<use x="46" y="36" xlink:href="#p" />
<use x="54" y="36" xlink:href="#p" />
<use x="60" y="36" xlink:href="#p" />
<use x="66" y="36" xlink:href="#p" />
<use x="68" y="36" xlink:href="#p" />
<use x="72" y="36" xlink:href="#p" />
<use x="6" y="38" xlink:href="#p" />
<use x="10" y="38" xlink:href="#p" />
<use x="14" y="38" xlink:href="#p" />
<use x="20" y="38" xlink:href="#p" />
<use x="24" y="38" xlink:href="#p" />
<use x="34" y="38" xlink:href="#p" />
<use x="38" y="38" xlink:href="#p" />
<use x="40" y="38" xlink:href="#p" />
<use x="44" y="38" xlink:href="#p" />
<use x="46" y="38" xlink:href="#p" />
<use x="48" y="38" xlink:href="#p" />
<use x="52" y="38" xlink:href="#p" />
<use x="54" y="38" xlink:href="#p" />
<use x="56" y="38" xlink:href="#p" />
<use x="60" y="38" xlink:href="#p" />
<use x="62" y="38" xlink:href="#p" />
<use x="72" y="38" xlink:href="#p" />
<use x="74" y="38" xlink:href="#p" />
<use x="80" y="38" xlink:href="#p" />
<use x="4" y="40" xlink:href="#p" />
<use x="12" y="40" xlink:href="#p" />
<use x="16" y="40" xlink:href="#p" />
<use x="18" y="40" xlink:href="#p" />
<use x="28" y="40" xlink:href="#p" />
<use x="32" y="40" xlink:href="#p" />
<use x="40" y="40" xlink:href="#p" />
<use x="46" y="40" xlink:href="#p" />
<use x="48" y="40" xlink:href="#p" />
<use x="54" y="40" xlink:href="#p" />
<use x="60" y="40" xlink:href="#p" />
<use x="76" y="40" xlink:href="#p" />
<use x="78" y="40" xlink:href="#p" />
<use x="0" y="42" xlink:href="#p" />
<use x="2" y="42" xlink:href="#p" />
<use x="6" y="42" xlink:href="#p" />
<use x="8" y="42" xlink:href="#p" />
<use x="10" y="42" xlink:href="#p" />
<use x="14" y="42" xlink:href="#p" />
<use x="16" y="42" xlink:href="#p" />
<use x="22" y="42" xlink:href="#p" />
<use x="24" y="42" xlink:href="#p" />
<use x="30" y="42" xlink:href="#p" />
<use x="32" y="42" xlink:href="#p" />
<use x="38" y="42" xlink:href="#p" />
<use x="40" y="42" xlink:href="#p" />
<use x="44" y="42" xlink:href="#p" />
<use x="46" y="42" xlink:href="#p" />
<use x="50" y="42" xlink:href="#p" />
<use x="56" y="42" xlink:href="#p" />
<use x="58" y="42" xlink:href="#p" />
<use x="60" y="42" xlink:href="#p" />
<use x="62" y="42" xlink:href="#p" />
<use x="68" y="42" xlink:href="#p" />
<use x="72" y="42" xlink:href="#p" />
<use x="76" y="42" xlink:href="#p" />
<use x="78" y="42" xlink:href="#p" />
<use x="80" y="42" xlink:href="#p" />
<use x="6" y="44" xlink:href="#p" />
<use x="8" y="44" xlink:href="#p" />
<use x="10" y="44" xlink:href="#p" />
<use x="12" y="44" xlink:href="#p" />
<use x="14" y="44" xlink:href="#p" />
<use x="18" y="44" xlink:href="#p" />
<use x="28" y="44" xlink:href="#p" />
<use x="30" y="44" xlink:href="#p" />
<use x="32" y="44" xlink:href="#p" />
<use x="34" y="44" xlink:href="#p" />
<use x="40" y="44" xlink:href="#p" />
<use x="44" y="44" xlink:href="#p" />
<use x="46" y="44" xlink:href="#p" />
<use x="48" y="44" xlink:href="#p" />
<use x="52" y="44" xlink:href="#p" />
<use x="54" y="44" xlink:href="#p" />
<use x="68" y="44" xlink:href="#p" />
<use x="70" y="44" xlink:href="#p" />
<use x="74" y="44" xlink:href="#p" />
<use x="0" y="46" xlink:href="#p" />
<use x="2" y="46" xlink:href="#p" />
<use x="6" y="46" xlink:href="#p" />
<use x="8" y="46" xlink:href="#p" />
<use x="10" y="46" xlink:href="#p" />
<use x="16" y="46" xlink:href="#p" />
<use x="18" y="46" xlink:href="#p" />
<use x="20" y="46" xlink:href="#p" />
<use x="24" y="46" xlink:href="#p" />
<use x="26" y="46" xlink:href="#p" />
<use x="28" y="46" xlink:href="#p" />
<use x="32" y="46" xlink:href="#p" />
<use x="34" y="46" xlink:href="#p" />
<use x="42" y="46" xlink:href="#p" />
<use x="44" y="46" xlink:href="#p" />
<use x="50" y="46" xlink:href="#p" />
<use x="52" y="46" xlink:href="#p" />
<use x="54" y="46" xlink:href="#p" />
<use x="56" y="46" xlink:href="#p" />
<use x="68" y="46" xlink:href="#p" />
<use x="70" y="46" xlink:href="#p" />
<use x="72" y="46" xlink:href="#p" />
<use x="74" y="46" xlink:href="#p" />
<use x="78" y="46" xlink:href="#p" />
<use x="2" y="48" xlink:href="#p" />
<use x="6" y="48" xlink:href="#p" />
<use x="10" y="48" xlink:href="#p" />
<use x="12" y="48" xlink:href="#p" />
<use x="14" y="48" xlink:href="#p" />
<use x="18" y="48" xlink:href="#p" />
<use x="24" y="48" xlink:href="#p" />
<use x="26" y="48" xlink:href="#p" />
<use x="28" y="48" xlink:href="#p" />
<use x="36" y="48" xlink:href="#p" />
<use x="44" y="48" xlink:href="#p" />
<use x="46" y="48" xlink:href="#p" />
<use x="48" y="48" xlink:href="#p" />
<use x="54" y="48" xlink:href="#p" />
<use x="56" y="48" xlink:href="#p" />
<use x="58" y="48" xlink:href="#p" />
<use x="62" y="48" xlink:href="#p" />
<use x="76" y="48" xlink:href="#p" />
<use x="78" y="48" xlink:href="#p" />
<use x="0" y="50" xlink:href="#p" />
<use x="4" y="50" xlink:href="#p" />
<use x="8" y="50" xlink:href="#p" />
<use x="22" y="50" xlink:href="#p" />
<use x="26" y="50" xlink:href="#p" />
<use x="32" y="50" xlink:href="#p" />
<use x="40" y="50" xlink:href="#p" />
<use x="44" y="50" xlink:href="#p" />
<use x="46" y="50" xlink:href="#p" />
<use x="52" y="50" xlink:href="#p" />
<use x="56" y="50" xlink:href="#p" />
<use x="58" y="50" xlink:href="#p" />
<use x="60" y="50" xlink:href="#p" />
<use x="62" y="50" xlink:href="#p" />
<use x="64" y="50" xlink:href="#p" />
<use x="68" y="50" xlink:href="#p" />
<use x="70" y="50" xlink:href="#p" />
<use x="72" y="50" xlink:href="#p" />
<use x="74" y="50" xlink:href="#p" />
<use x="80" y="50" xlink:href="#p" />
<use x="6" y="52" xlink:href="#p" />
<use x="12" y="52" xlink:href="#p" />
<use x="16" y="52" xlink:href="#p" />
<use x="18" y="52" xlink:href="#p" />
<use x="20" y="52" xlink:href="#p" />
<use x="24" y="52" xlink:href="#p" />
<use x="26" y="52" xlink:href="#p" />
<use x="28" y="52" xlink:href="#p" />
<use x="30" y="52" xlink:href="#p" />
<use x="32" y="52" xlink:href="#p" />
<use x="36" y="52" xlink:href="#p" />
<use x="40" y="52" xlink:href="#p" />
<use x="44" y="52" xlink:href="#p" />
<use x="46" y="52" xlink:href="#p" />
<use x="54" y="52" xlink:href="#p" />
<use x="56" y="52" xlink:href="#p" />
<use x="58" y="52" xlink:href="#p" />
<use x="64" y="52" xlink:href="#p" />
<use x="70" y="52" xlink:href="#p" />
<use x="72" y="52" xlink:href="#p" />
<use x="2" y="54" xlink:href="#p" />
<use x="4" y="54" xlink:href="#p" />
<use x="10" y="54" xlink:href="#p" />
<use x="20" y="54" xlink:href="#p" />
<use x="22" y="54" xlink:href="#p" />
<use x="24" y="54" xlink:href="#p" />
<use x="26" y="54" xlink:href="#p" />
<use x="30" y="54" xlink:href="#p" />
<use x="32" y="54" xlink:href="#p" />
<use x="38" y="54" xlink:href="#p" />
<use x="40" y="54" xlink:href="#p" />
<use x="48" y="54" xlink:href="#p" />
<use x="50" y="54" xlink:href="#p" />
<use x="52" y="54" xlink:href="#p" />
<use x="60" y="54" xlink:href="#p" />
<use x="62" y="54" xlink:href="#p" />
<use x="64" y="54" xlink:href="#p" />
<use x="68" y="54" xlink:href="#p" />
<use x="74" y="54" xlink:href="#p" />
<use x="80" y="54" xlink:href="#p" />
<use x="4" y="56" xlink:href="#p" />
<use x="12" y="56" xlink:href="#p" />
<use x="14" y="56" xlink:href="#p" />
<use x="22" y="56" xlink:href="#p" />
<use x="24" y="56" xlink:href="#p" />
<use x="28" y="56" xlink:href="#p" />
<use x="30" y="56" xlink:href="#p" />
<use x="36" y="56" xlink:href="#p" />
<use x="40" y="56" xlink:href="#p" />
<use x="42" y="56" xlink:href="#p" />
<use x="46" y="56" xlink:href="#p" />
<use x="54" y="56" xlink:href="#p" />
<use x="56" y="56" xlink:href="#p" />
<use x="58" y="56" xlink:href="#p" />
<use x="60" y="56" xlink:href="#p" />
<use x="62" y="56" xlink:href="#p" />
<use x="66" y="56" xlink:href="#p" />
<use x="68" y="56" xlink:href="#p" />
<use x="74" y="56" xlink:href="#p" />
<use x="76" y="56" xlink:href="#p" />
<use x="80" y="56" xlink:href="#p" />
<use x="0" y="58" xlink:href="#p" />
<use x="2" y="58" xlink:href="#p" />
<use x="22" y="58" xlink:href="#p" />
<use x="24" y="58" xlink:href="#p" />
<use x="28" y="58" xlink:href="#p" />
<use x="32" y="58" xlink:href="#p" />
<use x="34" y="58" xlink:href="#p" />
<use x="38" y="58" xlink:href="#p" />
<use x="40" y="58" xlink:href="#p" />
<use x="42" y="58" xlink:href="#p" />
<use x="50" y="58" xlink:href="#p" />
<use x="52" y="58" xlink:href="#p" />
<use x="54" y="58" xlink:href="#p" />
<use x="60" y="58" xlink:href="#p" />
<use x="70" y="58" xlink:href="#p" />
<use x="72" y="58" xlink:href="#p" />
<use x="74" y="58" xlink:href="#p" />
<use x="76" y="58" xlink:href="#p" />
<use x="78" y="58" xlink:href="#p" />
<use x="80" y="58" xlink:href="#p" />
<use x="0" y="60" xlink:href="#p" />
<use x="6" y="60" xlink:href="#p" />
<use x="12" y="60" xlink:href="#p" />
<use x="16" y="60" xlink:href="#p" />
<use x="18" y="60" xlink:href="#p" />
<use x="20" y="60" xlink:href="#p" />
<use x="30" y="60" xlink:href="#p" />
<use x="32" y="60" xlink:href="#p" />
<use x="46" y="60" xlink:href="#p" />
<use x="48" y="60" xlink:href="#p" />
<use x="54" y="60" xlink:href="#p" />
<use x="56" y="60" xlink:href="#p" />
<use x="64" y="60" xlink:href="#p" />
<use x="68" y="60" xlink:href="#p" />
<use x="70" y="60" xlink:href="#p" />
<use x="76" y="60" xlink:href="#p" />
<use x="0" y="62" xlink:href="#p" />
<use x="10" y="62" xlink:href="#p" />
<use x="14" y="62" xlink:href="#p" />
<use x="16" y="62" xlink:href="#p" />
<use x="24" y="62" xlink:href="#p" />
<use x="26" y="62" xlink:href="#p" />
<use x="28" y="62" xlink:href="#p" />
<use x="30" y="62" xlink:href="#p" />
<use x="34" y="62" xlink:href="#p" />
<use x="38" y="62" xlink:href="#p" />
<use x="42" y="62" xlink:href="#p" />
<use x="50" y="62" xlink:href="#p" />
<use x="52" y="62" xlink:href="#p" />
<use x="54" y="62" xlink:href="#p" />
<use x="62" y="62" xlink:href="#p" />
<use x="64" y="62" xlink:href="#p" />
<use x="68" y="62" xlink:href="#p" />
<use x="72" y="62" xlink:href="#p" />
<use x="74" y="62" xlink:href="#p" />
<use x="80" y="62" xlink:href="#p" />
<use x="0" y="64" xlink:href="#p" />
<use x="4" y="64" xlink:href="#p" />
<use x="8" y="64" xlink:href="#p" />
<use x="12" y="64" xlink:href="#p" />
<use x="18" y="64" xlink:href="#p" />
<use x="24" y="64" xlink:href="#p" />
<use x="32" y="64" xlink:href="#p" />
<use x="38" y="64" xlink:href="#p" />
<use x="44" y="64" xlink:href="#p" />
<use x="48" y="64" xlink:href="#p" />
<use x="54" y="64" xlink:href="#p" />
<use x="56" y="64" xlink:href="#p" />
<use x="58" y="64" xlink:href="#p" />
<use x="64" y="64" xlink:href="#p" />
<use x="66" y="64" xlink:href="#p" />
<use x="68" y="64" xlink:href="#p" />
<use x="70" y="64" xlink:href="#p" />
<use x="72" y="64" xlink:href="#p" />
<use x="74" y="64" xlink:href="#p" />
<use x="76" y="64" xlink:href="#p" />
<use x="80" y="64" xlink:href="#p" />
<use x="16" y="66" xlink:href="#p" />
<use x="26" y="66" xlink:href="#p" />
<use x="28" y="66" xlink:href="#p" />
<use x="30" y="66" xlink:href="#p" />
<use x="42" y="66" xlink:href="#p" />
<use x="44" y="66" xlink:href="#p" />
<use x="50" y="66" xlink:href="#p" />
<use x="52" y="66" xlink:href="#p" />
<use x="56" y="66" xlink:href="#p" />
<use x="58" y="66" xlink:href="#p" />
<use x="60" y="66" xlink:href="#p" />
<use x="62" y="66" xlink:href="#p" />
<use x="64" y="66" xlink:href="#p" />
<use x="72" y="66" xlink:href="#p" />
<use x="74" y="66" xlink:href="#p" />
<use x="76" y="66" xlink:href="#p" />
<use x="78" y="66" xlink:href="#p" />
<use x="80" y="66" xlink:href="#p" />
<use x="0" y="68" xlink:href="#p" />
<use x="2" y="68" xlink:href="#p" />
<use x="4" y="68" xlink:href="#p" />
<use x="6" y="68" xlink:href="#p" />
<use x="8" y="68" xlink:href="#p" />
<use x="10" y="68" xlink:href="#p" />
<use x="12" y="68" xlink:href="#p" />
<use x="26" y="68" xlink:href="#p" />
<use x="28" y="68" xlink:href="#p" />
<use x="32" y="68" xlink:href="#p" />
<use x="34" y="68" xlink:href="#p" />
<use x="38" y="68" xlink:href="#p" />
<use x="44" y="68" xlink:href="#p" />
<use x="46" y="68" xlink:href="#p" />
<use x="54" y="68" xlink:href="#p" />
<use x="56" y="68" xlink:href="#p" />
<use x="58" y="68" xlink:href="#p" />
<use x="62" y="68" xlink:href="#p" />
<use x="64" y="68" xlink:href="#p" />
<use x="68" y="68" xlink:href="#p" />
<use x="72" y="68" xlink:href="#p" />
<use x="74" y="68" xlink:href="#p" />
<use x="0" y="70" xlink:href="#p" />
<use x="12" y="70" xlink:href="#p" />
<use x="18" y="70" xlink:href="#p" />
<use x="24" y="70" xlink:href="#p" />
<use x="28" y="70" xlink:href="#p" />
<use x="30" y="70" xlink:href="#p" />
<use x="34" y="70" xlink:href="#p" />
<use x="36" y="70" xlink:href="#p" />
<use x="38" y="70" xlink:href="#p" />
<use x="40" y="70" xlink:href="#p" />
<use x="42" y="70" xlink:href="#p" />
<use x="50" y="70" xlink:href="#p" />
<use x="52" y="70" xlink:href="#p" />
<use x="58" y="70" xlink:href="#p" />
<use x="60" y="70" xlink:href="#p" />
<use x="62" y="70" xlink:href="#p" />
<use x="64" y="70" xlink:href="#p" />
<use x="72" y="70" xlink:href="#p" />
<use x="74" y="70" xlink:href="#p" />
<use x="80" y="70" xlink:href="#p" />
<use x="0" y="72" xlink:href="#p" />
<use x="4" y="72" xlink:href="#p" />
<use x="6" y="72" xlink:href="#p" />
<use x="8" y="72" xlink:href="#p" />
<use x="12" y="72" xlink:href="#p" />
<use x="16" y="72" xlink:href="#p" />
<use x="22" y="72" xlink:href="#p" />
<use x="28" y="72" xlink:href="#p" />
<use x="30" y="72" xlink:href="#p" />
<use x="34" y="72" xlink:href="#p" />
<use x="36" y="72" xlink:href="#p" />
<use x="38" y="72" xlink:href="#p" />
<use x="46" y="72" xlink:href="#p" />
<use x="48" y="72" xlink:href="#p" />
<use x="50" y="72" xlink:href="#p" />
<use x="54" y="72" xlink:href="#p" />
<use x="56" y="72" xlink:href="#p" />
<use x="64" y="72" xlink:href="#p" />
<use x="66" y="72" xlink:href="#p" />
<use x="68" y="72" xlink:href="#p" />
<use x="70" y="72" xlink:href="#p" />
<use x="72" y="72" xlink:href="#p" />
<use x="76" y="72" xlink:href="#p" />
<use x="80" y="72" xlink:href="#p" />
<use x="0" y="74" xlink:href="#p" />
<use x="4" y="74" xlink:href="#p" />
<use x="6" y="74" xlink:href="#p" />
<use x="8" y="74" xlink:href="#p" />
<use x="12" y="74" xlink:href="#p" />
<use x="16" y="74" xlink:href="#p" />
<use x="18" y="74" xlink:href="#p" />
<use x="26" y="74" xlink:href="#p" />
<use x="28" y="74" xlink:href="#p" />
<use x="34" y="74" xlink:href="#p" />
<use x="38" y="74" xlink:href="#p" />
<use x="40" y="74" xlink:href="#p" />
<use x="42" y="74" xlink:href="#p" />
<use x="50" y="74" xlink:href="#p" />
<use x="56" y="74" xlink:href="#p" />
<use x="58" y="74" xlink:href="#p" />
<use x="60" y="74" xlink:href="#p" />
<use x="66" y="74" xlink:href="#p" />
<use x="70" y="74" xlink:href="#p" />
<use x="74" y="74" xlink:href="#p" />
<use x="80" y="74" xlink:href="#p" />
<use x="0" y="76" xlink:href="#p" />
<use x="4" y="76" xlink:href="#p" />
<use x="6" y="76" xlink:href="#p" />
<use x="8" y="76" xlink:href="#p" />
<use x="12" y="76" xlink:href="#p" />
<use x="16" y="76" xlink:href="#p" />
<use x="18" y="76" xlink:href="#p" />
<use x="28" y="76" xlink:href="#p" />
<use x="34" y="76" xlink:href="#p" />
<use x="38" y="76" xlink:href="#p" />
<use x="42" y="76" xlink:href="#p" />
<use x="48" y="76" xlink:href="#p" />
<use x="54" y="76" xlink:href="#p" />
<use x="58" y="76" xlink:href="#p" />
<use x="66" y="76" xlink:href="#p" />
<use x="68" y="76" xlink:href="#p" />
<use x="70" y="76" xlink:href="#p" />
<use x="72" y="76" xlink:href="#p" />
<use x="74" y="76" xlink:href="#p" />
<use x="78" y="76" xlink:href="#p" />
<use x="0" y="78" xlink:href="#p" />
<use x="12" y="78" xlink:href="#p" />
<use x="18" y="78" xlink:href="#p" />
<use x="20" y="78" xlink:href="#p" />
<use x="22" y="78" xlink:href="#p" />
<use x="34" y="78" xlink:href="#p" />
<use x="46" y="78" xlink:href="#p" />
<use x="50" y="78" xlink:href="#p" />
<use x="56" y="78" xlink:href="#p" />
<use x="64" y="78" xlink:href="#p" />
<use x="72" y="78" xlink:href="#p" />
<use x="74" y="78" xlink:href="#p" />
<use x="78" y="78" xlink:href="#p" />
<use x="0" y="80" xlink:href="#p" />
<use x="2" y="80" xlink:href="#p" />
<use x="4" y="80" xlink:href="#p" />
<use x="6" y="80" xlink:href="#p" />
<use x="8" y="80" xlink:href="#p" />
<use x="10" y="80" xlink:href="#p" />
<use x="12" y="80" xlink:href="#p" />
<use x="18" y="80" xlink:href="#p" />
<use x="20" y="80" xlink:href="#p" />
<use x="24" y="80" xlink:href="#p" />
<use x="26" y="80" xlink:href="#p" />
<use x="28" y="80" xlink:href="#p" />
<use x="30" y="80" xlink:href="#p" />
<use x="36" y="80" xlink:href="#p" />
<use x="42" y="80" xlink:href="#p" />
<use x="50" y="80" xlink:href="#p" />
<use x="52" y="80" xlink:href="#p" />
<use x="56" y="80" xlink:href="#p" />
<use x="58" y="80" xlink:href="#p" />
<use x="62" y="80" xlink:href="#p" />
<use x="66" y="80" xlink:href="#p" />
<use x="70" y="80" xlink:href="#p" />
<use x="72" y="80" xlink:href="#p" />
<use x="74" y="80" xlink:href="#p" />
<use x="76" y="80" xlink:href="#p" />
</g>
</svg>