<?xml version="1.0" standalone="no"?>
<!DOCTYPE svg PUBLIC "-//W3C//DTD SVG 1.1//EN" "http://www.w3.org/Graphics/SVG/1.1/DTD/svg11.dtd" >
<svg xmlns="http://www.w3.org/2000/svg" xmlns:xlink="http://www.w3.org/1999/xlink" version="1.1">
<metadata></metadata>
<defs>
<font id="thsarabunnewregularregular" horiz-adv-x="0" >
<font-face units-per-em="2048" ascent="1638" descent="-410" />
<missing-glyph horiz-adv-x="817" />
<glyph unicode="A&#x300;" horiz-adv-x="1515" d="M0 0l683 1830h151l681 -1830h-163l-209 579h-775l-205 -579h-163zM413 705h686l-341 962zM587 2301l148 37l188 -344h-116z" />
<glyph unicode="A&#x301;" horiz-adv-x="1515" d="M0 0l683 1830h151l681 -1830h-163l-209 579h-775l-205 -579h-163zM413 705h686l-341 962zM589 1994l188 344l148 -37l-220 -307h-116z" />
<glyph unicode="A&#x303;" horiz-adv-x="1515" d="M0 0l683 1830h151l681 -1830h-163l-209 579h-775l-205 -579h-163zM413 705h686l-341 962zM415 1994q4 113 54.5 170.5t130.5 57.5q42 0 82 -19.5t79.5 -44.5t76.5 -43.5t76 -18.5q65 0 76 133h95q-8 -227 -189 -227q-37 0 -79.5 18.5t-82.5 43t-76 43.5t-62 19 q-29 0 -56 -33.5t-31 -98.5h-94z" />
<glyph unicode="E&#x300;" horiz-adv-x="1328" d="M205 0v1804h981v-126h-834v-662h743v-126h-743v-764h834v-126h-981zM496 2301l148 37l188 -344h-116z" />
<glyph unicode="E&#x301;" horiz-adv-x="1328" d="M205 0v1804h981v-126h-834v-662h743v-126h-743v-764h834v-126h-981zM498 1994l188 344l148 -37l-220 -307h-116z" />
<glyph unicode="I&#x300;" horiz-adv-x="556" d="M110 2301l148 37l188 -344h-116zM205 0v1804h147v-1804h-147z" />
<glyph unicode="I&#x301;" horiz-adv-x="556" d="M111 1994l188 344l148 -37l-220 -307h-116zM205 0v1804h147v-1804h-147z" />
<glyph unicode="O&#x300;" horiz-adv-x="1840" d="M83 897q0 405 233 670.5t605 265.5t604.5 -265.5t232.5 -670.5t-233.5 -669.5t-603.5 -264.5q-372 0 -605 264.5t-233 669.5zM231 897q0 -333 193.5 -569.5t496.5 -236.5q304 0 496.5 236.5t192.5 569.5t-192.5 571t-496.5 238q-303 0 -496.5 -237t-193.5 -572zM750 2301 l148 37l188 -344h-116z" />
<glyph unicode="O&#x301;" horiz-adv-x="1840" d="M83 897q0 405 233 670.5t605 265.5t604.5 -265.5t232.5 -670.5t-233.5 -669.5t-603.5 -264.5q-372 0 -605 264.5t-233 669.5zM231 897q0 -333 193.5 -569.5t496.5 -236.5q304 0 496.5 236.5t192.5 569.5t-192.5 571t-496.5 238q-303 0 -496.5 -237t-193.5 -572zM752 1994 l188 344l148 -37l-220 -307h-116z" />
<glyph unicode="O&#x303;" horiz-adv-x="1840" d="M83 897q0 405 233 670.5t605 265.5t604.5 -265.5t232.5 -670.5t-233.5 -669.5t-603.5 -264.5q-372 0 -605 264.5t-233 669.5zM231 897q0 -333 193.5 -569.5t496.5 -236.5q304 0 496.5 236.5t192.5 569.5t-192.5 571t-496.5 238q-303 0 -496.5 -237t-193.5 -572zM577 1994 q4 113 54.5 170.5t130.5 57.5q42 0 82 -19.5t79.5 -44.5t76.5 -43.5t76 -18.5q65 0 76 133h95q-8 -227 -189 -227q-37 0 -79.5 18.5t-82.5 43t-76 43.5t-62 19q-29 0 -56 -33.5t-31 -98.5h-94z" />
<glyph unicode="U&#x300;" horiz-adv-x="1764" d="M205 762v1042h147v-1038q0 -357 146 -516t384 -159q243 0 389 159t142 516v1038h148v-1042q0 -795 -679 -795q-678 0 -677 795zM648 2301l148 37l188 -344h-116z" />
<glyph unicode="U&#x301;" horiz-adv-x="1764" d="M205 762v1042h147v-1038q0 -357 146 -516t384 -159q243 0 389 159t142 516v1038h148v-1042q0 -795 -679 -795q-678 0 -677 795zM752 1994l188 344l148 -37l-220 -307h-116z" />
<glyph unicode="Y&#x301;" horiz-adv-x="1385" d="M0 1804h170l524 -883l521 883h173l-622 -1008v-796h-144v792zM581 1994l188 344l148 -37l-220 -307h-116z" />
<glyph unicode="a&#x300;" horiz-adv-x="1302" d="M98 322q0 481 838 481h22v22q0 126 -57 220q-87 152 -294 152q-133 0 -411 -87l-18 137q212 68 440 68q488 0 488 -538v-463q0 -159 47 -314l-134 -26l-53 207q-174 -216 -459 -214q-167 0 -288 94t-121 261zM253 348q0 -126 76 -191.5t191 -65.5q300 0 420 253 q18 43 18 72v259q-705 0 -705 -327zM481 1785l148 37l188 -344h-116z" />
<glyph unicode="a&#x301;" horiz-adv-x="1302" d="M98 322q0 481 838 481h22v22q0 126 -57 220q-87 152 -294 152q-133 0 -411 -87l-18 137q212 68 440 68q488 0 488 -538v-463q0 -159 47 -314l-134 -26l-53 207q-174 -216 -459 -214q-167 0 -288 94t-121 261zM253 348q0 -126 76 -191.5t191 -65.5q300 0 420 253 q18 43 18 72v259q-705 0 -705 -327zM483 1478l188 344l148 -37l-220 -307h-116z" />
<glyph unicode="a&#x303;" horiz-adv-x="1302" d="M98 322q0 481 838 481h22v22q0 126 -57 220q-87 152 -294 152q-133 0 -411 -87l-18 137q212 68 440 68q488 0 488 -538v-463q0 -159 47 -314l-134 -26l-53 207q-174 -216 -459 -214q-167 0 -288 94t-121 261zM253 348q0 -126 76 -191.5t191 -65.5q300 0 420 253 q18 43 18 72v259q-705 0 -705 -327zM307 1478q4 113 54.5 170.5t130.5 57.5q42 0 82 -19.5t79.5 -44.5t76.5 -43.5t76 -18.5q65 0 76 133h95q-8 -227 -189 -227q-37 0 -79.5 18.5t-82.5 43t-76 43.5t-62 19q-29 0 -56 -33.5t-31 -98.5h-94z" />
<glyph unicode="e&#x300;" horiz-adv-x="1415" d="M102 610q0 319 182 512t462 193q542 0 553 -679h-1053q7 -257 153.5 -399.5t377.5 -142.5q228 0 451 87l12 -124q-221 -90 -478 -90q-296 0 -478 181t-182 462zM253 755h907q-4 155 -87 275q-113 167 -346 167q-209 0 -340 -152q-106 -122 -134 -290zM539 1785l148 37 l188 -344h-116z" />
<glyph unicode="e&#x301;" horiz-adv-x="1415" d="M102 610q0 319 182 512t462 193q542 0 553 -679h-1053q7 -257 153.5 -399.5t377.5 -142.5q228 0 451 87l12 -124q-221 -90 -478 -90q-296 0 -478 181t-182 462zM253 755h907q-4 155 -87 275q-113 167 -346 167q-209 0 -340 -152q-106 -122 -134 -290zM539 1478l188 344 l148 -37l-220 -307h-116z" />
<glyph unicode="i&#x300;" horiz-adv-x="540" d="M102 1785l148 37l188 -344h-116zM196 0v1288h144v-1288h-144z" />
<glyph unicode="i&#x301;" horiz-adv-x="540" d="M104 1478l188 344l148 -37l-220 -307h-116zM196 0v1288h144v-1288h-144z" />
<glyph unicode="o&#x300;" horiz-adv-x="1507" d="M105 640q0 285 178.5 480t471.5 195q292 0 469.5 -195t177.5 -480t-178.5 -481t-468.5 -196q-293 0 -471.5 197t-178.5 480zM250 640q0 -235 142.5 -394t362.5 -159t361.5 159t141.5 394t-142.5 392.5t-360.5 157.5q-220 0 -362.5 -157.5t-142.5 -392.5zM583 1785l148 37 l188 -344h-116z" />
<glyph unicode="o&#x301;" horiz-adv-x="1507" d="M105 640q0 285 178.5 480t471.5 195q292 0 469.5 -195t177.5 -480t-178.5 -481t-468.5 -196q-293 0 -471.5 197t-178.5 480zM250 640q0 -235 142.5 -394t362.5 -159t361.5 159t141.5 394t-142.5 392.5t-360.5 157.5q-220 0 -362.5 -157.5t-142.5 -392.5zM585 1478 l188 344l148 -37l-220 -307h-116z" />
<glyph unicode="o&#x303;" horiz-adv-x="1507" d="M105 640q0 285 178.5 480t471.5 195q292 0 469.5 -195t177.5 -480t-178.5 -481t-468.5 -196q-293 0 -471.5 197t-178.5 480zM250 640q0 -235 142.5 -394t362.5 -159t361.5 159t141.5 394t-142.5 392.5t-360.5 157.5q-220 0 -362.5 -157.5t-142.5 -392.5zM411 1478 q4 113 54.5 170.5t130.5 57.5q42 0 82 -19.5t79.5 -44.5t76.5 -43.5t76 -18.5q65 0 76 133h95q-8 -227 -189 -227q-37 0 -79.5 18.5t-82.5 43t-76 43.5t-62 19q-29 0 -56 -33.5t-31 -98.5h-94z" />
<glyph unicode="u&#x300;" horiz-adv-x="1476" d="M196 564v724h148v-698q0 -496 350 -496q163 0 296 108q144 122 142 305v781h148v-974q0 -140 65 -310l-141 -30q-46 130 -61 250q-166 -257 -484 -257q-463 0 -463 597zM568 1785l148 37l188 -344h-116z" />
<glyph unicode="u&#x301;" horiz-adv-x="1476" d="M196 564v724h148v-698q0 -496 350 -496q163 0 296 108q144 122 142 305v781h148v-974q0 -140 65 -310l-141 -30q-46 130 -61 250q-166 -257 -484 -257q-463 0 -463 597zM570 1478l188 344l148 -37l-220 -307h-116z" />
<glyph unicode="y&#x301;" horiz-adv-x="1276" d="M11 1288h159l481 -1092l452 1092h162l-568 -1288q-223 -503 -595 -590l-34 116q322 73 489 517q0 11 -11 44zM470 1478l188 344l148 -37l-220 -307h-116z" />
<glyph unicode="I&#x303;" horiz-adv-x="556" d="M-63 1994q4 113 54.5 170.5t130.5 57.5q42 0 82 -19.5t79.5 -44.5t76.5 -43.5t76 -18.5q65 0 76 133h95q-8 -227 -189 -227q-37 0 -79.5 18.5t-82.5 43t-76 43.5t-62 19q-29 0 -56 -33.5t-31 -98.5h-94zM205 0v1804h147v-1804h-147z" />
<glyph unicode="i&#x303;" horiz-adv-x="540" d="M-72 1478q4 113 54.5 170.5t130.5 57.5q42 0 82 -19.5t79.5 -44.5t76.5 -43.5t76 -18.5q65 0 76 133h95q-8 -227 -189 -227q-37 0 -79.5 18.5t-82.5 43t-76 43.5t-62 19q-29 0 -56 -33.5t-31 -98.5h-94zM196 0v1288h144v-1288h-144z" />
<glyph unicode="U&#x303;" horiz-adv-x="1801" d="M223 762v1042h147v-1038q0 -357 146 -516t384 -159q243 0 389 159t142 516v1038h148v-1042q0 -795 -679 -795q-678 0 -677 795zM557 1994q4 113 54.5 170.5t130.5 57.5q42 0 82 -19.5t79.5 -44.5t76.5 -43.5t76 -18.5q65 0 76 133h95q-8 -227 -189 -227q-37 0 -79.5 18.5 t-82.5 43t-76 43.5t-62 19q-29 0 -56 -33.5t-31 -98.5h-94z" />
<glyph unicode="u&#x303;" horiz-adv-x="1533" d="M196 564v724h148v-698q0 -496 350 -496q163 0 296 108q144 122 142 305v781h148v-974q0 -140 65 -310l-141 -30q-46 130 -61 250q-166 -257 -484 -257q-463 0 -463 597zM422 1478q4 113 54.5 170.5t130.5 57.5q42 0 82 -19.5t79.5 -44.5t76.5 -43.5t76 -18.5q65 0 76 133 h95q-8 -227 -189 -227q-37 0 -79.5 18.5t-82.5 43t-76 43.5t-62 19q-29 0 -56 -33.5t-31 -98.5h-94z" />
<glyph unicode="A&#x323;" horiz-adv-x="1515" d="M0 0l683 1830h151l681 -1830h-163l-209 579h-775l-205 -579h-163zM413 705h686l-341 962zM648 -292q0 37 32.5 72t76.5 35q50 0 80.5 -35t30.5 -72q0 -47 -30.5 -78t-80.5 -31q-46 0 -77.5 32t-31.5 77z" />
<glyph unicode="a&#x323;" horiz-adv-x="1302" d="M98 322q0 481 838 481h22v22q0 126 -57 220q-87 152 -294 152q-133 0 -411 -87l-18 137q212 68 440 68q488 0 488 -538v-463q0 -159 47 -314l-134 -26l-53 207q-174 -216 -459 -214q-167 0 -288 94t-121 261zM253 348q0 -126 76 -191.5t191 -65.5q300 0 420 253 q18 43 18 72v259q-705 0 -705 -327zM542 -292q0 37 32.5 72t76.5 35q50 0 80.5 -35t30.5 -72q0 -47 -30.5 -78t-80.5 -31q-46 0 -77.5 32t-31.5 77z" />
<glyph unicode="A&#x309;" horiz-adv-x="1515" d="M0 0l683 1830h151l681 -1830h-163l-209 579h-775l-205 -579h-163zM413 705h686l-341 962zM538 2360q84 152 261 152q102 0 166.5 -54.5t64.5 -156.5q0 -116 -105 -200.5t-105 -130.5h-119q4 98 108.5 175t104.5 156q0 54 -36 81.5t-97 27.5q-98 0 -171 -105z" />
<glyph unicode="a&#x309;" horiz-adv-x="1302" d="M98 322q0 481 838 481h22v22q0 126 -57 220q-87 152 -294 152q-133 0 -411 -87l-18 137q212 68 440 68q488 0 488 -538v-463q0 -159 47 -314l-134 -26l-53 207q-174 -216 -459 -214q-167 0 -288 94t-121 261zM253 348q0 -126 76 -191.5t191 -65.5q300 0 420 253 q18 43 18 72v259q-705 0 -705 -327zM431 1804q75 136 235 136q91 0 149.5 -49t58.5 -140q0 -105 -94.5 -181t-94.5 -117h-108q4 88 98 157t94 141q0 48 -32.5 73t-87.5 25q-88 0 -153 -95z" />
<glyph unicode="&#xc2;&#x301;" horiz-adv-x="1515" d="M0 0l683 1830h151l681 -1830h-163l-209 579h-775l-205 -579h-163zM413 705h686l-341 962zM444 2002l261 296h107l261 -296h-141l-174 196l-173 -196h-141zM1068 2198l169 310l133 -33l-198 -277h-104z" />
<glyph unicode="&#xe2;&#x301;" horiz-adv-x="1302" d="M98 322q0 481 838 481h22v22q0 126 -57 220q-87 152 -294 152q-133 0 -411 -87l-18 137q212 68 440 68q488 0 488 -538v-463q0 -159 47 -314l-134 -26l-53 207q-174 -216 -459 -214q-167 0 -288 94t-121 261zM253 348q0 -126 76 -191.5t191 -65.5q300 0 420 253 q18 43 18 72v259q-705 0 -705 -327zM337 1486l261 296h107l261 -296h-141l-174 196l-173 -196h-141zM916 1691l169 310l133 -33l-198 -277h-104z" />
<glyph unicode="&#xc2;&#x300;" horiz-adv-x="1515" d="M0 0l683 1830h151l681 -1830h-163l-209 579h-775l-205 -579h-163zM413 705h686l-341 962zM444 2002l261 296h107l261 -296h-141l-174 196l-173 -196h-141zM953 2475l133 33l169 -310h-104z" />
<glyph unicode="&#xe2;&#x300;" horiz-adv-x="1302" d="M98 322q0 481 838 481h22v22q0 126 -57 220q-87 152 -294 152q-133 0 -411 -87l-18 137q212 68 440 68q488 0 488 -538v-463q0 -159 47 -314l-134 -26l-53 207q-174 -216 -459 -214q-167 0 -288 94t-121 261zM253 348q0 -126 76 -191.5t191 -65.5q300 0 420 253 q18 43 18 72v259q-705 0 -705 -327zM337 1486l261 296h107l261 -296h-141l-174 196l-173 -196h-141zM821 1968l133 33l169 -310h-104z" />
<glyph unicode="&#xc2;&#x309;" horiz-adv-x="1515" d="M0 0l683 1830h151l681 -1830h-163l-209 579h-775l-205 -579h-163zM413 705h686l-341 962zM444 2002l261 296h107l261 -296h-141l-174 196l-173 -196h-141zM958 2539q75 136 235 136q91 0 149.5 -49t58.5 -140q0 -105 -94.5 -181t-94.5 -117h-108q4 88 98 157t94 141 q0 48 -32.5 73t-87.5 25q-88 0 -153 -95z" />
<glyph unicode="&#xe2;&#x309;" horiz-adv-x="1302" d="M98 322q0 481 838 481h22v22q0 126 -57 220q-87 152 -294 152q-133 0 -411 -87l-18 137q212 68 440 68q488 0 488 -538v-463q0 -159 47 -314l-134 -26l-53 207q-174 -216 -459 -214q-167 0 -288 94t-121 261zM253 348q0 -126 76 -191.5t191 -65.5q300 0 420 253 q18 43 18 72v259q-705 0 -705 -327zM337 1486l261 296h107l261 -296h-141l-174 196l-173 -196h-141zM788 2076q75 136 235 136q91 0 149.5 -49t58.5 -140q0 -105 -94.5 -181t-94.5 -117h-108q4 88 98 157t94 141q0 48 -32.5 73t-87.5 25q-88 0 -153 -95z" />
<glyph unicode="&#xc2;&#x303;" horiz-adv-x="1515" d="M0 0l683 1830h151l681 -1830h-163l-209 579h-775l-205 -579h-163zM413 705h686l-341 962zM422 2396q4 113 54.5 170.5t130.5 57.5q42 0 82 -19.5t79.5 -44.5t76.5 -43.5t76 -18.5q65 0 76 133h95q-8 -227 -189 -227q-37 0 -79.5 18.5t-82.5 43t-76 43.5t-62 19 q-29 0 -56 -33.5t-31 -98.5h-94zM444 2002l261 296h107l261 -296h-141l-174 196l-173 -196h-141z" />
<glyph unicode="&#xe2;&#x303;" horiz-adv-x="1302" d="M98 322q0 481 838 481h22v22q0 126 -57 220q-87 152 -294 152q-133 0 -411 -87l-18 137q212 68 440 68q488 0 488 -538v-463q0 -159 47 -314l-134 -26l-53 207q-174 -216 -459 -214q-167 0 -288 94t-121 261zM253 348q0 -126 76 -191.5t191 -65.5q300 0 420 253 q18 43 18 72v259q-705 0 -705 -327zM315 1876q4 113 54.5 170.5t130.5 57.5q42 0 82 -19.5t79.5 -44.5t76.5 -43.5t76 -18.5q65 0 76 133h95q-8 -227 -189 -227q-37 0 -79.5 18.5t-82.5 43t-76 43.5t-62 19q-29 0 -56 -33.5t-31 -98.5h-94zM337 1486l261 296h107l261 -296 h-141l-174 196l-173 -196h-141z" />
<glyph unicode="&#xc2;&#x323;" horiz-adv-x="1515" d="M0 0l683 1830h151l681 -1830h-163l-209 579h-775l-205 -579h-163zM413 705h686l-341 962zM444 2002l261 296h107l261 -296h-141l-174 196l-173 -196h-141zM648 -292q0 37 32.5 72t76.5 35q50 0 80.5 -35t30.5 -72q0 -47 -30.5 -78t-80.5 -31q-46 0 -77.5 32t-31.5 77z " />
<glyph unicode="&#xe2;&#x323;" horiz-adv-x="1302" d="M98 322q0 481 838 481h22v22q0 126 -57 220q-87 152 -294 152q-133 0 -411 -87l-18 137q212 68 440 68q488 0 488 -538v-463q0 -159 47 -314l-134 -26l-53 207q-174 -216 -459 -214q-167 0 -288 94t-121 261zM253 348q0 -126 76 -191.5t191 -65.5q300 0 420 253 q18 43 18 72v259q-705 0 -705 -327zM337 1486l261 296h107l261 -296h-141l-174 196l-173 -196h-141zM542 -292q0 37 32.5 72t76.5 35q50 0 80.5 -35t30.5 -72q0 -47 -30.5 -78t-80.5 -31q-46 0 -77.5 32t-31.5 77z" />
<glyph unicode="&#x102;&#x301;" horiz-adv-x="1515" d="M0 0l683 1830h151l681 -1830h-163l-209 579h-775l-205 -579h-163zM413 705h686l-341 962zM417 2233h133q15 -43 40 -72q61 -69 167 -69q105 0 163 69q29 29 46 72h128q-19 -102 -91 -167q-98 -90 -246 -92q-148 0 -250 92q-68 65 -90 167zM677 2266l169 310l133 -33 l-198 -277h-104z" />
<glyph unicode="&#x103;&#x301;" horiz-adv-x="1302" d="M98 322q0 481 838 481h22v22q0 126 -57 220q-87 152 -294 152q-133 0 -411 -87l-18 137q212 68 440 68q488 0 488 -538v-463q0 -159 47 -314l-134 -26l-53 207q-174 -216 -459 -214q-167 0 -288 94t-121 261zM253 348q0 -126 76 -191.5t191 -65.5q300 0 420 253 q18 43 18 72v259q-705 0 -705 -327zM311 1717h133q15 -43 40 -72q61 -69 167 -69q105 0 163 69q29 29 46 72h128q-19 -102 -91 -167q-98 -90 -246 -92q-148 0 -250 92q-68 65 -90 167zM576 1761l169 310l133 -33l-198 -277h-104z" />
<glyph unicode="&#x102;&#x300;" horiz-adv-x="1515" d="M0 0l683 1830h151l681 -1830h-163l-209 579h-775l-205 -579h-163zM413 705h686l-341 962zM417 2233h133q15 -43 40 -72q61 -69 167 -69q105 0 163 69q29 29 46 72h128q-19 -102 -91 -167q-98 -90 -246 -92q-148 0 -250 92q-68 65 -90 167zM533 2551l133 33l169 -310h-104 z" />
<glyph unicode="&#x103;&#x300;" horiz-adv-x="1302" d="M98 322q0 481 838 481h22v22q0 126 -57 220q-87 152 -294 152q-133 0 -411 -87l-18 137q212 68 440 68q488 0 488 -538v-463q0 -159 47 -314l-134 -26l-53 207q-174 -216 -459 -214q-167 0 -288 94t-121 261zM253 348q0 -126 76 -191.5t191 -65.5q300 0 420 253 q18 43 18 72v259q-705 0 -705 -327zM311 1717h133q15 -43 40 -72q61 -69 167 -69q105 0 163 69q29 29 46 72h128q-19 -102 -91 -167q-98 -90 -246 -92q-148 0 -250 92q-68 65 -90 167zM427 2034l133 33l169 -310h-104z" />
<glyph unicode="&#x102;&#x309;" horiz-adv-x="1515" d="M0 0l683 1830h151l681 -1830h-163l-209 579h-775l-205 -579h-163zM413 705h686l-341 962zM417 2233h133q15 -43 40 -72q61 -69 167 -69q105 0 163 69q29 29 46 72h128q-19 -102 -91 -167q-98 -90 -246 -92q-148 0 -250 92q-68 65 -90 167zM538 2626q75 136 235 136 q91 0 149.5 -49t58.5 -140q0 -105 -94.5 -181t-94.5 -117h-108q4 88 98 157t94 141q0 48 -32.5 73t-87.5 25q-88 0 -153 -95z" />
<glyph unicode="&#x103;&#x309;" horiz-adv-x="1302" d="M98 322q0 481 838 481h22v22q0 126 -57 220q-87 152 -294 152q-133 0 -411 -87l-18 137q212 68 440 68q488 0 488 -538v-463q0 -159 47 -314l-134 -26l-53 207q-174 -216 -459 -214q-167 0 -288 94t-121 261zM253 348q0 -126 76 -191.5t191 -65.5q300 0 420 253 q18 43 18 72v259q-705 0 -705 -327zM311 1717h133q15 -43 40 -72q61 -69 167 -69q105 0 163 69q29 29 46 72h128q-19 -102 -91 -167q-98 -90 -246 -92q-148 0 -250 92q-68 65 -90 167zM434 2122q75 136 235 136q91 0 149.5 -49t58.5 -140q0 -105 -94.5 -181t-94.5 -117h-108 q4 88 98 157t94 141q0 48 -32.5 73t-87.5 25q-88 0 -153 -95z" />
<glyph unicode="&#x102;&#x303;" horiz-adv-x="1515" d="M0 0l683 1830h151l681 -1830h-163l-209 579h-775l-205 -579h-163zM413 705h686l-341 962zM415 2357q4 113 54.5 170.5t130.5 57.5q42 0 82 -19.5t79.5 -44.5t76.5 -43.5t76 -18.5q65 0 76 133h95q-8 -227 -189 -227q-37 0 -79.5 18.5t-82.5 43t-76 43.5t-62 19 q-29 0 -56 -33.5t-31 -98.5h-94zM417 2233h133q15 -43 40 -72q61 -69 167 -69q105 0 163 69q29 29 46 72h128q-19 -102 -91 -167q-98 -90 -246 -92q-148 0 -250 92q-68 65 -90 167z" />
<glyph unicode="&#x103;&#x303;" horiz-adv-x="1302" d="M98 322q0 481 838 481h22v22q0 126 -57 220q-87 152 -294 152q-133 0 -411 -87l-18 137q212 68 440 68q488 0 488 -538v-463q0 -159 47 -314l-134 -26l-53 207q-174 -216 -459 -214q-167 0 -288 94t-121 261zM253 348q0 -126 76 -191.5t191 -65.5q300 0 420 253 q18 43 18 72v259q-705 0 -705 -327zM307 1835q4 113 54.5 170.5t130.5 57.5q42 0 82 -19.5t79.5 -44.5t76.5 -43.5t76 -18.5q65 0 76 133h95q-8 -227 -189 -227q-37 0 -79.5 18.5t-82.5 43t-76 43.5t-62 19q-29 0 -56 -33.5t-31 -98.5h-94zM311 1717h133q15 -43 40 -72 q61 -69 167 -69q105 0 163 69q29 29 46 72h128q-19 -102 -91 -167q-98 -90 -246 -92q-148 0 -250 92q-68 65 -90 167z" />
<glyph unicode="&#x102;&#x323;" horiz-adv-x="1515" d="M0 0l683 1830h151l681 -1830h-163l-209 579h-775l-205 -579h-163zM413 705h686l-341 962zM417 2233h133q15 -43 40 -72q61 -69 167 -69q105 0 163 69q29 29 46 72h128q-19 -102 -91 -167q-98 -90 -246 -92q-148 0 -250 92q-68 65 -90 167zM648 -292q0 37 32.5 72t76.5 35 q50 0 80.5 -35t30.5 -72q0 -47 -30.5 -78t-80.5 -31q-46 0 -77.5 32t-31.5 77z" />
<glyph unicode="&#x103;&#x323;" horiz-adv-x="1302" d="M98 322q0 481 838 481h22v22q0 126 -57 220q-87 152 -294 152q-133 0 -411 -87l-18 137q212 68 440 68q488 0 488 -538v-463q0 -159 47 -314l-134 -26l-53 207q-174 -216 -459 -214q-167 0 -288 94t-121 261zM253 348q0 -126 76 -191.5t191 -65.5q300 0 420 253 q18 43 18 72v259q-705 0 -705 -327zM311 1717h133q15 -43 40 -72q61 -69 167 -69q105 0 163 69q29 29 46 72h128q-19 -102 -91 -167q-98 -90 -246 -92q-148 0 -250 92q-68 65 -90 167zM542 -292q0 37 32.5 72t76.5 35q50 0 80.5 -35t30.5 -72q0 -47 -30.5 -78t-80.5 -31 q-46 0 -77.5 32t-31.5 77z" />
<glyph unicode="E&#x323;" horiz-adv-x="1328" d="M205 0v1804h981v-126h-834v-662h743v-126h-743v-764h834v-126h-981zM553 -292q0 37 32.5 72t76.5 35q50 0 80.5 -35t30.5 -72q0 -47 -30.5 -78t-80.5 -31q-46 0 -77.5 32t-31.5 77z" />
<glyph unicode="e&#x323;" horiz-adv-x="1415" d="M102 610q0 319 182 512t462 193q542 0 553 -679h-1053q7 -257 153.5 -399.5t377.5 -142.5q228 0 451 87l12 -124q-221 -90 -478 -90q-296 0 -478 181t-182 462zM253 755h907q-4 155 -87 275q-113 167 -346 167q-209 0 -340 -152q-106 -122 -134 -290zM600 -292 q0 37 32.5 72t76.5 35q50 0 80.5 -35t30.5 -72q0 -47 -30.5 -78t-80.5 -31q-46 0 -77.5 32t-31.5 77z" />
<glyph unicode="E&#x309;" horiz-adv-x="1328" d="M205 0v1804h981v-126h-834v-662h743v-126h-743v-764h834v-126h-981zM447 2360q84 152 261 152q102 0 166.5 -54.5t64.5 -156.5q0 -116 -105 -200.5t-105 -130.5h-119q4 98 108.5 175t104.5 156q0 54 -36 81.5t-97 27.5q-98 0 -171 -105z" />
<glyph unicode="e&#x309;" horiz-adv-x="1415" d="M102 610q0 319 182 512t462 193q542 0 553 -679h-1053q7 -257 153.5 -399.5t377.5 -142.5q228 0 451 87l12 -124q-221 -90 -478 -90q-296 0 -478 181t-182 462zM253 755h907q-4 155 -87 275q-113 167 -346 167q-209 0 -340 -152q-106 -122 -134 -290zM488 1804 q75 136 235 136q91 0 149.5 -49t58.5 -140q0 -105 -94.5 -181t-94.5 -117h-108q4 88 98 157t94 141q0 48 -32.5 73t-87.5 25q-88 0 -153 -95z" />
<glyph unicode="E&#x303;" horiz-adv-x="1328" d="M205 0v1804h981v-126h-834v-662h743v-126h-743v-764h834v-126h-981zM322 1994q4 113 54.5 170.5t130.5 57.5q42 0 82 -19.5t79.5 -44.5t76.5 -43.5t76 -18.5q65 0 76 133h95q-8 -227 -189 -227q-37 0 -79.5 18.5t-82.5 43t-76 43.5t-62 19q-29 0 -56 -33.5t-31 -98.5h-94 z" />
<glyph unicode="e&#x303;" horiz-adv-x="1415" d="M102 527q0 319 182 512t462 193q542 0 553 -679h-1053q7 -257 153.5 -399.5t377.5 -142.5q228 0 451 87l12 -124q-221 -90 -478 -90q-296 0 -478 181t-182 462zM253 672h907q-4 155 -87 275q-113 167 -346 167q-209 0 -340 -152q-106 -122 -134 -290zM365 1395 q4 113 54.5 170.5t130.5 57.5q42 0 82 -19.5t79.5 -44.5t76.5 -43.5t76 -18.5q65 0 76 133h95q-8 -227 -189 -227q-37 0 -79.5 18.5t-82.5 43t-76 43.5t-62 19q-29 0 -56 -33.5t-31 -98.5h-94z" />
<glyph unicode="&#xca;&#x301;" horiz-adv-x="1328" d="M205 0v1804h981v-126h-834v-662h743v-126h-743v-764h834v-126h-981zM348 2002l261 296h107l261 -296h-141l-174 196l-173 -196h-141zM936 2198l169 310l133 -33l-198 -277h-104z" />
<glyph unicode="&#xea;&#x301;" horiz-adv-x="1415" d="M102 610q0 319 182 512t462 193q542 0 553 -679h-1053q7 -257 153.5 -399.5t377.5 -142.5q228 0 451 87l12 -124q-221 -90 -478 -90q-296 0 -478 181t-182 462zM253 755h907q-4 155 -87 275q-113 167 -346 167q-209 0 -340 -152q-106 -122 -134 -290zM394 1486l261 296 h107l261 -296h-141l-174 196l-173 -196h-141zM1020 1691l169 310l133 -33l-198 -277h-104z" />
<glyph unicode="&#xca;&#x300;" horiz-adv-x="1328" d="M205 0v1804h981v-126h-834v-662h743v-126h-743v-764h834v-126h-981zM348 2002l261 296h107l261 -296h-141l-174 196l-173 -196h-141zM825 2475l133 33l169 -310h-104z" />
<glyph unicode="&#xea;&#x300;" horiz-adv-x="1415" d="M102 610q0 319 182 512t462 193q542 0 553 -679h-1053q7 -257 153.5 -399.5t377.5 -142.5q228 0 451 87l12 -124q-221 -90 -478 -90q-296 0 -478 181t-182 462zM253 755h907q-4 155 -87 275q-113 167 -346 167q-209 0 -340 -152q-106 -122 -134 -290zM394 1486l261 296 h107l261 -296h-141l-174 196l-173 -196h-141zM879 1963l148 37l188 -344h-116z" />
<glyph unicode="&#xca;&#x309;" horiz-adv-x="1328" d="M205 0v1804h981v-126h-834v-662h743v-126h-743v-764h834v-126h-981zM348 2002l261 296h107l261 -296h-141l-174 196l-173 -196h-141zM853 2539q75 136 235 136q91 0 149.5 -49t58.5 -140q0 -105 -94.5 -181t-94.5 -117h-108q4 88 98 157t94 141q0 48 -32.5 73t-87.5 25 q-88 0 -153 -95z" />
<glyph unicode="&#xea;&#x309;" horiz-adv-x="1415" d="M102 610q0 319 182 512t462 193q542 0 553 -679h-1053q7 -257 153.5 -399.5t377.5 -142.5q228 0 451 87l12 -124q-221 -90 -478 -90q-296 0 -478 181t-182 462zM253 755h907q-4 155 -87 275q-113 167 -346 167q-209 0 -340 -152q-106 -122 -134 -290zM394 1486l261 296 h107l261 -296h-141l-174 196l-173 -196h-141zM882 2076q75 136 235 136q91 0 149.5 -49t58.5 -140q0 -105 -94.5 -181t-94.5 -117h-108q4 88 98 157t94 141q0 48 -32.5 73t-87.5 25q-88 0 -153 -95z" />
<glyph unicode="&#xca;&#x303;" horiz-adv-x="1328" d="M205 0v1804h981v-126h-834v-662h743v-126h-743v-764h834v-126h-981zM318 2396q4 113 54.5 170.5t130.5 57.5q42 0 82 -19.5t79.5 -44.5t76.5 -43.5t76 -18.5q65 0 76 133h95q-8 -227 -189 -227q-37 0 -79.5 18.5t-82.5 43t-76 43.5t-62 19q-29 0 -56 -33.5t-31 -98.5h-94 zM348 2002l261 296h107l261 -296h-141l-174 196l-173 -196h-141z" />
<glyph unicode="&#xea;&#x303;" horiz-adv-x="1415" d="M102 610q0 319 182 512t462 193q542 0 553 -679h-1053q7 -257 153.5 -399.5t377.5 -142.5q228 0 451 87l12 -124q-221 -90 -478 -90q-296 0 -478 181t-182 462zM253 755h907q-4 155 -87 275q-113 167 -346 167q-209 0 -340 -152q-106 -122 -134 -290zM365 1876 q4 113 54.5 170.5t130.5 57.5q42 0 82 -19.5t79.5 -44.5t76.5 -43.5t76 -18.5q65 0 76 133h95q-8 -227 -189 -227q-37 0 -79.5 18.5t-82.5 43t-76 43.5t-62 19q-29 0 -56 -33.5t-31 -98.5h-94zM394 1486l261 296h107l261 -296h-141l-174 196l-173 -196h-141z" />
<glyph unicode="&#xca;&#x323;" horiz-adv-x="1328" d="M205 0v1804h981v-126h-834v-662h743v-126h-743v-764h834v-126h-981zM348 2002l261 296h107l261 -296h-141l-174 196l-173 -196h-141zM553 -292q0 37 32.5 72t76.5 35q50 0 80.5 -35t30.5 -72q0 -47 -30.5 -78t-80.5 -31q-46 0 -77.5 32t-31.5 77z" />
<glyph unicode="&#xea;&#x323;" horiz-adv-x="1415" d="M102 610q0 319 182 512t462 193q542 0 553 -679h-1053q7 -257 153.5 -399.5t377.5 -142.5q228 0 451 87l12 -124q-221 -90 -478 -90q-296 0 -478 181t-182 462zM253 755h907q-4 155 -87 275q-113 167 -346 167q-209 0 -340 -152q-106 -122 -134 -290zM394 1486l261 296 h107l261 -296h-141l-174 196l-173 -196h-141zM600 -292q0 37 32.5 72t76.5 35q50 0 80.5 -35t30.5 -72q0 -47 -30.5 -78t-80.5 -31q-46 0 -77.5 32t-31.5 77z" />
<glyph unicode="I&#x309;" horiz-adv-x="556" d="M61 2360q84 152 261 152q102 0 166.5 -54.5t64.5 -156.5q0 -116 -105 -200.5t-105 -130.5h-119q4 98 108.5 175t104.5 156q0 54 -36 81.5t-97 27.5q-98 0 -171 -105zM205 0v1804h147v-1804h-147z" />
<glyph unicode="i&#x309;" horiz-adv-x="540" d="M53 1844q84 152 261 152q102 0 166.5 -54.5t64.5 -156.5q0 -116 -105 -200.5t-105 -130.5h-119q4 98 108.5 175t104.5 156q0 54 -36 81.5t-97 27.5q-98 0 -171 -105zM196 0v1288h144v-1288h-144z" />
<glyph unicode="I&#x323;" horiz-adv-x="556" d="M170 -292q0 37 32.5 72t76.5 35q50 0 80.5 -35t30.5 -72q0 -47 -30.5 -78t-80.5 -31q-46 0 -77.5 32t-31.5 77zM205 0v1804h147v-1804h-147z" />
<glyph unicode="i&#x323;" horiz-adv-x="540" d="M148 1678q0 54 32.5 88t84.5 34q53 0 87.5 -34t34.5 -88t-34.5 -85.5t-87.5 -31.5q-54 0 -85.5 32.5t-31.5 84.5zM163 -292q0 37 32.5 72t76.5 35q50 0 80.5 -35t30.5 -72q0 -47 -30.5 -78t-80.5 -31q-46 0 -77.5 32t-31.5 77zM196 0v1288h148v-1288h-148z" />
<glyph unicode="O&#x323;" horiz-adv-x="1840" d="M83 897q0 405 233 670.5t605 265.5t604.5 -265.5t232.5 -670.5t-233.5 -669.5t-603.5 -264.5q-372 0 -605 264.5t-233 669.5zM231 897q0 -333 193.5 -569.5t496.5 -236.5q304 0 496.5 236.5t192.5 569.5t-192.5 571t-496.5 238q-303 0 -496.5 -237t-193.5 -572zM810 -292 q0 37 32.5 72t76.5 35q50 0 80.5 -35t30.5 -72q0 -47 -30.5 -78t-80.5 -31q-46 0 -77.5 32t-31.5 77z" />
<glyph unicode="o&#x323;" horiz-adv-x="1507" d="M105 640q0 285 178.5 480t471.5 195q292 0 469.5 -195t177.5 -480t-178.5 -481t-468.5 -196q-293 0 -471.5 197t-178.5 480zM250 640q0 -235 142.5 -394t362.5 -159t361.5 159t141.5 394t-142.5 392.5t-360.5 157.5q-220 0 -362.5 -157.5t-142.5 -392.5zM644 -292 q0 37 32.5 72t76.5 35q50 0 80.5 -35t30.5 -72q0 -47 -30.5 -78t-80.5 -31q-46 0 -77.5 32t-31.5 77z" />
<glyph unicode="O&#x309;" horiz-adv-x="1840" d="M83 897q0 405 233 670.5t605 265.5t604.5 -265.5t232.5 -670.5t-233.5 -669.5t-603.5 -264.5q-372 0 -605 264.5t-233 669.5zM231 897q0 -333 193.5 -569.5t496.5 -236.5q304 0 496.5 236.5t192.5 569.5t-192.5 571t-496.5 238q-303 0 -496.5 -237t-193.5 -572zM701 2360 q84 152 261 152q102 0 166.5 -54.5t64.5 -156.5q0 -116 -105 -200.5t-105 -130.5h-119q4 98 108.5 175t104.5 156q0 54 -36 81.5t-97 27.5q-98 0 -171 -105z" />
<glyph unicode="o&#x309;" horiz-adv-x="1507" d="M105 640q0 285 178.5 480t471.5 195q292 0 469.5 -195t177.5 -480t-178.5 -481t-468.5 -196q-293 0 -471.5 197t-178.5 480zM250 640q0 -235 142.5 -394t362.5 -159t361.5 159t141.5 394t-142.5 392.5t-360.5 157.5q-220 0 -362.5 -157.5t-142.5 -392.5zM534 1844 q84 152 261 152q102 0 166.5 -54.5t64.5 -156.5q0 -116 -105 -200.5t-105 -130.5h-119q4 98 108.5 175t104.5 156q0 54 -36 81.5t-97 27.5q-98 0 -171 -105z" />
<glyph unicode="&#xd4;&#x301;" horiz-adv-x="1840" d="M83 897q0 405 233 670.5t605 265.5t604.5 -265.5t232.5 -670.5t-233.5 -669.5t-603.5 -264.5q-372 0 -605 264.5t-233 669.5zM231 897q0 -333 193.5 -569.5t496.5 -236.5q304 0 496.5 236.5t192.5 569.5t-192.5 571t-496.5 238q-303 0 -496.5 -237t-193.5 -572zM607 2002 l261 296h107l261 -296h-141l-174 196l-173 -196h-141zM1273 2198l169 310l133 -33l-198 -277h-104z" />
<glyph unicode="&#xf4;&#x301;" horiz-adv-x="1507" d="M105 640q0 285 178.5 480t471.5 195q292 0 469.5 -195t177.5 -480t-178.5 -481t-468.5 -196q-293 0 -471.5 197t-178.5 480zM250 640q0 -235 142.5 -394t362.5 -159t361.5 159t141.5 394t-142.5 392.5t-360.5 157.5q-220 0 -362.5 -157.5t-142.5 -392.5zM439 1486 l261 296h107l261 -296h-141l-174 196l-173 -196h-141zM1075 1691l169 310l133 -33l-198 -277h-104z" />
<glyph unicode="&#xd4;&#x300;" horiz-adv-x="1840" d="M83 897q0 405 233 670.5t605 265.5t604.5 -265.5t232.5 -670.5t-233.5 -669.5t-603.5 -264.5q-372 0 -605 264.5t-233 669.5zM231 897q0 -333 193.5 -569.5t496.5 -236.5q304 0 496.5 236.5t192.5 569.5t-192.5 571t-496.5 238q-303 0 -496.5 -237t-193.5 -572zM607 2002 l261 296h107l261 -296h-141l-174 196l-173 -196h-141zM1154 2475l133 33l169 -310h-104z" />
<glyph unicode="&#xf4;&#x300;" horiz-adv-x="1507" d="M105 640q0 285 178.5 480t471.5 195q292 0 469.5 -195t177.5 -480t-178.5 -481t-468.5 -196q-293 0 -471.5 197t-178.5 480zM250 640q0 -235 142.5 -394t362.5 -159t361.5 159t141.5 394t-142.5 392.5t-360.5 157.5q-220 0 -362.5 -157.5t-142.5 -392.5zM439 1486 l261 296h107l261 -296h-141l-174 196l-173 -196h-141zM964 1968l133 33l169 -310h-104z" />
<glyph unicode="&#xd4;&#x309;" horiz-adv-x="1840" d="M83 897q0 405 233 670.5t605 265.5t604.5 -265.5t232.5 -670.5t-233.5 -669.5t-603.5 -264.5q-372 0 -605 264.5t-233 669.5zM231 897q0 -333 193.5 -569.5t496.5 -236.5q304 0 496.5 236.5t192.5 569.5t-192.5 571t-496.5 238q-303 0 -496.5 -237t-193.5 -572zM607 2002 l261 296h107l261 -296h-141l-174 196l-173 -196h-141zM1125 2539q75 136 235 136q91 0 149.5 -49t58.5 -140q0 -105 -94.5 -181t-94.5 -117h-108q4 88 98 157t94 141q0 48 -32.5 73t-87.5 25q-88 0 -153 -95z" />
<glyph unicode="&#xf4;&#x309;" horiz-adv-x="1507" d="M105 640q0 285 178.5 480t471.5 195q292 0 469.5 -195t177.5 -480t-178.5 -481t-468.5 -196q-293 0 -471.5 197t-178.5 480zM250 640q0 -235 142.5 -394t362.5 -159t361.5 159t141.5 394t-142.5 392.5t-360.5 157.5q-220 0 -362.5 -157.5t-142.5 -392.5zM439 1486 l261 296h107l261 -296h-141l-174 196l-173 -196h-141zM917 2076q75 136 235 136q91 0 149.5 -49t58.5 -140q0 -105 -94.5 -181t-94.5 -117h-108q4 88 98 157t94 141q0 48 -32.5 73t-87.5 25q-88 0 -153 -95z" />
<glyph unicode="&#xd4;&#x303;" horiz-adv-x="1840" d="M83 897q0 405 233 670.5t605 265.5t604.5 -265.5t232.5 -670.5t-233.5 -669.5t-603.5 -264.5q-372 0 -605 264.5t-233 669.5zM231 897q0 -333 193.5 -569.5t496.5 -236.5q304 0 496.5 236.5t192.5 569.5t-192.5 571t-496.5 238q-303 0 -496.5 -237t-193.5 -572zM577 2396 q4 113 54.5 170.5t130.5 57.5q42 0 82 -19.5t79.5 -44.5t76.5 -43.5t76 -18.5q65 0 76 133h95q-8 -227 -189 -227q-37 0 -79.5 18.5t-82.5 43t-76 43.5t-62 19q-29 0 -56 -33.5t-31 -98.5h-94zM607 2002l261 296h107l261 -296h-141l-174 196l-173 -196h-141z" />
<glyph unicode="&#xf4;&#x303;" horiz-adv-x="1507" d="M105 640q0 285 178.5 480t471.5 195q292 0 469.5 -195t177.5 -480t-178.5 -481t-468.5 -196q-293 0 -471.5 197t-178.5 480zM250 640q0 -235 142.5 -394t362.5 -159t361.5 159t141.5 394t-142.5 392.5t-360.5 157.5q-220 0 -362.5 -157.5t-142.5 -392.5zM411 1876 q4 113 54.5 170.5t130.5 57.5q42 0 82 -19.5t79.5 -44.5t76.5 -43.5t76 -18.5q65 0 76 133h95q-8 -227 -189 -227q-37 0 -79.5 18.5t-82.5 43t-76 43.5t-62 19q-29 0 -56 -33.5t-31 -98.5h-94zM439 1486l261 296h107l261 -296h-141l-174 196l-173 -196h-141z" />
<glyph unicode="&#xd4;&#x323;" horiz-adv-x="1840" d="M83 897q0 405 233 670.5t605 265.5t604.5 -265.5t232.5 -670.5t-233.5 -669.5t-603.5 -264.5q-372 0 -605 264.5t-233 669.5zM231 897q0 -333 193.5 -569.5t496.5 -236.5q304 0 496.5 236.5t192.5 569.5t-192.5 571t-496.5 238q-303 0 -496.5 -237t-193.5 -572zM607 2002 l261 296h107l261 -296h-141l-174 196l-173 -196h-141zM810 -292q0 37 32.5 72t76.5 35q50 0 80.5 -35t30.5 -72q0 -47 -30.5 -78t-80.5 -31q-46 0 -77.5 32t-31.5 77z" />
<glyph unicode="&#xf4;&#x323;" horiz-adv-x="1507" d="M105 640q0 285 178.5 480t471.5 195q292 0 469.5 -195t177.5 -480t-178.5 -481t-468.5 -196q-293 0 -471.5 197t-178.5 480zM250 640q0 -235 142.5 -394t362.5 -159t361.5 159t141.5 394t-142.5 392.5t-360.5 157.5q-220 0 -362.5 -157.5t-142.5 -392.5zM439 1486 l261 296h107l261 -296h-141l-174 196l-173 -196h-141zM644 -292q0 37 32.5 72t76.5 35q50 0 80.5 -35t30.5 -72q0 -47 -30.5 -78t-80.5 -31q-46 0 -77.5 32t-31.5 77z" />
<glyph unicode="&#x1a0;&#x301;" horiz-adv-x="1840" d="M83 897q0 405 233 670.5t605 265.5q330 0 557 -216q159 170 159 357h121q0 -83 -52 -196q-65 -133 -169 -224q221 -263 221 -657q0 -405 -233.5 -669.5t-603.5 -264.5q-372 0 -605 264.5t-233 669.5zM231 897q0 -333 193.5 -569.5t496.5 -236.5q304 0 496.5 236.5 t192.5 569.5t-192.5 571t-496.5 238q-303 0 -496.5 -237t-193.5 -572zM737 1994l188 344l148 -37l-220 -307h-116z" />
<glyph unicode="&#x1a1;&#x301;" horiz-adv-x="1507" d="M105 640q0 285 178.5 480t471.5 195q253 0 435 -162q136 129 148 355h125q-7 -232 -212 -420q151 -191 151 -448q0 -285 -178.5 -481t-468.5 -196q-293 0 -471.5 197t-178.5 480zM250 640q0 -235 142.5 -394t362.5 -159t361.5 159t141.5 394t-142.5 392.5t-360.5 157.5 q-220 0 -362.5 -157.5t-142.5 -392.5zM570 1478l188 344l148 -37l-220 -307h-116z" />
<glyph unicode="&#x1a0;&#x300;" horiz-adv-x="1840" d="M83 897q0 405 233 670.5t605 265.5q330 0 557 -216q159 170 159 357h121q0 -83 -52 -196q-65 -133 -169 -224q221 -263 221 -657q0 -405 -233.5 -669.5t-603.5 -264.5q-372 0 -605 264.5t-233 669.5zM231 897q0 -333 193.5 -569.5t496.5 -236.5q304 0 496.5 236.5 t192.5 569.5t-192.5 571t-496.5 238q-303 0 -496.5 -237t-193.5 -572zM774 2301l148 37l188 -344h-116z" />
<glyph unicode="&#x1a1;&#x300;" horiz-adv-x="1507" d="M105 640q0 285 178.5 480t471.5 195q253 0 435 -162q136 129 148 355h125q-7 -232 -212 -420q151 -191 151 -448q0 -285 -178.5 -481t-468.5 -196q-293 0 -471.5 197t-178.5 480zM250 640q0 -235 142.5 -394t362.5 -159t361.5 159t141.5 394t-142.5 392.5t-360.5 157.5 q-220 0 -362.5 -157.5t-142.5 -392.5zM607 1785l148 37l188 -344h-116z" />
<glyph unicode="&#x1a0;&#x309;" horiz-adv-x="1840" d="M83 897q0 405 233 670.5t605 265.5q330 0 557 -216q159 170 159 357h121q0 -83 -52 -196q-65 -133 -169 -224q221 -263 221 -657q0 -405 -233.5 -669.5t-603.5 -264.5q-372 0 -605 264.5t-233 669.5zM231 897q0 -333 193.5 -569.5t496.5 -236.5q304 0 496.5 236.5 t192.5 569.5t-192.5 571t-496.5 238q-303 0 -496.5 -237t-193.5 -572zM701 2360q84 152 261 152q102 0 166.5 -54.5t64.5 -156.5q0 -116 -105 -200.5t-105 -130.5h-119q4 98 108.5 175t104.5 156q0 54 -36 81.5t-97 27.5q-98 0 -171 -105z" />
<glyph unicode="&#x1a1;&#x309;" horiz-adv-x="1507" d="M105 640q0 285 178.5 480t471.5 195q253 0 435 -162q136 129 148 355h125q-7 -232 -212 -420q151 -191 151 -448q0 -285 -178.5 -481t-468.5 -196q-293 0 -471.5 197t-178.5 480zM250 640q0 -235 142.5 -394t362.5 -159t361.5 159t141.5 394t-142.5 392.5t-360.5 157.5 q-220 0 -362.5 -157.5t-142.5 -392.5zM534 1804q75 136 235 136q91 0 149.5 -49t58.5 -140q0 -105 -94.5 -181t-94.5 -117h-108q4 88 98 157t94 141q0 48 -32.5 73t-87.5 25q-88 0 -153 -95z" />
<glyph unicode="&#x1a0;&#x303;" horiz-adv-x="1840" d="M83 897q0 405 233 670.5t605 265.5q330 0 557 -216q159 170 159 357h121q0 -83 -52 -196q-65 -133 -169 -224q221 -263 221 -657q0 -405 -233.5 -669.5t-603.5 -264.5q-372 0 -605 264.5t-233 669.5zM231 897q0 -333 193.5 -569.5t496.5 -236.5q304 0 496.5 236.5 t192.5 569.5t-192.5 571t-496.5 238q-303 0 -496.5 -237t-193.5 -572zM577 1994q4 113 54.5 170.5t130.5 57.5q42 0 82 -19.5t79.5 -44.5t76.5 -43.5t76 -18.5q65 0 76 133h95q-8 -227 -189 -227q-37 0 -79.5 18.5t-82.5 43t-76 43.5t-62 19q-29 0 -56 -33.5t-31 -98.5h-94z " />
<glyph unicode="&#x1a1;&#x303;" horiz-adv-x="1507" d="M105 640q0 285 178.5 480t471.5 195q253 0 435 -162q136 129 148 355h125q-7 -232 -212 -420q151 -191 151 -448q0 -285 -178.5 -481t-468.5 -196q-293 0 -471.5 197t-178.5 480zM250 640q0 -235 142.5 -394t362.5 -159t361.5 159t141.5 394t-142.5 392.5t-360.5 157.5 q-220 0 -362.5 -157.5t-142.5 -392.5zM411 1478q4 113 54.5 170.5t130.5 57.5q42 0 82 -19.5t79.5 -44.5t76.5 -43.5t76 -18.5q65 0 76 133h95q-8 -227 -189 -227q-37 0 -79.5 18.5t-82.5 43t-76 43.5t-62 19q-29 0 -56 -33.5t-31 -98.5h-94z" />
<glyph unicode="&#x1a0;&#x323;" horiz-adv-x="1840" d="M83 897q0 405 233 670.5t605 265.5q330 0 557 -216q159 170 159 357h121q0 -83 -52 -196q-65 -133 -169 -224q221 -263 221 -657q0 -405 -233.5 -669.5t-603.5 -264.5q-372 0 -605 264.5t-233 669.5zM231 897q0 -333 193.5 -569.5t496.5 -236.5q304 0 496.5 236.5 t192.5 569.5t-192.5 571t-496.5 238q-303 0 -496.5 -237t-193.5 -572zM810 -292q0 37 32.5 72t76.5 35q50 0 80.5 -35t30.5 -72q0 -47 -30.5 -78t-80.5 -31q-46 0 -77.5 32t-31.5 77z" />
<glyph unicode="&#x1a1;&#x323;" horiz-adv-x="1507" d="M105 640q0 285 178.5 480t471.5 195q253 0 435 -162q136 129 148 355h125q-7 -232 -212 -420q151 -191 151 -448q0 -285 -178.5 -481t-468.5 -196q-293 0 -471.5 197t-178.5 480zM250 640q0 -235 142.5 -394t362.5 -159t361.5 159t141.5 394t-142.5 392.5t-360.5 157.5 q-220 0 -362.5 -157.5t-142.5 -392.5zM644 -292q0 37 32.5 72t76.5 35q50 0 80.5 -35t30.5 -72q0 -47 -30.5 -78t-80.5 -31q-46 0 -77.5 32t-31.5 77z" />
<glyph unicode="U&#x323;" horiz-adv-x="1764" d="M205 762v1042h147v-1038q0 -357 146 -516t384 -159q243 0 389 159t142 516v1038h148v-1042q0 -795 -679 -795q-678 0 -677 795zM773 -292q0 37 32.5 72t76.5 35q50 0 80.5 -35t30.5 -72q0 -47 -30.5 -78t-80.5 -31q-46 0 -77.5 32t-31.5 77z" />
<glyph unicode="u&#x323;" horiz-adv-x="1476" d="M196 564v724h148v-698q0 -496 350 -496q163 0 296 108q144 122 142 305v781h148v-974q0 -140 65 -310l-141 -30q-46 130 -61 250q-166 -257 -484 -257q-463 0 -463 597zM629 -292q0 37 32.5 72t76.5 35q50 0 80.5 -35t30.5 -72q0 -47 -30.5 -78t-80.5 -31q-46 0 -77.5 32 t-31.5 77z" />
<glyph unicode="U&#x309;" horiz-adv-x="1764" d="M205 762v1042h147v-1038q0 -357 146 -516t384 -159q243 0 389 159t142 516v1038h148v-1042q0 -795 -679 -795q-678 0 -677 795zM662 2360q84 152 261 152q102 0 166.5 -54.5t64.5 -156.5q0 -116 -105 -200.5t-105 -130.5h-119q4 98 108.5 175t104.5 156q0 54 -36 81.5 t-97 27.5q-98 0 -171 -105z" />
<glyph unicode="u&#x309;" horiz-adv-x="1476" d="M196 564v724h148v-698q0 -496 350 -496q163 0 296 108q144 122 142 305v781h148v-974q0 -140 65 -310l-141 -30q-46 130 -61 250q-166 -257 -484 -257q-463 0 -463 597zM518 1804q75 136 235 136q91 0 149.5 -49t58.5 -140q0 -105 -94.5 -181t-94.5 -117h-108 q4 88 98 157t94 141q0 48 -32.5 73t-87.5 25q-88 0 -153 -95z" />
<glyph unicode="&#x1af;&#x301;" horiz-adv-x="1764" d="M205 762v1042h147v-1038q0 -357 146 -516t384 -159q243 0 389 159t142 516v1038h148v-167q171 148 182 337h122q-33 -268 -304 -451v-761q0 -795 -679 -795q-678 0 -677 795zM785 1994l188 344l148 -37l-220 -307h-116z" />
<glyph unicode="&#x1b0;&#x301;" horiz-adv-x="1411" d="M196 564v724h148v-698q0 -496 350 -496q163 0 296 108q144 122 142 305v781h148v-156q152 144 167 376h122q-26 -311 -289 -481v-713q0 -140 65 -310l-141 -30q-46 130 -61 250q-166 -257 -484 -257q-463 0 -463 597zM607 1478l188 344l148 -37l-220 -307h-116z" />
<glyph unicode="&#x1af;&#x300;" horiz-adv-x="1764" d="M205 762v1042h147v-1038q0 -357 146 -516t384 -159q243 0 389 159t142 516v1038h148v-167q171 148 182 337h122q-33 -268 -304 -451v-761q0 -795 -679 -795q-678 0 -677 795zM683 2301l148 37l188 -344h-116z" />
<glyph unicode="&#x1b0;&#x300;" horiz-adv-x="1411" d="M196 564v724h148v-698q0 -496 350 -496q163 0 296 108q144 122 142 305v781h148v-156q152 144 167 376h122q-26 -311 -289 -481v-713q0 -140 65 -310l-141 -30q-46 130 -61 250q-166 -257 -484 -257q-463 0 -463 597zM485 1785l148 37l188 -344h-116z" />
<glyph unicode="&#x1af;&#x309;" horiz-adv-x="1764" d="M205 762v1042h147v-1038q0 -357 146 -516t384 -159q243 0 389 159t142 516v1038h148v-167q171 148 182 337h122q-33 -268 -304 -451v-761q0 -795 -679 -795q-678 0 -677 795zM640 2360q84 152 261 152q102 0 166.5 -54.5t64.5 -156.5q0 -116 -105 -200.5t-105 -130.5 h-119q4 98 108.5 175t104.5 156q0 54 -36 81.5t-97 27.5q-98 0 -171 -105z" />
<glyph unicode="&#x1b0;&#x309;" horiz-adv-x="1411" d="M196 564v724h148v-698q0 -496 350 -496q163 0 296 108q144 122 142 305v781h148v-156q152 144 167 376h122q-26 -311 -289 -481v-713q0 -140 65 -310l-141 -30q-46 130 -61 250q-166 -257 -484 -257q-463 0 -463 597zM523 1804q75 136 235 136q91 0 149.5 -49t58.5 -140 q0 -105 -94.5 -181t-94.5 -117h-108q4 88 98 157t94 141q0 48 -32.5 73t-87.5 25q-88 0 -153 -95z" />
<glyph unicode="&#x1af;&#x303;" horiz-adv-x="1764" d="M205 762v1042h147v-1038q0 -357 146 -516t384 -159q243 0 389 159t142 516v1038h148v-167q171 148 182 337h122q-33 -268 -304 -451v-761q0 -795 -679 -795q-678 0 -677 795zM557 1994q4 113 54.5 170.5t130.5 57.5q42 0 82 -19.5t79.5 -44.5t76.5 -43.5t76 -18.5 q65 0 76 133h95q-8 -227 -189 -227q-37 0 -79.5 18.5t-82.5 43t-76 43.5t-62 19q-29 0 -56 -33.5t-31 -98.5h-94z" />
<glyph unicode="&#x1b0;&#x303;" horiz-adv-x="1411" d="M196 564v724h148v-698q0 -496 350 -496q163 0 296 108q144 122 142 305v781h148v-156q152 144 167 376h122q-26 -311 -289 -481v-713q0 -140 65 -310l-141 -30q-46 130 -61 250q-166 -257 -484 -257q-463 0 -463 597zM418 1478q4 113 54.5 170.5t130.5 57.5 q42 0 82 -19.5t79.5 -44.5t76.5 -43.5t76 -18.5q65 0 76 133h95q-8 -227 -189 -227q-37 0 -79.5 18.5t-82.5 43t-76 43.5t-62 19q-29 0 -56 -33.5t-31 -98.5h-94z" />
<glyph unicode="&#x1af;&#x323;" horiz-adv-x="1764" d="M205 762v1042h147v-1038q0 -357 146 -516t384 -159q243 0 389 159t142 516v1038h148v-167q171 148 182 337h122q-33 -268 -304 -451v-761q0 -795 -679 -795q-678 0 -677 795zM773 -292q0 37 32.5 72t76.5 35q50 0 80.5 -35t30.5 -72q0 -47 -30.5 -78t-80.5 -31 q-46 0 -77.5 32t-31.5 77z" />
<glyph unicode="&#x1b0;&#x323;" horiz-adv-x="1411" d="M196 564v724h148v-698q0 -496 350 -496q163 0 296 108q144 122 142 305v781h148v-156q152 144 167 376h122q-26 -311 -289 -481v-713q0 -140 65 -310l-141 -30q-46 130 -61 250q-166 -257 -484 -257q-463 0 -463 597zM596 -292q0 37 32.5 72t76.5 35q50 0 80.5 -35 t30.5 -72q0 -47 -30.5 -78t-80.5 -31q-46 0 -77.5 32t-31.5 77z" />
<glyph unicode="Y&#x300;" horiz-adv-x="1385" d="M0 1804h170l524 -883l521 883h173l-622 -1008v-796h-144v792zM478 2301l148 37l188 -344h-116z" />
<glyph unicode="y&#x300;" horiz-adv-x="1276" d="M11 1288h159l481 -1092l452 1092h162l-568 -1288q-223 -503 -595 -590l-34 116q322 73 489 517q0 11 -11 44zM398 1785l148 37l188 -344h-116z" />
<glyph unicode="Y&#x323;" horiz-adv-x="1385" d="M0 1804h170l524 -883l521 883h173l-622 -1008v-796h-144v792zM585 -292q0 37 32.5 72t76.5 35q50 0 80.5 -35t30.5 -72q0 -47 -30.5 -78t-80.5 -31q-46 0 -77.5 32t-31.5 77z" />
<glyph unicode="y&#x323;" horiz-adv-x="1276" d="M11 1288h159l481 -1092l452 1092h162l-568 -1288q-223 -503 -595 -590l-34 116q322 73 489 517q0 11 -11 44zM788 -292q0 37 32.5 72t76.5 35q50 0 80.5 -35t30.5 -72q0 -47 -30.5 -78t-80.5 -31q-46 0 -77.5 32t-31.5 77z" />
<glyph unicode="Y&#x309;" horiz-adv-x="1385" d="M0 1804h170l524 -883l521 883h173l-622 -1008v-796h-144v792zM473 2360q84 152 261 152q102 0 166.5 -54.5t64.5 -156.5q0 -116 -105 -200.5t-105 -130.5h-119q4 98 108.5 175t104.5 156q0 54 -36 81.5t-97 27.5q-98 0 -171 -105z" />
<glyph unicode="y&#x309;" horiz-adv-x="1276" d="M11 1288h159l481 -1092l452 1092h162l-568 -1288q-223 -503 -595 -590l-34 116q322 73 489 517q0 11 -11 44zM416 1804q75 136 235 136q91 0 149.5 -49t58.5 -140q0 -105 -94.5 -181t-94.5 -117h-108q4 88 98 157t94 141q0 48 -32.5 73t-87.5 25q-88 0 -153 -95z" />
<glyph unicode="Y&#x303;" horiz-adv-x="1385" d="M0 1804h170l524 -883l521 883h173l-622 -1008v-796h-144v792zM350 1994q4 113 54.5 170.5t130.5 57.5q42 0 82 -19.5t79.5 -44.5t76.5 -43.5t76 -18.5q65 0 76 133h95q-8 -227 -189 -227q-37 0 -79.5 18.5t-82.5 43t-76 43.5t-62 19q-29 0 -56 -33.5t-31 -98.5h-94z" />
<glyph unicode="y&#x303;" horiz-adv-x="1276" d="M11 1288h159l481 -1092l452 1092h162l-568 -1288q-223 -503 -595 -590l-34 116q322 73 489 517q0 11 -11 44zM296 1478q4 113 54.5 170.5t130.5 57.5q42 0 82 -19.5t79.5 -44.5t76.5 -43.5t76 -18.5q65 0 76 133h95q-8 -227 -189 -227q-37 0 -79.5 18.5t-82.5 43 t-76 43.5t-62 19q-29 0 -56 -33.5t-31 -98.5h-94z" />
<glyph unicode="&#xe4f;&#x22;" horiz-adv-x="1677" d="M213 618q0 264 185 452t455 188q261 0 450.5 -189.5t189.5 -450.5q0 -268 -188 -454t-452 -186q-268 0 -454 185t-186 455zM344 618q0 -217 146 -365t363 -148q213 0 360 150t147 363t-148 360t-359 147q-213 0 -361 -147t-148 -360zM477 618q0 155 110 265t266 110 q155 0 265 -110t110 -265q0 -156 -110 -267.5t-265 -111.5q-156 0 -266 111.5t-110 267.5zM585 2069h177l-37 -611h-103zM610 618q0 -102 70.5 -172t172.5 -70t172 70t70 172q0 98 -70 170t-172 72t-172.5 -72t-70.5 -170zM914 2069h178l-38 -611h-103z" />
<glyph unicode="&#xe24;&#xe32;" horiz-adv-x="2177" d="M98 1030q30 210 197 347.5t384 137.5q242 0 391 -136t149 -374v-1763h-135v1748q0 192 -113.5 298.5t-300.5 106.5q-130 0 -246.5 -74t-162.5 -189q231 -18 300 -163q-87 -18 -155.5 -99.5t-68.5 -175.5v-246q61 26 114 26q106 0 180 -74t74 -180q0 -105 -74 -177.5 t-180 -72.5q-105 0 -177 71.5t-72 178.5v470q0 205 192 300q-102 42 -296 40zM329 216q0 -53 36 -89t90 -36t91 36t37 89q0 54 -38 91t-90 37q-54 0 -90 -38t-36 -90zM1073 1114q3 159 126 280t316 121q220 0 335.5 -105.5t115.5 -281.5v-1886h-137v1890q0 113 -85 188 t-233 75q-133 0 -211.5 -90t-86.5 -191h-140z" />
<glyph unicode="&#xe26;&#xe32;" horiz-adv-x="2351" d="M91 216q0 102 72 176t174 74q42 0 90 -18q-22 174 -22 264q0 174 152 272q-102 46 -200 46q-50 0 -72 -3q18 213 183 350.5t385 137.5q242 0 394 -137.5t152 -376.5v-1759h-137v1742q0 185 -116 298t-297 113q-129 0 -248.5 -74t-163.5 -189q201 -18 305 -166 q-206 -69 -204 -276q0 -148 34 -303q14 -69 14 -159q0 -110 -73 -184t-176 -74q-102 0 -174 71.5t-72 174.5zM213 216q0 -53 36 -89t88 -36q53 0 91 36t38 89q0 54 -38 91t-91 37q-54 0 -89 -38t-35 -90zM1247 1114q3 159 126 280t316 121q220 0 335.5 -105.5t115.5 -281.5 v-1886h-137v1890q0 113 -85 188t-233 75q-133 0 -211.5 -90t-86.5 -191h-140z" />
<glyph unicode="fi" horiz-adv-x="1313" d="M37 1171v117h191v64q0 269 134 430.5t393 161.5q181 0 322 -103l-65 -113q-144 91 -285 91q-351 0 -351 -467v-64h741v-1288h-148v1171h-593v-1171h-148v1171h-191z" />
<glyph unicode="fl" horiz-adv-x="1529" d="M37 1171v117h191v38q0 308 166.5 463t419.5 155q148 0 303 -76v-1163q0 -278 50 -402q76 -198 296 -201l-16 -128q-478 22 -478 674v1134q-75 37 -185 37q-116 0 -196.5 -40t-127.5 -104.5t-65.5 -151.5t-18.5 -178v-57h370v-117h-370v-1171h-148v1171h-191z" />
<glyph unicode="PSK&#x2e;Design&#x28;c&#x29;" horiz-adv-x="3613" d="M220 755v94h3066v-94h-3066zM250 462q0 160 187 160q140 0 153 -115h-98q-4 50 -65 50q-87 0 -87 -95q0 -94 84 -94q64 0 68 45h98q-11 -113 -163 -113q-177 0 -177 162zM272 1388v850h418q337 0 337 -271q0 -278 -379 -278h-156v-301h-220zM492 1861h144q167 0 167 109 q0 106 -167 106h-144v-215zM614 0l76 163h56l68 -163h-48l-15 33h-76l-16 -33h-45zM614 459q0 155 189 155q187 0 187 -155q0 -159 -194 -159q-182 0 -182 159zM686 65h56l-26 65zM701 459q0 -95 102 -95q94 0 94 91q0 98 -94 98q-102 0 -102 -94zM821 0v163h39v-130h84v-33 h-123zM955 0v163h38v-130h84v-33h-122zM969 1360q0 61 15 118h144q-3 -26 -3 -65q0 -299 375 -299q167 0 300 79q170 102 170 293q0 144 -198 220q-177 61 -359 120q-196 83 -198 242q0 257 198 394q174 117 452 119q189 0 300.5 -79.5t111.5 -224.5q0 -57 -18 -125h-137 q7 53 7 72q0 227 -249 227q-228 0 -362 -87t-134 -235q0 -98 67.5 -148t285.5 -112t305 -136t87 -196q0 -299 -220 -438q-174 -113 -446 -115q-231 0 -362.5 99t-131.5 277zM1030 314v300h156q133 -2 133 -103q0 -102 -144 -102h-65v-95h-80zM1110 470h57q65 -2 65 41 q0 37 -65 38h-57v-79zM1164 0v163h79q65 2 65 -41q0 -30 -32 -42q23 -8 39 -80h-50q0 15 -3 30q-11 33 -34 35h-24v-65h-40zM1204 98h24q30 0 30 15q0 18 -30 20h-24v-35zM1308 614h98l91 -129q11 15 83 129h87l-137 -198v-102h-87v106zM1334 0v163h33v-163h-33zM1391 80 q0 86 95 86q72 0 75 -61h-42q-4 26 -33 28q-50 0 -50 -50q0 -53 53 -53q19 0 30 3v28h-33v30h75v-80q-33 -15 -72 -15q-98 0 -98 84zM1584 0v163h42v-65h83v65h41v-163h-41v68h-83v-68h-42zM1706 314v300h170q129 0 128 -79q0 -50 -63 -73q57 -11 55 -72l15 -76h-83l-19 76 q-3 37 -65 37h-51v-113h-87zM1761 130v33h156v-33h-52v-130h-46v130h-58zM1793 477h55q69 0 69 43q0 29 -69 29h-55v-72zM2011 0v163h85q59 2 59 -41q0 -30 -29 -42q22 -8 37 -80h-45q0 15 -3 30q-12 33 -32 35h-26v-65h-46zM2046 314v300h94v-300h-94zM2057 98h26 q28 0 28 15q0 18 -28 20h-26v-35zM2176 0v163h124v-33h-84v-32h80v-30h-80v-35h87v-33h-127zM2183 462q0 156 185 156q152 0 163 -102h-98q-8 43 -69 41q-90 0 -90 -91q0 -98 101 -98l61 8v51h-72v50h167v-151q-69 -19 -156 -19q-192 0 -192 155zM2318 57h43q0 -26 29 -27 q26 0 28 16q0 4 -48 20.5t-48 46.5q0 53 68 53q69 0 69 -53h-41q0 22 -28 24q-26 0 -26 -20q0 -15 49 -26t49 -41q0 -54 -76 -54q-68 0 -68 61zM2414 1388v850h226v-362l311 362h266l-338 -377l364 -473h-292l-311 431v-431h-226zM2481 0v163h129v-33h-87v-32h80v-30h-80 v-35h87v-33h-129zM2581 314v300h90v-118h152v118h87v-300h-87v123h-152v-123h-90zM2621 0v163h80q57 0 57 -41q0 -30 -29 -42q22 -8 37 -80h-46q0 15 -4 30q-11 33 -30 35h-26v-65h-39zM2660 98h26q26 0 26 15q0 18 -26 20h-26v-35zM2755 163h44l46 -120l47 120h40l-64 -163 h-45zM2940 0v163h125v-33h-79v-32h76v-30h-76v-35h79v-33h-125zM2943 546v68h330v-68h-124v-232h-87v232h-119zM3084 0v163h76q90 0 90 -83q0 -80 -90 -80h-76zM3130 37h30q50 0 50 43q0 50 -50 50h-30v-93zM3141 2557q0 98 62 161t158 63q99 0 162.5 -63t63.5 -161 t-63.5 -158.5t-162.5 -60.5q-94 0 -157 60.5t-63 158.5zM3178 2553q0 -80 54 -132.5t129 -52.5q80 0 136.5 52.5t56.5 132.5t-56.5 135.5t-136.5 55.5q-75 0 -129 -55.5t-54 -135.5zM3239 2560q0 137 119 137q102 0 109 -90h-61q-11 37 -48 39q-50 0 -50 -82q0 -91 53 -91 q43 0 45 50h65q-19 -98 -113 -98q-117 0 -119 135z" />
<glyph unicode="&#xd;" />
<glyph unicode=" "  horiz-adv-x="817" />
<glyph unicode="&#x09;" horiz-adv-x="817" />
<glyph unicode="&#xa0;" horiz-adv-x="817" />
<glyph unicode="!" horiz-adv-x="556" d="M144 105q0 54 38 94t90 40q54 0 93.5 -40t39.5 -94q0 -53 -39.5 -90t-93.5 -37t-91 38t-37 89zM185 1800h179l-31 -1345h-120z" />
<glyph unicode="&#x22;" horiz-adv-x="786" d="M141 1891h177l-37 -611h-103zM470 1891h178l-38 -611h-103z" />
<glyph unicode="#" horiz-adv-x="1526" d="M130 520v113h231l98 481h-329v114h351l105 507h115l-105 -507h468l111 507h116l-105 -507h198v-114h-220l-100 -481h320v-113h-350l-105 -505h-111l111 505h-478l-111 -505h-109l109 505h-210zM470 633h477l98 481h-473z" />
<glyph unicode="$" horiz-adv-x="1367" d="M196 192l69 119q151 -130 379 -130q170 0 274.5 90t104.5 225q0 220 -333 361q-455 188 -455 469q0 163 110 277t295 140v288h130v-288q185 -11 347 -109l-68 -123q-130 110 -340 111q-167 0 -258 -96q-75 -76 -75 -181q0 -113 79.5 -187t275.5 -161q224 -98 318 -194 q118 -122 118 -300q0 -151 -103 -272q-117 -133 -322 -170v-281h-132v281q-242 0 -414 131z" />
<glyph unicode="%" horiz-adv-x="2216" d="M130 1265q0 539 405 539t405 -539q0 -538 -405 -538t-405 538zM265 1265q0 -416 270 -416q268 0 268 416q0 417 -268 417q-269 0 -270 -417zM488 -33l1099 1837h130l-1099 -1837h-130zM1273 527q0 539 405 537q405 2 405 -537q0 -538 -405 -538t-405 538zM1410 527 q0 -416 268 -418q270 2 270 418q0 417 -270 417q-268 0 -268 -417z" />
<glyph unicode="&#x26;" horiz-adv-x="1602" d="M72 485q0 360 383 549q-163 217 -163 387q0 181 121.5 314t324.5 133q167 0 273 -104.5t106 -266.5q0 -304 -462 -513q220 -242 570 -601q129 174 199 586h141q-91 -481 -253 -666q144 -144 318 -303h-191q-72 68 -211 202q-281 -235 -610 -235q-228 0 -387 149t-159 369 zM216 503q0 -185 125 -300.5t310 -115.5q283 0 489 205q-344 344 -609 648q-315 -167 -315 -437zM431 1436q0 -148 159 -356q394 189 394 402q0 109 -59 185q-72 87 -202 87q-133 0 -212.5 -94.5t-79.5 -223.5z" />
<glyph unicode="'" horiz-adv-x="453" d="M141 1891h173l-33 -611h-103z" />
<glyph unicode="(" horiz-adv-x="719" d="M76 886q0 614 416 1130h152q-424 -484 -424 -1130q0 -603 420 -1106h-144q-420 459 -420 1106z" />
<glyph unicode=")" horiz-adv-x="719" d="M76 -220q420 527 420 1117q0 600 -420 1119h144q420 -475 420 -1119q0 -629 -420 -1117h-144z" />
<glyph unicode="*" horiz-adv-x="1078" d="M68 1349v144l391 -26l-243 322l145 83l181 -349l178 349l144 -83l-242 -322l390 26v-144l-390 35l242 -328l-126 -79l-200 375l-198 -375l-124 79l243 328z" />
<glyph unicode="+" horiz-adv-x="1555" d="M144 625v126h568v601h133v-601h568v-126h-568v-625h-133v625h-568z" />
<glyph unicode="," horiz-adv-x="612" d="M113 -357q196 133 220 331q-61 0 -104.5 41.5t-43.5 97.5q0 57 41.5 100.5t99.5 43.5q61 0 100.5 -45.5t39.5 -109.5q-7 -206 -126 -359q-79 -109 -174 -156z" />
<glyph unicode="-" horiz-adv-x="817" d="M76 625v126h662v-126h-662z" />
<glyph unicode="." horiz-adv-x="612" d="M174 105q0 54 38 94t91 40q54 0 94 -40t40 -94q0 -53 -40 -90t-94 -37q-53 0 -91 38t-38 89z" />
<glyph unicode="/" horiz-adv-x="1021" d="M-68 -109l965 1977h156l-977 -1977h-144z" />
<glyph unicode="0" horiz-adv-x="1370" d="M117 860q0 383 133 648q155 307 436 307q282 0 435 -307q130 -265 130 -648q0 -314 -123 -571q-155 -330 -442 -332q-292 0 -447 332q-122 253 -122 571zM268 864q0 -272 93 -492q113 -285 325 -285q209 0 322 285q91 220 91 492q0 329 -94 557q-113 264 -319 264 q-209 0 -322 -264q-94 -224 -96 -557z" />
<glyph unicode="1" horiz-adv-x="1370" d="M285 1428l435 383q83 0 83 -144v-1530h285v-137h-720v137h283v1443l-283 -246z" />
<glyph unicode="2" horiz-adv-x="1370" d="M98 0q15 94 54 216q162 167 359.5 356.5t439.5 480.5q122 162 122 310t-95.5 228t-246.5 80q-341 0 -387 -341l-135 37q22 220 174 339q137 105 351 105q213 0 352 -130.5t139 -328.5q0 -288 -455 -723q-330 -326 -467 -481h966l-29 -148h-1142z" />
<glyph unicode="3" horiz-adv-x="1370" d="M130 98l62 118q141 -105 369 -107q220 0 375.5 148t155.5 346q0 148 -91 246t-231 98q-163 0 -254 -87l-72 120q144 110 287 224q216 182 216 285q0 185 -257 185q-285 0 -425 -283l-106 56q61 166 209 265t333 99q159 0 273 -85t114 -233q0 -174 -311 -409h22 q202 0 323 -134t121 -340q0 -288 -197 -465.5t-508 -187.5q-249 -7 -408 141z" />
<glyph unicode="4" horiz-adv-x="1370" d="M122 420q8 564 255.5 954.5t660.5 473.5v-1287h270l-20 -141h-250v-420h-152v420h-764zM285 561h601v1095q-261 -130 -431 -452q-163 -307 -170 -643z" />
<glyph unicode="5" horiz-adv-x="1370" d="M91 109l64 119q54 -34 113 -65q106 -50 263 -50q205 0 361.5 133t156.5 372q0 205 -135 307q-113 91 -296 91q-159 0 -254 -126l-79 -8l55 918h809l-28 -144h-636l-34 -535q98 37 211 39q220 0 376 -137q166 -152 166 -401q0 -293 -197 -472.5t-507 -179.5 q-261 0 -409 139z" />
<glyph unicode="6" horiz-adv-x="1370" d="M144 633q0 436 269.5 778.5t685.5 421.5l11 -109q-253 -72 -462 -270q-235 -220 -322 -522q14 58 111 121q122 75 279 75q224 0 363.5 -170t139.5 -409q0 -246 -137.5 -412.5t-376.5 -166.5q-268 0 -424 204q-137 181 -137 459zM296 549q0 -185 114 -318t276 -133 q182 0 282.5 133t100.5 318q0 189 -102.5 322.5t-280.5 133.5q-162 0 -276 -133.5t-114 -322.5z" />
<glyph unicode="7" horiz-adv-x="1370" d="M126 1656l55 144h1066l-32 -152q-253 -333 -406.5 -721.5t-153.5 -926.5h-159q0 572 227 1095q54 122 182.5 339.5t132.5 221.5h-912z" />
<glyph unicode="8" horiz-adv-x="1370" d="M126 485q0 185 107 320t274 168q-141 43 -233.5 151t-92.5 232q0 202 140.5 330.5t364.5 128.5q220 0 360 -128.5t140 -330.5q0 -126 -92.5 -233t-233.5 -150q167 -33 275 -168t108 -320q0 -243 -151.5 -379t-408.5 -136q-254 0 -405.5 136t-151.5 379zM278 474 q0 -171 114.5 -271.5t293.5 -100.5q174 0 290 100.5t116 271.5q0 148 -103 282t-306 145q-202 -11 -303.5 -145t-101.5 -282zM333 1367q0 -235 350 -322q351 87 351 322q0 133 -94.5 220t-253.5 87q-162 0 -257.5 -87t-95.5 -220z" />
<glyph unicode="9" horiz-adv-x="1370" d="M144 1240q0 246 138 412.5t377 166.5q268 0 425 -206q135 -179 135 -457q0 -436 -268 -779.5t-686 -422.5l-12 111q254 72 463 268q235 220 322 524q-15 -58 -109 -123q-122 -75 -281 -75q-224 0 -364 171t-140 410zM296 1240q0 -189 102 -322.5t281 -133.5 q163 0 276.5 133.5t113.5 322.5q0 184 -113.5 316.5t-276.5 132.5q-181 0 -282 -132.5t-101 -316.5z" />
<glyph unicode=":" horiz-adv-x="612" d="M174 105q0 54 38 94t91 40q54 0 94 -40t40 -94q0 -53 -40 -90t-94 -37q-53 0 -91 38t-38 89zM174 1073q0 54 38 92.5t91 38.5q54 0 94 -38.5t40 -92.5t-40 -91.5t-94 -37.5q-53 0 -91 37.5t-38 91.5z" />
<glyph unicode=";" horiz-adv-x="612" d="M113 -357q196 133 220 331q-61 0 -104.5 41.5t-43.5 97.5q0 57 41.5 100.5t99.5 43.5q61 0 100.5 -45.5t39.5 -109.5q-7 -206 -126 -359q-79 -109 -174 -156zM174 1073q0 54 38 92.5t91 38.5q54 0 94 -38.5t40 -92.5t-40 -91.5t-94 -37.5q-53 0 -91 37.5t-38 91.5z" />
<glyph unicode="&#x3c;" horiz-adv-x="1555" d="M166 659v103l1222 666v-140l-1070 -579l1070 -572v-144z" />
<glyph unicode="=" horiz-adv-x="1555" d="M209 387v124h1140v-124h-1140zM209 879v126h1140v-126h-1140z" />
<glyph unicode="&#x3e;" horiz-adv-x="1555" d="M166 -7v144l1070 575l-1070 576v140l1222 -666v-103z" />
<glyph unicode="?" horiz-adv-x="1071" d="M117 1713q181 117 386 117q217 0 331 -124q102 -109 102 -274q0 -202 -239 -455q-185 -196 -186 -391q1 -66 13 -120h-130q-18 58 -18 133q0 202 206 432.5t206 392.5q0 272 -311 274q-177 0 -303 -100zM322 105q0 54 38 94t91 40q54 0 93 -40t39 -94q0 -53 -40 -90 t-92 -37q-53 0 -91 38t-38 89z" />
<glyph unicode="@" horiz-adv-x="2029" d="M87 492q0 413 265 698q281 303 740 303q379 0 609 -235t230 -592q0 -257 -159 -438.5t-344 -194.5l-116 -7l-39 170q-152 -192 -402 -192q-46 0 -72 3q-122 19 -207 107t-85 200q0 424 758 424v20q0 322 -307 322q-166 0 -283 -90l-42 94q148 109 333 109q431 0 433 -481 v-405q0 -83 14 -155q148 7 269.5 155t121.5 348q0 314 -197 521.5t-534 207.5q-357 0 -592 -235q-250 -250 -250 -646q0 -325 208.5 -539t515.5 -214q260 0 444 113l51 -109q-227 -122 -506 -122q-358 0 -607.5 242.5t-249.5 617.5zM648 337q0 -228 231 -228q272 0 379 239 q7 16 7 50v231q-617 -7 -617 -292z" />
<glyph unicode="A" horiz-adv-x="1515" d="M0 0l683 1830h151l681 -1830h-163l-209 579h-775l-205 -579h-163zM413 705h686l-341 962z" />
<glyph unicode="B" horiz-adv-x="1431" d="M205 15v1763q182 48 363 48h15q655 0 657 -455q0 -137 -81.5 -248t-218.5 -161q137 -33 254.5 -153.5t117.5 -305.5q0 -525 -757 -525h-6q-166 0 -344 37zM352 122q101 -22 227 -24q242 0 398 87q190 105 190 315q0 201 -157 297.5t-396 96.5h-262v-772zM352 1016h307 q201 0 321 105q112 98 112 246q0 333 -509 335q-117 0 -231 -28v-658z" />
<glyph unicode="C" horiz-adv-x="1537" d="M87 905q0 405 244 665t613 260q292 0 492 -95l-45 -122q-205 87 -440 89q-292 0 -496 -216q-216 -228 -216 -585t216 -583q205 -216 496 -216q235 0 440 87l45 -121q-202 -94 -492 -94q-369 0 -613 263t-244 668z" />
<glyph unicode="D" horiz-adv-x="1631" d="M205 18v1760q334 44 521 44h16q344 0 562 -231q219 -242 219 -651q0 -955 -857 -955q-113 0 -461 33zM352 137q188 -22 360 -24q307 0 485 218t178 609q0 361 -189 564q-174 189 -455 189q-117 0 -379 -30v-1526z" />
<glyph unicode="E" horiz-adv-x="1328" d="M205 0v1804h981v-126h-834v-662h743v-126h-743v-764h834v-126h-981z" />
<glyph unicode="F" horiz-adv-x="1328" d="M205 0v1804h1020v-126h-873v-685h815v-125h-815v-868h-147z" />
<glyph unicode="G" horiz-adv-x="1609" d="M87 905q0 401 216 653q224 264 611 264q277 0 485 -90l-47 -122q-227 86 -447 88q-285 0 -475.5 -223.5t-190.5 -573.5q0 -372 164.5 -585.5t467.5 -213.5q239 0 437 94v585h-459v120h601v-864q-29 22 -79 24l-223 -40q-223 -39 -299 -39q-344 0 -553 251.5t-209 671.5z " />
<glyph unicode="H" horiz-adv-x="1670" d="M205 0v1804h147v-781h967v781h148v-1804h-148v897h-967v-897h-147z" />
<glyph unicode="I" horiz-adv-x="556" d="M205 0v1804h147v-1804h-147z" />
<glyph unicode="J" horiz-adv-x="999" d="M-4 22l37 119q87 -47 232 -47q196 0 289.5 116t93.5 419v1175h148v-1214q0 -623 -528 -623h-3q-148 0 -269 55z" />
<glyph unicode="K" horiz-adv-x="1424" d="M205 0v1804h147v-868l899 890l148 -41l-751 -751l830 -1001l-133 -51l-799 958l-194 -194v-746h-147z" />
<glyph unicode="L" horiz-adv-x="1335" d="M205 0v1804h147v-1678h888v-126h-1035z" />
<glyph unicode="M" horiz-adv-x="2075" d="M152 0l126 1804h173l587 -1619l588 1619h174l124 -1804h-139l-114 1591l-583 -1591h-98l-585 1591l-113 -1591h-140z" />
<glyph unicode="N" horiz-adv-x="1670" d="M205 0v1804h171l947 -1573v1573h144v-1804h-155l-955 1595v-1595h-152z" />
<glyph unicode="O" horiz-adv-x="1840" d="M83 897q0 405 233 670.5t605 265.5t604.5 -265.5t232.5 -670.5t-233.5 -669.5t-603.5 -264.5q-372 0 -605 264.5t-233 669.5zM231 897q0 -333 193.5 -569.5t496.5 -236.5q304 0 496.5 236.5t192.5 569.5t-192.5 571t-496.5 238q-303 0 -496.5 -237t-193.5 -572z" />
<glyph unicode="P" horiz-adv-x="1431" d="M205 0v1785q228 37 435 37q272 0 459 -124q209 -144 209 -394q0 -285 -228 -440q-192 -130 -481 -130h-13q-122 0 -234 24v-758h-147zM352 886q101 -26 266 -26q549 30 549 431q0 402 -531 402q-188 0 -284 -19v-788z" />
<glyph unicode="Q" horiz-adv-x="1844" d="M83 897q0 405 233 670.5t605 265.5t604.5 -265.5t232.5 -670.5q0 -325 -160 -571q-166 -258 -455 -330q224 -94 516 -109l-53 -140q-376 87 -685 216q-372 0 -605 264.5t-233 669.5zM231 897q0 -333 193.5 -569.5t496.5 -236.5q304 0 496.5 236.5t192.5 569.5t-192.5 571 t-496.5 238q-303 0 -496.5 -237t-193.5 -572z" />
<glyph unicode="R" horiz-adv-x="1435" d="M205 0v1782q203 40 422 40h21q292 -3 462 -113q196 -129 198 -371q0 -337 -350 -467q202 -109 304 -409q48 -155 94 -462h-144q-102 821 -511 821h-349v-821h-147zM352 940h338q224 0 350.5 100.5t126.5 278.5q0 374 -514 374h-5q-210 0 -296 -26v-727z" />
<glyph unicode="S" horiz-adv-x="1332" d="M102 102l61 129q185 -140 451 -140q213 0 334 100.5t121 267.5q0 151 -93.5 244t-309.5 161q-503 163 -503 507q0 201 155.5 333.5t404.5 132.5q254 0 413 -94q-33 -65 -63 -117q-163 87 -353 87q-213 0 -326 -111q-91 -91 -91 -211q0 -250 402 -386q261 -91 375 -198 q132 -124 132 -337q0 -205 -148 -340q-167 -163 -465 -163q-296 0 -497 135z" />
<glyph unicode="T" horiz-adv-x="1435" d="M-18 1678v126h1472v-126h-662v-1678h-144v1678h-666z" />
<glyph unicode="U" horiz-adv-x="1764" d="M205 762v1042h147v-1038q0 -357 146 -516t384 -159q243 0 389 159q142 155 142 497v19v1038h148v-1042q0 -795 -679 -795q-678 0 -677 795z" />
<glyph unicode="V" horiz-adv-x="1476" d="M0 1804h166l572 -1634l574 1634h166l-660 -1804h-159z" />
<glyph unicode="W" horiz-adv-x="2227" d="M0 1804h166l459 -1634l405 1634h167l405 -1634l459 1634h166l-545 -1804h-159l-409 1637l-409 -1637h-159z" />
<glyph unicode="X" horiz-adv-x="1583" d="M65 0l640 925l-614 879h177l524 -788l523 788h178l-614 -879l640 -925h-174l-553 814l-553 -814h-174z" />
<glyph unicode="Y" horiz-adv-x="1385" d="M0 1804h170l524 -883l521 883h173l-622 -1008v-796h-144v792z" />
<glyph unicode="Z" horiz-adv-x="1605" d="M83 0v98l1225 1580h-1149l22 126h1316v-102l-1219 -1576h1269l-32 -126h-1432z" />
<glyph unicode="[" horiz-adv-x="741" d="M196 -296v2213h505v-113h-372v-1985h372v-115h-505z" />
<glyph unicode="\" horiz-adv-x="991" d="M-33 1830h146l943 -1935h-151z" />
<glyph unicode="]" horiz-adv-x="741" d="M43 -181h370v1985h-370v113h506v-2213h-506v115z" />
<glyph unicode="^" horiz-adv-x="1559" d="M163 603l546 1216h136l546 -1216h-140l-474 1071l-474 -1071h-140z" />
<glyph unicode="_" horiz-adv-x="1332" d="M0 -575h1334v-119h-1334v119z" />
<glyph unicode="`" horiz-adv-x="771" d="M224 1785l148 37l189 -344h-117z" />
<glyph unicode="a" horiz-adv-x="1302" d="M98 322q0 481 838 481h22v22q0 126 -57 220q-87 152 -294 152q-133 0 -411 -87l-18 137q212 68 440 68q488 0 488 -538v-463q0 -159 47 -314l-134 -26l-53 207q-172 -214 -454 -214h-5q-167 0 -288 94t-121 261zM253 348q0 -126 76 -191.5t191 -65.5q300 0 420 253 q18 43 18 72v259q-705 0 -705 -327z" />
<glyph unicode="b" horiz-adv-x="1518" d="M185 0q11 98 11 314v1599h148v-871q167 272 490 273q269 0 424 -185.5t155 -470.5q0 -311 -162.5 -501.5t-440.5 -190.5q-303 0 -481 261q0 -130 -7 -228h-137zM344 516q0 -181 129.5 -303t318.5 -122q477 0 477 564q0 239 -121 390.5t-341 151.5q-182 0 -315 -124 q-148 -133 -148 -342v-215z" />
<glyph unicode="c" horiz-adv-x="1252" d="M102 640q0 307 182 491t500 184q235 0 398 -90l-54 -122q-140 90 -351 90q-231 0 -381 -148t-150 -405t150 -405t381 -148q211 0 351 91l54 -121q-163 -90 -398 -90q-318 0 -500 183t-182 490z" />
<glyph unicode="d" horiz-adv-x="1518" d="M105 659q0 285 155.5 470.5t425.5 185.5q322 0 489 -273v871h148v-1599q0 -216 11 -314h-137q-7 98 -7 228q-178 -261 -481 -261q-278 0 -441 190.5t-163 501.5zM250 655q0 -564 477 -564q189 0 318.5 122t129.5 303v215q0 209 -148 342q-131 124 -309 124h-6 q-220 0 -341 -151.5t-121 -390.5z" />
<glyph unicode="e" horiz-adv-x="1415" d="M102 610q0 319 182 512t462 193q542 0 553 -679h-1053q7 -257 153.5 -399.5t377.5 -142.5q228 0 451 87l12 -124q-221 -90 -478 -90q-296 0 -478 181t-182 462zM253 755h907q-4 155 -87 275q-113 167 -346 167q-209 0 -340 -152q-106 -122 -134 -290z" />
<glyph unicode="f" horiz-adv-x="778" d="M18 1171v117h221v50q0 606 458 606q145 0 217 -61l-43 -105q-81 41 -180 41h-5q-303 0 -303 -481v-50h372v-117h-372v-1171h-148v1171h-217z" />
<glyph unicode="g" horiz-adv-x="1176" d="M137 838q0 205 128.5 329t302.5 124h505v-120l-187 19q156 -152 156 -326q0 -213 -130.5 -338t-325.5 -125q-116 0 -199 43q-23 -57 -23 -111q0 -98 306 -185q364 -102 364 -372q0 -163 -117.5 -267.5t-344.5 -104.5q-202 0 -367 104l52 120q163 -94 326 -94 q140 0 231 64.5t91 166.5q0 181 -298 281q-181 58 -250 102q-117 72 -118 185q0 68 39 183q-141 152 -141 322zM268 842q0 -152 104 -243q94 -83 214 -83q137 0 232.5 87t95.5 242q0 126 -80 219q-90 113 -248 114q-151 0 -234.5 -100.5t-83.5 -235.5z" />
<glyph unicode="h" horiz-adv-x="1476" d="M196 0v1913h148v-857q156 258 433 259q503 -1 503 -584v-731h-148v731q0 462 -386 462q-156 0 -279 -130.5t-123 -281.5v-781h-148z" />
<glyph unicode="i" horiz-adv-x="540" d="M148 1678q0 54 32.5 88t84.5 34q53 0 87.5 -34t34.5 -88t-34.5 -85.5t-87.5 -31.5q-54 0 -85.5 32.5t-31.5 84.5zM196 0v1288h148v-1288h-148z" />
<glyph unicode="j" horiz-adv-x="586" d="M-159 -444q261 22 344 183q57 109 57 329v1220h148v-1262q-7 -575 -534 -587zM192 1678q0 54 32.5 88t86.5 34q53 0 86.5 -34t33.5 -88t-33.5 -85.5t-86.5 -31.5q-54 0 -86.5 32.5t-32.5 84.5z" />
<glyph unicode="k" horiz-adv-x="1196" d="M196 0v1913h148v-1204l640 599l152 -32l-553 -521l657 -751l-148 -41l-615 707l-133 -128v-542h-148z" />
<glyph unicode="l" horiz-adv-x="756" d="M196 648v1265h148v-1208q0 -278 50 -402q76 -198 296 -201l-15 -128q-477 22 -479 674z" />
<glyph unicode="m" horiz-adv-x="2275" d="M170 1288h141q26 -80 29 -232q148 258 433 259q261 0 391 -288q151 288 462 288q213 0 333 -161t120 -438v-716h-148v712q0 220 -88.5 350.5t-258.5 130.5q-148 0 -260 -115.5t-112 -259.5v-818h-148v781q0 412 -326 412q-152 0 -273 -130.5t-121 -281.5v-781h-148v969 q0 102 -26 319z" />
<glyph unicode="n" horiz-adv-x="1476" d="M170 1288h141q26 -80 29 -232q148 258 437 259q503 0 503 -584v-731h-148v731q0 462 -386 462q-156 0 -279 -130.5t-123 -281.5v-781h-148v969q0 102 -26 319z" />
<glyph unicode="o" horiz-adv-x="1507" d="M105 640q0 285 178.5 480t471.5 195q292 0 469.5 -195t177.5 -480t-178.5 -481t-468.5 -196q-293 0 -471.5 197t-178.5 480zM250 640q0 -235 142.5 -394t362.5 -159t361.5 159t141.5 394t-142.5 392.5t-360.5 157.5q-220 0 -362.5 -157.5t-142.5 -392.5z" />
<glyph unicode="p" horiz-adv-x="1518" d="M185 1280h137q7 -98 7 -227q178 261 481 262q278 0 440.5 -191.5t162.5 -501.5q0 -285 -151 -463q-159 -192 -428 -192q-322 0 -490 272v-872h-148v1599q0 220 -11 314zM344 549q0 -209 148 -340q133 -126 315 -126q220 0 349 156q117 148 117 386q0 265 -123 415 t-358 150q-189 0 -318.5 -121.5t-129.5 -302.5v-217z" />
<glyph unicode="q" horiz-adv-x="1518" d="M185 622q0 310 163 501.5t440 191.5q304 0 481 -262q0 129 7 227h137q-11 -94 -11 -314v-1599h-148v872q-166 -272 -488 -272q-268 0 -429 192q-152 178 -152 463zM326 625q0 -238 118 -386q130 -156 348 -156q181 0 314 126q148 131 148 340v217q0 181 -128.5 302.5 t-318.5 121.5q-235 0 -358 -150t-123 -415z" />
<glyph unicode="r" horiz-adv-x="821" d="M159 1288h126q41 -82 41 -250v-8q122 285 390 285q33 0 72 -7v-126q-11 4 -46 4q-292 0 -385 -365q-11 -42 -13 -127v-694h-148v868q0 285 -37 420z" />
<glyph unicode="s" horiz-adv-x="1067" d="M109 68l57 121q182 -98 319 -98q318 0 318 238q0 185 -300 278q-344 105 -344 348q0 148 112 254t312 106q201 0 318 -87l-59 -122q-113 91 -285 91q-122 0 -189.5 -64t-67.5 -160q0 -152 296 -253q344 -119 344 -380q0 -162 -123 -267.5t-343 -105.5q-189 0 -365 101z " />
<glyph unicode="t" horiz-adv-x="900" d="M22 1171v117h259v383l146 68v-451h415v-117h-415v-788q0 -289 195 -289q116 0 174 23l14 -117q-76 -33 -200 -33q-166 0 -253 127q-76 113 -76 285v792h-259z" />
<glyph unicode="u" horiz-adv-x="1476" d="M196 564v724h148v-698q0 -496 350 -496q163 0 296 108q142 120 142 300v5v781h148v-974q0 -140 65 -310l-141 -30q-46 130 -61 250q-166 -257 -484 -257q-463 0 -463 597z" />
<glyph unicode="v" horiz-adv-x="1291" d="M11 1288h152l477 -1129l488 1129h152l-579 -1288h-133z" />
<glyph unicode="w" horiz-adv-x="1920" d="M11 1288h155l341 -1114l387 1114h140l365 -1114l373 1114h148l-462 -1288h-128l-372 1136l-390 -1136h-137z" />
<glyph unicode="x" horiz-adv-x="1204" d="M0 0l524 655l-491 633h169l408 -522l406 522h162l-492 -629l518 -659h-174l-431 557l-429 -557h-170z" />
<glyph unicode="y" horiz-adv-x="1276" d="M11 1288h159l481 -1092l452 1092h162l-568 -1288q-223 -503 -595 -590l-34 116q322 73 489 517q0 11 -11 44z" />
<glyph unicode="z" horiz-adv-x="1215" d="M57 0v91l909 1076h-864l24 121h1027l-4 -102l-907 -1064h929l-31 -122h-1083z" />
<glyph unicode="{" horiz-adv-x="786" d="M50 712v113q235 7 235 198q0 76 -27 226t-27 222q0 361 409 359h43v-113h-58q-261 0 -261 -263q54 -383 52 -420q0 -192 -151 -264q151 -73 151 -267q0 -37 -52 -420q0 -261 261 -261h58v-114h-43q-409 0 -409 360q0 73 27 222.5t27 225.5q0 189 -235 196z" />
<glyph unicode="|" horiz-adv-x="579" d="M228 -659v2659h124v-2659h-124z" />
<glyph unicode="}" horiz-adv-x="786" d="M105 -178h58q261 0 261 261q-54 383 -52 420q0 193 152 267q-152 72 -152 264q0 37 52 420q0 261 -261 263h-58v113h43q409 0 409 -359q0 -72 -27 -222t-27 -226q0 -189 235 -198v-113q-235 -7 -235 -196q0 -76 27 -225.5t27 -222.5q0 -360 -409 -360h-43v114z" />
<glyph unicode="~" horiz-adv-x="1574" d="M98 572v31q0 159 90 250t213 91q145 0 396.5 -119.5t388.5 -119.5q163 0 170 239h118v-23q0 -174 -96 -270q-79 -79 -200 -79q-148 0 -395.5 123t-381.5 123q-177 0 -185 -246h-118z" />
<glyph unicode="&#xa1;" horiz-adv-x="571" d="M144 1153q0 57 42 97.5t99 40.5t98 -40.5t41 -97.5q0 -58 -42 -99.5t-97 -41.5q-57 0 -99 41.5t-42 99.5zM178 -531l38 1319h132l39 -1319h-209z" />
<glyph unicode="&#xa2;" horiz-adv-x="1555" d="M122 901q0 314 167 523q181 228 503 285v345h126v-330q26 4 79 4q228 0 424 -72l-30 -137q-170 87 -386 87q-348 0 -542.5 -183t-194.5 -529q0 -326 180 -496q188 -182 532 -182q239 0 408 76l44 -111q-181 -98 -496 -98h-18v-307h-126v315q-289 42 -470 231 q-202 209 -200 579z" />
<glyph unicode="&#xa3;" horiz-adv-x="1555" d="M216 0v94q322 196 322 505q0 87 -18 219h-300v118h287q-30 181 -30 307q0 503 485 503q155 0 314 -75l-44 -110q-152 61 -277 61q-345 0 -345 -382q0 -141 34 -304h429v-118h-414q14 -87 16 -193q0 -318 -205 -499h868v-126h-1122z" />
<glyph unicode="&#xa4;" horiz-adv-x="1555" d="M83 278l148 153q-148 181 -148 422q0 242 148 431l-148 152l109 118l152 -159q196 155 429 155q243 0 431 -155l163 159l107 -118l-151 -152q144 -167 144 -431q0 -250 -144 -422l151 -153l-111 -115l-159 159q-174 -159 -431 -159q-246 0 -429 159l-152 -159zM231 853 q0 -231 161 -392t381 -161q228 0 385 164.5t157 388.5q0 227 -157 395.5t-385 168.5q-220 0 -381 -166.5t-161 -397.5z" />
<glyph unicode="&#xa5;" horiz-adv-x="1555" d="M130 1739h173l474 -799l474 799h177l-579 -940h459v-113h-459v-216h459v-109h-459v-289h-140v289h-456v109h456v216h-456v110h456z" />
<glyph unicode="&#xa6;" horiz-adv-x="579" d="M228 -466v943h124v-943h-124zM228 860v940h124v-940h-124z" />
<glyph unicode="&#xa7;" horiz-adv-x="1415" d="M209 944q0 166 170 303q-87 87 -87 203q0 163 127 264t327 101q201 0 368 -98l-65 -111q-133 98 -322 100q-129 0 -214.5 -67t-85.5 -165q0 -101 111 -170q72 -46 269 -114q401 -137 401 -391q0 -174 -159 -325q91 -91 91 -228q0 -181 -136 -287.5t-342 -106.5 q-238 0 -390 126l61 105q126 -116 337 -116q155 0 248.5 71t93.5 190q0 162 -209 257q-193 76 -387 155q-209 106 -207 304zM337 951q0 -106 133 -185q79 -50 272 -118q177 -65 227 -102q100 118 100 235q0 76 -79.5 153.5t-208.5 121.5q-228 76 -315 130 q-129 -109 -129 -235z" />
<glyph unicode="&#xa8;" horiz-adv-x="802" d="M54 1598q0 50 31.5 84.5t80.5 34.5q50 0 84.5 -34.5t34.5 -84.5t-34.5 -81t-84.5 -31q-49 0 -80.5 32t-31.5 80zM524 1598q0 50 31 84.5t81 34.5t84.5 -34.5t34.5 -84.5t-34.5 -81t-84.5 -31t-81 32t-31 80z" />
<glyph unicode="&#xa9;" horiz-adv-x="2029" d="M94 910q0 379 271 649.5t651 270.5q379 0 650 -270.5t271 -649.5t-271 -650t-650 -271q-380 0 -651 271t-271 650zM231 910q0 -325 229.5 -554.5t555.5 -229.5q325 0 554.5 229.5t229.5 554.5q0 326 -229.5 554.5t-554.5 228.5q-326 0 -555.5 -228.5t-229.5 -554.5z M462 882q0 265 155.5 418.5t405.5 153.5q239 0 361 -91l-46 -112q-145 83 -315 83q-409 -22 -409 -433q0 -413 413 -435q192 0 325 95l50 -117q-144 -109 -397 -111q-247 0 -395 159t-148 390z" />
<glyph unicode="&#xaa;" horiz-adv-x="930" d="M91 1182q0 296 568 304v25q0 54 -30 102q-61 87 -192 89q-130 0 -235 -80l-43 95q141 98 303 98q330 0 330 -405v-254q0 -111 11 -220h-117l-20 124q-105 -137 -283 -135q-292 0 -292 257zM224 1182q0 -144 181 -144q72 0 163 54.5t91 126.5v159q-437 0 -435 -196z" />
<glyph unicode="&#xab;" horiz-adv-x="1128" d="M43 670l416 501h159l-416 -501l420 -489h-160zM462 670l417 501h159l-416 -501l420 -489h-160z" />
<glyph unicode="&#xac;" horiz-adv-x="1591" d="M87 905v125h1380v-686h-148v561h-1232z" />
<glyph unicode="&#xad;" horiz-adv-x="817" d="M76 625v126h662v-126h-662z" />
<glyph unicode="&#xae;" horiz-adv-x="2029" d="M94 910q0 379 271 649.5t651 270.5q379 0 650 -270.5t271 -649.5t-271 -650t-650 -271q-380 0 -651 271t-271 650zM231 910q0 -325 229.5 -554.5t555.5 -229.5q325 0 554.5 229.5t229.5 554.5q0 326 -229.5 554.5t-554.5 228.5q-326 0 -555.5 -228.5t-229.5 -554.5z M662 352v1102q137 26 315 32q201 0 313 -85.5t112 -233.5q0 -196 -155 -281q146 -133 192 -534h-148q-68 480 -246 482h-231v-482h-152zM814 973h205q106 0 170.5 46.5t64.5 129.5q0 205 -261 203q-101 0 -179 -11v-368z" />
<glyph unicode="&#xaf;" horiz-adv-x="1332" d="M0 2000v118h1334v-118h-1334z" />
<glyph unicode="&#xb0;" horiz-adv-x="802" d="M76 1504q0 133 94.5 229.5t227.5 96.5t229 -96.5t96 -229.5t-96 -227.5t-229 -94.5t-227.5 94.5t-94.5 227.5zM189 1504q0 -87 61 -150t148 -63t149.5 63t62.5 150t-62.5 151.5t-149.5 64.5t-148 -64.5t-61 -151.5z" />
<glyph unicode="&#xb1;" horiz-adv-x="1555" d="M144 0v122h1269v-122h-1269zM144 762v120h568v470h133v-470h568v-120h-568v-505h-133v505h-568z" />
<glyph unicode="&#xb2;" horiz-adv-x="962" d="M94 742q8 155 263 398q102 94 198 196.5t96 206.5q0 163 -163 163q-181 0 -199 -209l-130 22q15 144 102 223.5t216 79.5q133 0 218.5 -75.5t85.5 -203.5q0 -155 -206 -368q-151 -159 -307 -315h528l-15 -118h-687z" />
<glyph unicode="&#xb3;" horiz-adv-x="962" d="M133 818l56 122q87 -72 201 -72q141 0 220.5 72t79.5 185q0 166 -159 166q-105 0 -167 -51l-53 94q189 133 213 152q86 72 86 140q0 76 -125 76q-156 0 -220 -168l-110 57q102 235 341 235q238 0 238 -196q0 -69 -52.5 -141t-117.5 -98q250 -16 250 -263 q0 -173 -114 -277.5t-299 -108.5q-166 -4 -268 76z" />
<glyph unicode="&#xb4;" horiz-adv-x="802" d="M205 2000l189 346h189l-261 -346h-117z" />
<glyph unicode="&#xb5;" horiz-adv-x="1537" d="M216 -531v1819h145v-735q0 -459 385 -459q166 0 303 127t137 282v785h144v-974q0 -234 26 -314h-141q-18 105 -18 196v43q-217 -272 -485 -272q-220 0 -351 192v-690h-145z" />
<glyph unicode="&#xb6;" horiz-adv-x="1415" d="M170 1215q0 583 751 585q202 0 294 -18v-2021h-127v1917h-183v-1917h-132v922h-15q-227 0 -394 131q-192 152 -194 401z" />
<glyph unicode="&#xb7;" horiz-adv-x="612" d="M174 686q0 54 38 93t91 39q54 0 94 -39t40 -93q0 -53 -40 -91t-94 -38q-53 0 -91 38t-38 91z" />
<glyph unicode="&#xb8;" horiz-adv-x="802" d="M133 -477l37 83q80 -37 148 -37q144 0 144 105q0 95 -238 113l148 228h120l-102 -145q189 -44 189 -177q0 -220 -265 -220q-90 0 -181 50z" />
<glyph unicode="&#xb9;" horiz-adv-x="962" d="M224 1595l268 238q80 -7 80 -105v-875h162v-91h-462v91h168v777l-144 -126z" />
<glyph unicode="&#xba;" horiz-adv-x="1078" d="M76 1363q0 185 136 326t326 141q185 0 326 -141t141 -326q0 -188 -141 -325t-326 -137q-188 0 -325 137t-137 325zM209 1363q0 -136 96 -232.5t233 -96.5t235 96.5t98 232.5q0 137 -98 236t-235 99t-233 -99t-96 -236z" />
<glyph unicode="&#xbb;" horiz-adv-x="1113" d="M72 181l420 489l-416 501h159l416 -501l-420 -489h-159zM492 181l422 489l-418 501h159l418 -501l-422 -489h-159z" />
<glyph unicode="&#xbc;" horiz-adv-x="2029" d="M113 1523l270 238q79 -7 79 -105v-860h163v-91h-462v91h166v762l-144 -126zM427 -33l1077 1802h126l-1077 -1802h-126zM1178 235q4 253 145 520q166 322 412 329v-723h167l-8 -126h-159v-235h-133v235h-424zM1319 361h283v560q-105 -90 -192 -273q-84 -167 -91 -287z" />
<glyph unicode="&#xbd;" horiz-adv-x="2029" d="M113 1523l270 238q79 -7 79 -105v-860h163v-91h-462v91h166v762l-144 -126zM427 -33l1077 1802h126l-1077 -1802h-126zM1232 0q8 155 261 398q102 94 199 196.5t97 204.5q0 163 -163 163q-181 0 -202 -207l-129 22q15 144 103 223.5t215 79.5q137 0 222 -74t85 -207 q0 -155 -203 -368q-156 -159 -296 -314h510l-14 -117h-685z" />
<glyph unicode="&#xbe;" horiz-adv-x="2029" d="M133 773l56 121q87 -73 201 -73q141 0 220.5 72.5t79.5 186.5q0 167 -159 167q-105 0 -167 -54l-53 95q189 133 213 151q86 72 86 141q0 76 -125 76q-171 0 -220 -167l-110 58q102 235 341 235q238 0 238 -198q0 -69 -52.5 -141t-117.5 -98q250 -37 250 -261 q0 -174 -114 -278.5t-299 -108.5q-166 -3 -268 76zM427 -33l1077 1802h126l-1077 -1802h-126zM1178 235q4 253 145 520q166 322 412 329v-723h167l-8 -126h-159v-235h-133v235h-424zM1319 361h283v560q-105 -90 -192 -273q-84 -167 -91 -287z" />
<glyph unicode="&#xbf;" horiz-adv-x="1093" d="M130 -181q0 201 238 453q185 196 185 390q0 69 -11 122h128q18 -57 20 -133q0 -201 -206 -431.5t-206 -393.5q0 -272 308 -274q178 0 304 100l57 -114q-181 -117 -386 -117q-217 0 -330 124q-101 109 -101 274zM470 1153q0 57 41.5 97.5t98.5 40.5q58 0 99.5 -40.5 t41.5 -97.5q0 -58 -42.5 -99.5t-98.5 -41.5q-57 0 -98.5 41.5t-41.5 99.5z" />
<glyph unicode="&#xc2;" horiz-adv-x="1515" d="M0 0l683 1830h151l681 -1830h-163l-209 579h-775l-205 -579h-163zM413 705h686l-341 962zM444 2002l261 296h107l261 -296h-141l-174 196l-173 -196h-141z" />
<glyph unicode="&#xc4;" horiz-adv-x="1515" d="M0 0l683 1830h151l681 -1830h-163l-209 579h-775l-205 -579h-163zM406 2114q0 50 31.5 84.5t80.5 34.5q50 0 84.5 -34.5t34.5 -84.5t-34.5 -81t-84.5 -31q-49 0 -80.5 32t-31.5 80zM413 705h686l-341 962zM876 2114q0 50 31 84.5t81 34.5t84.5 -34.5t34.5 -84.5 t-34.5 -81t-84.5 -31t-81 32t-31 80z" />
<glyph unicode="&#xc5;" horiz-adv-x="1515" d="M0 0l683 1830h151l681 -1830h-163l-209 579h-775l-205 -579h-163zM413 705h686l-341 962zM481 2183q0 116 81.5 200.5t190.5 84.5q117 0 199 -84.5t82 -200.5q0 -109 -81 -190.5t-200 -81.5q-109 0 -190.5 81.5t-81.5 190.5zM598 2179q0 -65 45.5 -110t113.5 -45 q72 0 119 45t47 110q0 72 -47 119.5t-119 47.5q-68 0 -113.5 -47.5t-45.5 -119.5z" />
<glyph unicode="&#xc6;" horiz-adv-x="2203" d="M-26 0l966 1804h1076v-126h-863l90 -666h731v-126h-712l113 -760h686v-126h-810l-108 742h-619l-394 -742h-156zM583 864h542l-102 834z" />
<glyph unicode="&#xc7;" horiz-adv-x="1537" d="M87 905q0 405 244 665t613 260q292 0 492 -95l-45 -122q-205 87 -440 89q-292 0 -496 -216q-216 -228 -216 -585t216 -583q205 -216 496 -216q235 0 440 87l45 -121q-202 -94 -492 -94q-369 0 -613 263t-244 668zM546 -477l37 83q80 -37 148 -37q144 0 144 105 q0 95 -238 113l148 228h120l-102 -145q189 -44 189 -177q0 -220 -265 -220q-90 0 -181 50z" />
<glyph unicode="&#xca;" horiz-adv-x="1328" d="M205 0v1804h981v-126h-834v-662h743v-126h-743v-764h834v-126h-981zM348 2002l261 296h107l261 -296h-141l-174 196l-173 -196h-141z" />
<glyph unicode="&#xcb;" horiz-adv-x="1328" d="M205 0v1804h981v-126h-834v-662h743v-126h-743v-764h834v-126h-981zM315 2114q0 50 31.5 84.5t80.5 34.5q50 0 84.5 -34.5t34.5 -84.5t-34.5 -81t-84.5 -31q-49 0 -80.5 32t-31.5 80zM785 2114q0 50 31 84.5t81 34.5t84.5 -34.5t34.5 -84.5t-34.5 -81t-84.5 -31t-81 32 t-31 80z" />
<glyph unicode="&#xce;" horiz-adv-x="556" d="M19 2002l261 296h107l261 -296h-141l-174 196l-173 -196h-141zM205 0v1804h147v-1804h-147z" />
<glyph unicode="&#xcf;" horiz-adv-x="556" d="M-18 2114q0 50 31.5 84.5t80.5 34.5q50 0 84.5 -34.5t34.5 -84.5t-34.5 -81t-84.5 -31q-49 0 -80.5 32t-31.5 80zM205 0v1804h147v-1804h-147zM452 2114q0 50 31 84.5t81 34.5t84.5 -34.5t34.5 -84.5t-34.5 -81t-84.5 -31t-81 32t-31 80z" />
<glyph unicode="&#xd0;" horiz-adv-x="1631" d="M18 807v125h187v846q348 46 537 44q344 0 562 -231q219 -242 219 -651q0 -955 -857 -955q-113 0 -461 33v789h-187zM352 137q188 -22 360 -24q307 0 485 218t178 609q0 361 -189 564q-174 189 -455 189q-117 0 -379 -30v-731h638v-125h-638v-670z" />
<glyph unicode="&#xd1;" horiz-adv-x="1670" d="M205 0v1804h171l947 -1573v1573h144v-1804h-155l-955 1595v-1595h-152zM494 1994q4 113 54.5 170.5t130.5 57.5q42 0 82 -19.5t79.5 -44.5t76.5 -43.5t76 -18.5q65 0 76 133h95q-8 -227 -189 -227q-37 0 -79.5 18.5t-82.5 43t-76 43.5t-62 19q-29 0 -56 -33.5t-31 -98.5 h-94z" />
<glyph unicode="&#xd4;" horiz-adv-x="1840" d="M83 897q0 405 233 670.5t605 265.5t604.5 -265.5t232.5 -670.5t-233.5 -669.5t-603.5 -264.5q-372 0 -605 264.5t-233 669.5zM231 897q0 -333 193.5 -569.5t496.5 -236.5q304 0 496.5 236.5t192.5 569.5t-192.5 571t-496.5 238q-303 0 -496.5 -237t-193.5 -572zM607 2002 l261 296h107l261 -296h-141l-174 196l-173 -196h-141z" />
<glyph unicode="&#xd6;" horiz-adv-x="1840" d="M83 897q0 405 233 670.5t605 265.5t604.5 -265.5t232.5 -670.5t-233.5 -669.5t-603.5 -264.5q-372 0 -605 264.5t-233 669.5zM231 897q0 -333 193.5 -569.5t496.5 -236.5q304 0 496.5 236.5t192.5 569.5t-192.5 571t-496.5 238q-303 0 -496.5 -237t-193.5 -572zM570 2114 q0 50 31.5 84.5t80.5 34.5q50 0 84.5 -34.5t34.5 -84.5t-34.5 -81t-84.5 -31q-49 0 -80.5 32t-31.5 80zM1040 2114q0 50 31 84.5t81 34.5t84.5 -34.5t34.5 -84.5t-34.5 -81t-84.5 -31t-81 32t-31 80z" />
<glyph unicode="&#xd7;" horiz-adv-x="1555" d="M178 133l501 526l-501 527l100 90l499 -521l499 521l99 -90l-500 -527l500 -526l-99 -90l-499 521l-499 -521z" />
<glyph unicode="&#xd8;" horiz-adv-x="1840" d="M83 897q0 405 233 670.5t605 265.5q193 0 352 -75l53 110h156l-91 -179q72 -54 132 -120q235 -267 235 -672t-233.5 -669.5t-603.5 -264.5q-192 0 -349 67l-69 -139h-142l98 203q-76 58 -145 134q-231 264 -231 669zM231 897q0 -333 193 -571q46 -58 100 -98l688 1409 q-133 69 -291 69q-303 0 -496.5 -237t-193.5 -572zM633 155q129 -64 288 -64q304 0 496.5 236.5t192.5 569.5t-193 570q-42 54 -91 91z" />
<glyph unicode="&#xdb;" horiz-adv-x="1764" d="M205 762v1042h147v-1038q0 -357 146 -516t384 -159q243 0 389 159t142 516v1038h148v-1042q0 -795 -679 -795q-678 0 -677 795zM568 2002l261 296h107l261 -296h-141l-174 196l-173 -196h-141z" />
<glyph unicode="&#xdc;" horiz-adv-x="1764" d="M205 762v1042h147v-1038q0 -357 146 -516t384 -159q243 0 389 159t142 516v1038h148v-1042q0 -795 -679 -795q-678 0 -677 795zM531 2114q0 50 31.5 84.5t80.5 34.5q50 0 84.5 -34.5t34.5 -84.5t-34.5 -81t-84.5 -31q-49 0 -80.5 32t-31.5 80zM1001 2114q0 50 31 84.5 t81 34.5t84.5 -34.5t34.5 -84.5t-34.5 -81t-84.5 -31t-81 32t-31 80z" />
<glyph unicode="&#xde;" horiz-adv-x="1439" d="M228 0v1804h144v-357q159 42 311 42q253 0 438 -122q209 -139 209 -374q0 -284 -191.5 -430.5t-520.5 -146.5q-94 0 -246 32v-448h-144zM372 579q137 -43 253 -41q272 0 418.5 115t146.5 320q0 202 -156 307q-133 87 -351 87q-141 0 -311 -52v-736z" />
<glyph unicode="&#xdf;" horiz-adv-x="1483" d="M155 -524q73 148 73 319v1358q0 693 553 691q188 0 316 -119t128 -319q0 -152 -126 -254.5t-126 -189.5q0 -65 126 -174t152 -148q98 -131 98 -253q0 -185 -113 -300q-126 -122 -346 -120q-185 0 -322 76l46 123q144 -75 280 -75q151 0 234.5 77.5t83.5 195.5 q0 130 -193.5 298.5t-193.5 310.5q0 102 129.5 226t129.5 200q0 310 -329 310q-379 0 -379 -621v-1293q0 -206 -84 -356z" />
<glyph unicode="&#xe2;" horiz-adv-x="1302" d="M98 322q0 481 838 481h22v22q0 126 -57 220q-87 152 -294 152q-133 0 -411 -87l-18 137q212 68 440 68q488 0 488 -538v-463q0 -159 47 -314l-134 -26l-53 207q-174 -216 -459 -214q-167 0 -288 94t-121 261zM253 348q0 -126 76 -191.5t191 -65.5q300 0 420 253 q18 43 18 72v259q-705 0 -705 -327zM337 1486l261 296h107l261 -296h-141l-174 196l-173 -196h-141z" />
<glyph unicode="&#xe4;" horiz-adv-x="1302" d="M98 322q0 481 838 481h22v22q0 126 -57 220q-87 152 -294 152q-133 0 -411 -87l-18 137q212 68 440 68q488 0 488 -538v-463q0 -159 47 -314l-134 -26l-53 207q-174 -216 -459 -214q-167 0 -288 94t-121 261zM253 348q0 -126 76 -191.5t191 -65.5q300 0 420 253 q18 43 18 72v259q-705 0 -705 -327zM300 1598q0 50 31.5 84.5t80.5 34.5q50 0 84.5 -34.5t34.5 -84.5t-34.5 -81t-84.5 -31q-49 0 -80.5 32t-31.5 80zM770 1598q0 50 31 84.5t81 34.5t84.5 -34.5t34.5 -84.5t-34.5 -81t-84.5 -31t-81 32t-31 80z" />
<glyph unicode="&#xe5;" horiz-adv-x="1302" d="M98 322q0 481 838 481h22v22q0 126 -57 220q-87 152 -294 152q-133 0 -411 -87l-18 137q212 68 440 68q488 0 488 -538v-463q0 -159 47 -314l-134 -26l-53 207q-174 -216 -459 -214q-167 0 -288 94t-121 261zM253 348q0 -126 76 -191.5t191 -65.5q300 0 420 253 q18 43 18 72v259q-705 0 -705 -327zM375 1667q0 116 81.5 200.5t190.5 84.5q117 0 199 -84.5t82 -200.5q0 -109 -81 -190.5t-200 -81.5q-109 0 -190.5 81.5t-81.5 190.5zM492 1663q0 -65 45.5 -110t113.5 -45q72 0 119 45t47 110q0 72 -47 119.5t-119 47.5 q-68 0 -113.5 -47.5t-45.5 -119.5z" />
<glyph unicode="&#xe6;" horiz-adv-x="2303" d="M98 322q0 481 838 481h22v22q0 126 -57 220q-87 152 -294 152q-133 0 -411 -87l-18 137q212 68 440 68q348 0 451 -288q182 288 533 288q542 0 553 -679h-1052q7 -257 153 -399.5t378 -142.5q225 0 449 87l13 -124q-220 -90 -479 -90q-390 0 -575 329 q-106 -329 -535 -329q-167 0 -288 94t-121 261zM253 348q0 -126 76 -191.5t191 -65.5q166 0 283 87q155 118 155 364v133q-705 0 -705 -327zM1110 755h906q-3 155 -88 275q-113 167 -344 167q-209 0 -341 -152q-107 -120 -133 -290z" />
<glyph unicode="&#xe7;" horiz-adv-x="1252" d="M102 640q0 307 182 491t500 184q235 0 398 -90l-54 -122q-140 90 -351 90q-231 0 -381 -148t-150 -405t150 -405t381 -148q211 0 351 91l54 -121q-163 -90 -398 -90q-318 0 -500 183t-182 490zM427 -429l33 74q72 -33 133 -33q130 0 130 95q0 85 -214 101l133 206h108 l-92 -131q170 -40 170 -159q0 -198 -238 -198q-81 0 -163 45z" />
<glyph unicode="&#xea;" horiz-adv-x="1415" d="M102 610q0 319 182 512t462 193q542 0 553 -679h-1053q7 -257 153.5 -399.5t377.5 -142.5q228 0 451 87l12 -124q-221 -90 -478 -90q-296 0 -478 181t-182 462zM253 755h907q-4 155 -87 275q-113 167 -346 167q-209 0 -340 -152q-106 -122 -134 -290zM394 1486l261 296 h107l261 -296h-141l-174 196l-173 -196h-141z" />
<glyph unicode="&#xeb;" horiz-adv-x="1415" d="M102 610q0 319 182 512t462 193q542 0 553 -679h-1053q7 -257 153.5 -399.5t377.5 -142.5q228 0 451 87l12 -124q-221 -90 -478 -90q-296 0 -478 181t-182 462zM253 755h907q-4 155 -87 275q-113 167 -346 167q-209 0 -340 -152q-106 -122 -134 -290zM357 1598 q0 50 31.5 84.5t80.5 34.5q50 0 84.5 -34.5t34.5 -84.5t-34.5 -81t-84.5 -31q-49 0 -80.5 32t-31.5 80zM827 1598q0 50 31 84.5t81 34.5t84.5 -34.5t34.5 -84.5t-34.5 -81t-84.5 -31t-81 32t-31 80z" />
<glyph unicode="&#xee;" horiz-adv-x="540" d="M11 1486l261 296h107l261 -296h-141l-174 196l-173 -196h-141zM196 0v1288h144v-1288h-144z" />
<glyph unicode="&#xef;" horiz-adv-x="540" d="M-26 1598q0 50 31.5 84.5t80.5 34.5q50 0 84.5 -34.5t34.5 -84.5t-34.5 -81t-84.5 -31q-49 0 -80.5 32t-31.5 80zM196 0v1288h144v-1288h-144zM444 1598q0 50 31 84.5t81 34.5t84.5 -34.5t34.5 -84.5t-34.5 -81t-84.5 -31t-81 32t-31 80z" />
<glyph unicode="&#xf0;" horiz-adv-x="1370" d="M144 535q0 238 140 408.5t364 170.5q159 0 281 -76q87 -61 105 -113q-87 296 -318 514l-329 -207l-65 102l296 189q-170 129 -365 186l12 110q268 -54 477 -217l285 187l65 -104l-254 -166q61 -57 113 -124q268 -341 268 -777q0 -278 -135 -459q-155 -205 -425 -205 q-239 0 -377 167.5t-138 413.5zM296 535q0 -185 100 -318.5t283 -133.5q163 0 276.5 133.5t113.5 318.5q0 188 -113.5 321.5t-276.5 133.5q-178 0 -280.5 -133.5t-102.5 -321.5z" />
<glyph unicode="&#xf1;" horiz-adv-x="1476" d="M170 1288h141q26 -80 29 -232q148 258 437 259q503 0 503 -584v-731h-148v731q0 462 -386 462q-156 0 -279 -130.5t-123 -281.5v-781h-148v969q0 102 -26 319zM394 1478q4 113 54.5 170.5t130.5 57.5q42 0 82 -19.5t79.5 -44.5t76.5 -43.5t76 -18.5q65 0 76 133h95 q-8 -227 -189 -227q-37 0 -79.5 18.5t-82.5 43t-76 43.5t-62 19q-29 0 -56 -33.5t-31 -98.5h-94z" />
<glyph unicode="&#xf4;" horiz-adv-x="1507" d="M105 640q0 285 178.5 480t471.5 195q292 0 469.5 -195t177.5 -480t-178.5 -481t-468.5 -196q-293 0 -471.5 197t-178.5 480zM250 640q0 -235 142.5 -394t362.5 -159t361.5 159t141.5 394t-142.5 392.5t-360.5 157.5q-220 0 -362.5 -157.5t-142.5 -392.5zM439 1486 l261 296h107l261 -296h-141l-174 196l-173 -196h-141z" />
<glyph unicode="&#xf6;" horiz-adv-x="1507" d="M105 640q0 285 178.5 480t471.5 195q292 0 469.5 -195t177.5 -480t-178.5 -481t-468.5 -196q-293 0 -471.5 197t-178.5 480zM250 640q0 -235 142.5 -394t362.5 -159t361.5 159t141.5 394t-142.5 392.5t-360.5 157.5q-220 0 -362.5 -157.5t-142.5 -392.5zM402 1598 q0 50 31.5 84.5t80.5 34.5q50 0 84.5 -34.5t34.5 -84.5t-34.5 -81t-84.5 -31q-49 0 -80.5 32t-31.5 80zM872 1598q0 50 31 84.5t81 34.5t84.5 -34.5t34.5 -84.5t-34.5 -81t-84.5 -31t-81 32t-31 80z" />
<glyph unicode="&#xf7;" horiz-adv-x="1555" d="M144 625v126h1269v-126h-1269zM659 224q0 54 34 93.5t91 39.5q54 0 85.5 -39.5t31.5 -93.5t-33.5 -92t-86.5 -38q-58 0 -90 38t-32 92zM659 1143q3 54 37.5 92t87.5 38q54 0 87.5 -38t33.5 -92q0 -53 -33.5 -92t-87.5 -39q-57 0 -91 40t-34 91z" />
<glyph unicode="&#xf8;" horiz-adv-x="1507" d="M105 640q0 285 178.5 480t471.5 195q137 0 275 -57l119 192h163l-163 -260q253 -193 253 -550q0 -285 -178.5 -481t-468.5 -196q-167 0 -318 74l-93 -146h-152l137 222q-224 192 -224 527zM250 640q0 -246 151 -409l561 912q-94 47 -207 47q-220 0 -362.5 -157.5 t-142.5 -392.5zM507 152q109 -65 248 -65q220 0 361.5 159t141.5 394q0 268 -181 433z" />
<glyph unicode="&#xfb;" horiz-adv-x="1476" d="M196 564v724h148v-698q0 -496 350 -496q163 0 296 108q144 122 142 305v781h148v-974q0 -140 65 -310l-141 -30q-46 130 -61 250q-166 -257 -484 -257q-463 0 -463 597zM424 1486l261 296h107l261 -296h-141l-174 196l-173 -196h-141z" />
<glyph unicode="&#xfc;" horiz-adv-x="1476" d="M196 564v724h148v-698q0 -496 350 -496q163 0 296 108q144 122 142 305v781h148v-974q0 -140 65 -310l-141 -30q-46 130 -61 250q-166 -257 -484 -257q-463 0 -463 597zM387 1598q0 50 31.5 84.5t80.5 34.5q50 0 84.5 -34.5t34.5 -84.5t-34.5 -81t-84.5 -31 q-49 0 -80.5 32t-31.5 80zM857 1598q0 50 31 84.5t81 34.5t84.5 -34.5t34.5 -84.5t-34.5 -81t-84.5 -31t-81 32t-31 80z" />
<glyph unicode="&#xfe;" horiz-adv-x="1635" d="M231 -531v2313h145v-729q192 261 525 262q272 0 451 -194q167 -183 167 -455q0 -329 -196 -522q-182 -177 -463 -177q-311 0 -484 235v-733h-145zM376 507q0 -37 18 -113q57 -129 184 -216t293 -87q224 0 365.5 151.5t141.5 419.5q0 232 -137.5 383.5t-365.5 151.5 q-344 0 -470 -315q-29 -75 -29 -151v-224z" />
<glyph unicode="&#xff;" horiz-adv-x="1276" d="M11 1288h159l481 -1092l452 1092h162l-568 -1288q-223 -503 -595 -590l-34 116q322 73 489 517q0 11 -11 44zM289 1598q0 50 31.5 84.5t80.5 34.5q50 0 84.5 -34.5t34.5 -84.5t-34.5 -81t-84.5 -31q-49 0 -80.5 32t-31.5 80zM759 1598q0 50 31 84.5t81 34.5t84.5 -34.5 t34.5 -84.5t-34.5 -81t-84.5 -31t-81 32t-31 80z" />
<glyph unicode="&#x102;" horiz-adv-x="1515" d="M0 0l683 1830h151l681 -1830h-163l-209 579h-775l-205 -579h-163zM413 705h686l-341 962zM417 2233h133q15 -43 40 -72q61 -69 167 -69q105 0 163 69q29 29 46 72h128q-19 -102 -91 -167q-98 -90 -246 -92q-148 0 -250 92q-68 65 -90 167z" />
<glyph unicode="&#x103;" horiz-adv-x="1302" d="M98 322q0 481 838 481h22v22q0 126 -57 220q-87 152 -294 152q-133 0 -411 -87l-18 137q212 68 440 68q488 0 488 -538v-463q0 -159 47 -314l-134 -26l-53 207q-174 -216 -459 -214q-167 0 -288 94t-121 261zM253 348q0 -126 76 -191.5t191 -65.5q300 0 420 253 q18 43 18 72v259q-705 0 -705 -327zM311 1717h133q15 -43 40 -72q61 -69 167 -69q105 0 163 69q29 29 46 72h128q-19 -102 -91 -167q-98 -90 -246 -92q-148 0 -250 92q-68 65 -90 167z" />
<glyph unicode="&#x106;" horiz-adv-x="1537" d="M87 905q0 405 244 665t613 260q292 0 492 -95l-45 -122q-205 87 -440 89q-292 0 -496 -216q-216 -228 -216 -585t216 -583q205 -216 496 -216q235 0 440 87l45 -121q-202 -94 -492 -94q-369 0 -613 263t-244 668zM600 1994l188 344l148 -37l-220 -307h-116z" />
<glyph unicode="&#x107;" horiz-adv-x="1252" d="M102 640q0 307 182 491t500 184q235 0 398 -90l-54 -122q-140 90 -351 90q-231 0 -381 -148t-150 -405t150 -405t381 -148q211 0 351 91l54 -121q-163 -90 -398 -90q-318 0 -500 183t-182 490zM459 1478l188 344l148 -37l-220 -307h-116z" />
<glyph unicode="&#x10c;" horiz-adv-x="1537" d="M87 905q0 405 244 665t613 260q292 0 492 -95l-45 -122q-205 87 -440 89q-292 0 -496 -216q-216 -228 -216 -585t216 -583q205 -216 496 -216q235 0 440 87l45 -121q-202 -94 -492 -94q-369 0 -613 263t-244 668zM575 2266h141l173 -196l174 196h141l-261 -296h-107z" />
<glyph unicode="&#x10d;" horiz-adv-x="1252" d="M102 640q0 307 182 491t500 184q235 0 398 -90l-54 -122q-140 90 -351 90q-231 0 -381 -148t-150 -405t150 -405t381 -148q211 0 351 91l54 -121q-163 -90 -398 -90q-318 0 -500 183t-182 490zM439 1750h141l173 -196l174 196h141l-261 -296h-107z" />
<glyph unicode="&#x110;" horiz-adv-x="1631" d="M22 853v124h183v801q348 46 594 44q341 0 532.5 -233t191.5 -649q0 -455 -160 -683q-188 -272 -640 -272q-170 0 -518 33v835h-183zM352 137q188 -22 418 -24q605 2 605 827q0 364 -160 564q-155 189 -427 189q-174 0 -436 -30v-686h573v-124h-573v-716z" />
<glyph unicode="&#x111;" horiz-adv-x="1518" d="M105 659q0 285 155.5 470.5t425.5 185.5q326 0 489 -273v571h-492v126h492v174h148v-174h181v-126h-181v-1299q0 -216 11 -314h-137q-7 98 -7 228q-174 -261 -481 -261q-278 0 -441 190.5t-163 501.5zM250 655q0 -564 477 -564q189 0 318.5 122t129.5 303v215 q0 209 -140.5 337.5t-322.5 128.5q-220 0 -341 -151.5t-121 -390.5z" />
<glyph unicode="&#x11e;" horiz-adv-x="1609" d="M87 905q0 401 216 653q224 264 611 264q277 0 485 -90l-47 -122q-227 86 -447 88q-285 0 -475.5 -223.5t-190.5 -573.5q0 -372 164.5 -585.5t467.5 -213.5q239 0 437 94v585h-459v120h601v-864q-29 22 -79 24l-223 -40q-223 -39 -299 -39q-344 0 -553 251.5t-209 671.5z M463 2233h133q15 -43 40 -72q61 -69 167 -69q105 0 163 69q29 29 46 72h128q-19 -102 -91 -167q-98 -90 -246 -92q-148 0 -250 92q-68 65 -90 167z" />
<glyph unicode="&#x11f;" horiz-adv-x="1176" d="M137 838q0 205 128.5 329t302.5 124h505v-120l-187 19q156 -152 156 -326q0 -213 -130.5 -338t-325.5 -125q-116 0 -199 43q-23 -57 -23 -111q0 -98 306 -185q364 -102 364 -372q0 -163 -117.5 -267.5t-344.5 -104.5q-202 0 -367 104l52 120q163 -94 326 -94 q140 0 231 64.5t91 166.5q0 181 -298 281q-181 58 -250 102q-117 72 -118 185q0 68 39 183q-141 152 -141 322zM246 1717h133q15 -43 40 -72q61 -69 167 -69q105 0 163 69q29 29 46 72h128q-19 -102 -91 -167q-98 -90 -246 -92q-148 0 -250 92q-68 65 -90 167zM268 842 q0 -152 104 -243q94 -83 214 -83q137 0 232.5 87t95.5 242q0 126 -80 219q-90 113 -248 114q-151 0 -234.5 -100.5t-83.5 -235.5z" />
<glyph unicode="&#x130;" horiz-adv-x="556" d="M202 2046q0 54 36 93.5t88 39.5q57 0 95 -39.5t38 -93.5t-38 -90t-95 -36q-54 0 -89 36t-35 90zM205 0v1804h147v-1804h-147z" />
<glyph unicode="&#x131;" horiz-adv-x="540" d="M196 0v1288h144v-1288h-144z" />
<glyph unicode="&#x141;" horiz-adv-x="1367" d="M68 814l160 50v940h148v-890l821 261v-141l-821 -250v-658h886v-126h-1034v734l-126 -37z" />
<glyph unicode="&#x142;" horiz-adv-x="791" d="M68 814l160 50v1049h148v-999l310 102v-134l-310 -101v-76q0 -281 48 -402q72 -192 296 -201l-15 -128q-477 22 -477 674v86l-126 -37z" />
<glyph unicode="&#x152;" horiz-adv-x="2693" d="M83 897q0 405 233 670.5t605 265.5q409 0 648 -318v289h980v-126h-832v-662h742v-126h-742v-764h832v-126h-980v281q-239 -318 -648 -318q-372 0 -605 264.5t-233 669.5zM231 897q0 -333 193.5 -569.5t496.5 -236.5q217 0 389 124.5t259 333.5v663q-26 185 -217 338 q-201 156 -431 156q-303 0 -496.5 -237t-193.5 -572z" />
<glyph unicode="&#x153;" horiz-adv-x="2571" d="M105 640q0 285 178.5 480t471.5 195q409 0 575 -353q163 352 572 353q542 0 553 -679h-1053q0 -268 148 -405t381 -137q224 0 452 87l11 -124q-220 -90 -477 -90q-417 0 -594 340q-170 -344 -568 -344q-293 0 -471.5 197t-178.5 480zM250 640q0 -235 142.5 -394 t362.5 -159q216 0 357.5 157t145.5 396q4 231 -138.5 390.5t-364.5 159.5q-220 0 -362.5 -157.5t-142.5 -392.5zM1410 755h904q-7 192 -122.5 317t-308.5 125q-185 0 -314.5 -123t-158.5 -319z" />
<glyph unicode="&#x15e;" horiz-adv-x="1352" d="M109 102l61 129q185 -140 451 -140q213 0 334 100.5t121 267.5q0 151 -93.5 244t-309.5 161q-503 163 -503 507q0 201 155.5 333.5t404.5 132.5q254 0 413 -94q-33 -65 -63 -117q-163 87 -353 87q-213 0 -326 -111q-91 -91 -91 -211q0 -250 402 -386q261 -91 375 -198 q132 -124 132 -337q0 -205 -148 -340q-167 -163 -465 -163q-296 0 -497 135zM455 -477l37 83q80 -37 148 -37q144 0 144 105q0 95 -238 113l148 228h120l-102 -145q189 -44 189 -177q0 -220 -265 -220q-90 0 -181 50z" />
<glyph unicode="&#x15f;" horiz-adv-x="1089" d="M120 68l57 121q182 -98 319 -98q318 0 318 238q0 185 -300 278q-344 105 -344 348q0 148 112 254t312 106q201 0 318 -87l-59 -122q-113 91 -285 91q-122 0 -189.5 -64t-67.5 -160q0 -152 296 -253q344 -119 344 -380q0 -162 -123 -267.5t-343 -105.5q-189 0 -365 101z M348 -429l33 74q72 -33 133 -33q130 0 130 95q0 85 -214 101l133 206h108l-92 -131q170 -40 170 -159q0 -198 -238 -198q-81 0 -163 45z" />
<glyph unicode="&#x160;" horiz-adv-x="1332" d="M102 102l61 129q185 -140 451 -140q213 0 334 100.5t121 267.5q0 151 -93.5 244t-309.5 161q-503 163 -503 507q0 201 155.5 333.5t404.5 132.5q254 0 413 -94q-33 -65 -63 -117q-163 87 -353 87q-213 0 -326 -111q-91 -91 -91 -211q0 -250 402 -386q261 -91 375 -198 q132 -124 132 -337q0 -205 -148 -340q-167 -163 -465 -163q-296 0 -497 135zM352 2266h141l173 -196l174 196h141l-261 -296h-107z" />
<glyph unicode="&#x161;" horiz-adv-x="1067" d="M109 68l57 121q182 -98 319 -98q318 0 318 238q0 185 -300 278q-344 105 -344 348q0 148 112 254t312 106q201 0 318 -87l-59 -122q-113 91 -285 91q-122 0 -189.5 -64t-67.5 -160q0 -152 296 -253q344 -119 344 -380q0 -162 -123 -267.5t-343 -105.5q-189 0 -365 101z M220 1750h141l173 -196l174 196h141l-261 -296h-107z" />
<glyph unicode="&#x178;" horiz-adv-x="1446" d="M26 1804h170l524 -883l521 883h173l-622 -1008v-796h-144v792zM376 2101q0 50 31.5 84.5t80.5 34.5q50 0 84.5 -34.5t34.5 -84.5t-34.5 -81t-84.5 -31q-49 0 -80.5 32t-31.5 80zM846 2101q0 50 31 84.5t81 34.5t84.5 -34.5t34.5 -84.5t-34.5 -81t-84.5 -31t-81 32t-31 80 z" />
<glyph unicode="&#x17d;" horiz-adv-x="1605" d="M83 0v98l1225 1580h-1149l22 126h1316v-102l-1219 -1576h1269l-32 -126h-1432zM488 2266h141l173 -196l174 196h141l-261 -296h-107z" />
<glyph unicode="&#x17e;" horiz-adv-x="1215" d="M57 0v91l909 1076h-864l24 121h1027l-4 -102l-907 -1064h929l-31 -122h-1083zM292 1750h141l173 -196l174 196h141l-261 -296h-107z" />
<glyph unicode="&#x192;" horiz-adv-x="1507" d="M-65 -213l65 108q72 -43 178 -43q296 0 401 481l130 596h-217l24 116h218l24 98q141 607 587 607q144 0 205 -61l-64 -105q-73 42 -178 42q-296 0 -407 -483l-22 -98h372l-23 -116h-371l-130 -596q-133 -607 -586 -605q-145 0 -206 59z" />
<glyph unicode="&#x1a0;" horiz-adv-x="1840" d="M83 897q0 405 233 670.5t605 265.5q330 0 557 -216q159 170 159 357h121q0 -83 -52 -196q-65 -133 -169 -224q221 -263 221 -657q0 -405 -233.5 -669.5t-603.5 -264.5q-372 0 -605 264.5t-233 669.5zM231 897q0 -333 193.5 -569.5t496.5 -236.5q304 0 496.5 236.5 t192.5 569.5t-192.5 571t-496.5 238q-303 0 -496.5 -237t-193.5 -572z" />
<glyph unicode="&#x1a1;" horiz-adv-x="1507" d="M105 640q0 285 178.5 480t471.5 195q253 0 435 -162q136 129 148 355h125q-7 -232 -212 -420q151 -191 151 -448q0 -285 -178.5 -481t-468.5 -196q-293 0 -471.5 197t-178.5 480zM250 640q0 -235 142.5 -394t362.5 -159t361.5 159t141.5 394t-142.5 392.5t-360.5 157.5 q-220 0 -362.5 -157.5t-142.5 -392.5z" />
<glyph unicode="&#x1af;" horiz-adv-x="1764" d="M205 762v1042h147v-1038q0 -357 146 -516t384 -159q243 0 389 159t142 516v1038h148v-167q171 148 182 337h122q-33 -268 -304 -451v-761q0 -795 -679 -795q-678 0 -677 795z" />
<glyph unicode="&#x1b0;" horiz-adv-x="1411" d="M196 564v724h148v-698q0 -496 350 -496q163 0 296 108q144 122 142 305v781h148v-156q152 144 167 376h122q-26 -311 -289 -481v-713q0 -140 65 -310l-141 -30q-46 130 -61 250q-166 -257 -484 -257q-463 0 -463 597z" />
<glyph unicode="&#x2c6;" horiz-adv-x="802" d="M87 1486l261 296h107l261 -296h-141l-174 196l-173 -196h-141z" />
<glyph unicode="&#x2c7;" horiz-adv-x="802" d="M87 1750h141l173 -196l174 196h141l-261 -296h-107z" />
<glyph unicode="&#x2d8;" horiz-adv-x="1143" d="M228 1717h133q15 -43 40 -72q61 -69 167 -69q105 0 163 69q29 29 46 72h128q-19 -102 -91 -167q-98 -90 -246 -92q-148 0 -250 92q-68 65 -90 167z" />
<glyph unicode="&#x2d9;" horiz-adv-x="1143" d="M444 2046q0 54 36 93.5t88 39.5q57 0 95 -39.5t38 -93.5t-38 -90t-95 -36q-54 0 -89 36t-35 90z" />
<glyph unicode="&#x2da;" horiz-adv-x="1143" d="M292 1667q0 116 81.5 200.5t190.5 84.5q117 0 199 -84.5t82 -200.5q0 -109 -81 -190.5t-200 -81.5q-109 0 -190.5 81.5t-81.5 190.5zM409 1663q0 -65 45.5 -110t113.5 -45q72 0 119 45t47 110q0 72 -47 119.5t-119 47.5q-68 0 -113.5 -47.5t-45.5 -119.5z" />
<glyph unicode="&#x2db;" horiz-adv-x="1143" d="M303 -326q0 69 18.5 156t50.5 185h152q-73 -185 -73 -304q0 -162 148 -173q113 0 222 57l4 -137q-72 -30 -132 -43.5t-125 -13.5q-137 0 -201 81t-64 192z" />
<glyph unicode="&#x2dc;" horiz-adv-x="802" d="M87 1482q4 90 40 166t123 76q37 0 75.5 -17.5t76.5 -39.5t76 -39.5t79 -17.5q26 0 49 28.5t27 93.5h98q-4 -98 -51 -166.5t-134 -68.5q-34 0 -74.5 16.5t-80 36t-75 36t-63.5 16.5q-29 0 -48.5 -34t-23.5 -86h-94z" />
<glyph unicode="&#x2dd;" horiz-adv-x="1056" d="M159 1251l224 610h178l-300 -610h-102zM488 1251l224 610h178l-300 -610h-102z" />
<glyph unicode="&#x300;" d="M-549 1785l148 37l188 -344h-116z" />
<glyph unicode="&#x301;" d="M-586 1478l188 344l148 -37l-220 -307h-116z" />
<glyph unicode="&#x303;" d="M-738 1478q4 113 54.5 170.5t130.5 57.5q42 0 82 -19.5t79.5 -44.5t76.5 -43.5t76 -18.5q65 0 76 133h95q-8 -227 -189 -227q-37 0 -79.5 18.5t-82.5 43t-76 43.5t-62 19q-29 0 -56 -33.5t-31 -98.5h-94z" />
<glyph unicode="&#x309;" d="M-868 1844q84 152 261 152q102 0 166.5 -54.5t64.5 -156.5q0 -116 -105 -200.5t-105 -130.5h-119q4 98 108.5 175t104.5 156q0 54 -36 81.5t-97 27.5q-98 0 -171 -105z" />
<glyph unicode="&#x323;" d="M-405 -292q0 37 32.5 72t76.5 35q50 0 80.5 -35t30.5 -72q0 -47 -30.5 -78t-80.5 -31q-46 0 -77.5 32t-31.5 77z" />
<glyph unicode="&#xe00;" />
<glyph unicode="&#xe01;" horiz-adv-x="1461" d="M137 1030q29 213 190 349t382 136q246 0 394 -136t148 -374v-1005h-137v990q0 185 -116 295t-297 110q-129 0 -250.5 -72t-165.5 -187q224 -19 305 -167q-90 -18 -158 -99.5t-68 -179.5v-690h-136v686q0 224 196 304q-126 61 -287 40z" />
<glyph unicode="&#xe02;" horiz-adv-x="1431" d="M57 1160q0 141 107.5 248t301.5 107q167 0 275 -83t108 -228q0 -109 -91.5 -287.5t-91.5 -261.5v-352q0 -212 209 -212t209 212v1183h135v-1172q0 -344 -348 -344q-340 0 -340 344v361q0 95 94.5 257.5t94.5 253.5q0 87 -74 153.5t-180 66.5q-166 0 -253 -111 q33 15 87 17q98 0 161 -63t63 -157q0 -99 -63 -165.5t-161 -66.5q-117 0 -180 87t-63 213zM178 1088q0 -54 34 -88t88 -34q53 0 86.5 34t33.5 88q0 53 -34 86.5t-86 33.5q-54 0 -88 -34t-34 -86z" />
<glyph unicode="&#xe03;" horiz-adv-x="1446" d="M57 1030q0 163 91 304q98 155 253 185l95 -131l103 131q137 -15 222 -128q76 -105 76 -242q0 -117 -107 -307.5t-107 -299.5v-239q0 -212 207 -212q209 0 209 212v1183h137v-1172q0 -344 -350 -344q-340 0 -340 344v239q0 122 113.5 305.5t113.5 301.5q0 196 -144 228 l-133 -160l-135 156q-122 -83 -165 -220q54 22 122 22q109 0 174 -70.5t65 -175.5q0 -109 -70.5 -177.5t-172.5 -68.5q-129 0 -197 105q-61 95 -60 231zM192 944q0 -54 34.5 -88.5t87.5 -34.5q54 0 88.5 34.5t34.5 88.5q0 53 -34.5 86.5t-88.5 33.5q-53 0 -87.5 -33.5 t-34.5 -86.5z" />
<glyph unicode="&#xe04;" horiz-adv-x="1487" d="M126 966q0 246 166.5 397.5t416.5 151.5q231 0 399 -123t168 -362v-1030h-136v1019q0 182 -134.5 279t-304.5 97q-174 0 -305 -119.5t-131 -295.5q0 -83 31 -199q43 -167 44 -191q34 217 119 368q109 196 275 198q95 0 156 -61t61 -163q0 -94 -65 -160.5t-159 -66.5 q-98 0 -174 91q-53 -80 -105 -228q-65 -181 -65 -322v-246h-137v348q0 109 -60 310.5t-60 307.5zM610 932q0 -50 34.5 -84t82.5 -34q50 0 84 34t34 84t-34 83.5t-84 33.5t-83.5 -34.5t-33.5 -82.5z" />
<glyph unicode="&#xe05;" horiz-adv-x="1487" d="M126 973q0 437 412 550l167 -193l152 193q416 -84 419 -454v-1069h-136v1060q-4 261 -254 324l-181 -206l-202 210q-122 -65 -185 -198q-50 -98 -50 -185q0 -130 72 -452q102 516 387 516q98 0 159 -61t61 -159q0 -94 -63 -159t-153 -65q-122 0 -196 87q-50 -53 -95 -201 q-50 -163 -50 -306v-205h-137v303q0 117 -63.5 337t-63.5 333zM610 849q0 -50 34.5 -84t82.5 -34q50 0 84 34t34 84t-34 83.5t-84 33.5t-83.5 -34.5t-33.5 -82.5z" />
<glyph unicode="&#xe06;" horiz-adv-x="1544" d="M57 1030q0 163 91 304q98 155 253 185l95 -131l103 131q137 -15 217.5 -119.5t80.5 -250.5q0 -117 -107 -307.5t-107 -299.5v-57q336 -37 514 -280v1281h137v-1486h-137q-163 311 -463 376q54 -62 54 -145q0 -109 -74 -185t-183 -76q-113 0 -188 76t-75 185t76 183 t187 74h15v65q0 122 113.5 305.5t113.5 301.5q0 196 -144 228l-133 -160l-135 156q-122 -83 -165 -220q54 22 122 22q109 0 174 -70.5t65 -175.5q0 -109 -70.5 -177.5t-172.5 -68.5q-129 0 -197 105q-61 95 -60 231zM192 944q0 -54 34.5 -88.5t87.5 -34.5q54 0 88.5 34.5 t34.5 88.5q0 53 -34.5 86.5t-88.5 33.5q-53 0 -87.5 -33.5t-34.5 -86.5zM398 231q0 -53 39.5 -93t93.5 -40t92.5 40t38.5 93q0 54 -39.5 93.5t-91.5 39.5q-54 0 -93.5 -39.5t-39.5 -93.5z" />
<glyph unicode="&#xe07;" horiz-adv-x="1113" d="M61 788l76 87l629 -683v850q-54 -26 -118 -26q-102 0 -176 74t-74 172q0 109 72 181t178 72q122 0 194 -79q61 -73 59 -174v-1262h-135zM520 1269q0 -54 38 -91.5t90 -37.5q53 0 91 37.5t38 91.5t-38 92t-91 38q-54 0 -91 -38t-37 -92z" />
<glyph unicode="&#xe08;" horiz-adv-x="1389" d="M91 1121q18 159 148 267q155 129 409 127q530 0 530 -398v-871q0 -281 -268 -279q-213 0 -244 211l-63 425q-57 -33 -129 -35q-95 0 -159.5 64.5t-64.5 159.5q0 98 64.5 164.5t159.5 66.5q83 0 147.5 -54.5t79.5 -137.5l109 -646q15 -94 108 -94q125 0 124 137v889 q0 148 -117.5 211t-273.5 63q-170 0 -282 -72t-138 -198h-140zM364 792q0 -50 31.5 -81.5t81.5 -31.5t84.5 31.5t34.5 81.5t-34.5 84t-84.5 34t-81.5 -34t-31.5 -84z" />
<glyph unicode="&#xe09;" horiz-adv-x="1428" d="M98 746q0 98 66.5 164.5t161.5 66.5q98 0 164.5 -66t66.5 -165q0 -73 -53 -180t-53 -190v-243q126 181 413 268q216 99 216 326v379q0 134 -136 217q-117 68 -274 68q-145 0 -265 -68q-137 -80 -166 -209h-141q11 159 152 274q159 129 412 127q246 0 394 -98 q159 -109 159 -314v-383q0 -182 -101 -283q170 -54 170 -228q0 -98 -64 -166.5t-175 -68.5q-98 0 -166.5 67.5t-68.5 167.5q0 33 4 48q-216 -91 -329 -257h-171v352q0 109 26 168h-14q-95 0 -161.5 65.5t-66.5 160.5zM216 746q0 -50 32.5 -81.5t80.5 -31.5q50 0 82.5 31.5 t32.5 81.5t-32.5 82t-82.5 32t-81.5 -32t-31.5 -82zM925 209q0 -50 38 -88t86 -38q54 0 90 38t36 88q0 54 -36 89t-90 35q-50 0 -87 -36t-37 -88z" />
<glyph unicode="&#xe0a;" horiz-adv-x="1439" d="M57 1160q0 141 107.5 248t301.5 107q167 0 275 -83t108 -228q0 -109 -91.5 -287.5t-91.5 -261.5v-352q0 -212 213 -212t213 212v611q0 166 -163 222q7 22 7 89q209 87 220 351h143q-11 -144 -78.5 -250.5t-140.5 -143.5q148 -57 148 -253v-615q0 -344 -353 -344 q-344 0 -344 344v361q0 95 94.5 257.5t94.5 253.5q0 87 -74 153.5t-180 66.5q-166 0 -253 -111q33 15 87 17q98 0 161 -63t63 -157q0 -99 -63 -165.5t-161 -66.5q-117 0 -180 87t-63 213zM178 1088q0 -54 34 -88t88 -34q53 0 86.5 34t33.5 88q0 53 -34 86.5t-86 33.5 q-54 0 -88 -34t-34 -86z" />
<glyph unicode="&#xe0b;" horiz-adv-x="1454" d="M57 1030q0 163 91 304q98 155 253 185l95 -131l103 131q137 -15 222 -128q76 -105 76 -242q0 -117 -107 -307.5t-107 -299.5v-235q0 -216 211 -216q212 0 212 212v611q0 166 -151 218q3 34 -4 93q209 87 220 351h144q-11 -144 -79.5 -250.5t-140.5 -143.5 q148 -57 148 -253v-615q0 -344 -353 -344q-344 0 -344 344v239q0 122 113.5 305.5t113.5 301.5q0 196 -144 228l-133 -160l-135 156q-122 -83 -165 -220q54 22 122 22q109 0 174 -70.5t65 -175.5q0 -109 -70.5 -177.5t-172.5 -68.5q-129 0 -197 105q-61 95 -60 231zM192 944 q0 -54 34.5 -88.5t87.5 -34.5q54 0 88.5 34.5t34.5 88.5q0 53 -34.5 86.5t-88.5 33.5q-53 0 -87.5 -33.5t-34.5 -86.5z" />
<glyph unicode="&#xe0c;" horiz-adv-x="1964" d="M113 1027q33 213 187.5 350.5t361.5 137.5q239 0 379.5 -130.5t140.5 -365.5v-568q311 -105 435 -273v1308h137v-1486h-141q-90 141 -301 265q7 -30 7 -49q0 -101 -66.5 -175t-183.5 -74q-101 0 -176 73t-75 176q0 98 66.5 170.5t160.5 79.5v539q0 390 -390 390 q-122 0 -229.5 -74t-147.5 -189q212 -15 301 -166q-91 -19 -159 -98.5t-68 -177.5v-239q33 15 88 15q102 0 176 -74t74 -176q0 -101 -70.5 -175t-179.5 -74t-180 73t-71 176q0 62 27 110v360q0 206 197 298q-145 58 -300 43zM314 216q0 -53 36.5 -89t89.5 -36q54 0 91 36 t37 89q0 54 -38 91t-90 37q-53 0 -89.5 -38t-36.5 -90zM940 216q0 -53 36 -89t88 -36q53 0 91 36t38 89q0 54 -38 91t-91 37q-54 0 -89 -38t-35 -90z" />
<glyph unicode="&#xe0d;" horiz-adv-x="1964" d="M113 1027q33 213 184 350.5t358 137.5q235 0 366.5 -128.5t131.5 -367.5v-716q0 -212 235 -212q231 0 229 212v1183h137v-1175q0 -341 -370 -341q-368 0 -368 344v691q0 390 -368 390q-123 0 -226.5 -72t-143.5 -191q212 -15 301 -166q-91 -19 -159 -98.5t-68 -177.5 v-246q49 22 114 22q106 0 178 -72t72 -174t-58.5 -177.5t-191.5 -75.5q-109 0 -179.5 69t-70.5 188v462q0 206 197 298q-145 58 -300 43zM340 216q0 -53 36.5 -89t89.5 -36q54 0 92 36t38 89q0 54 -38 91t-92 37q-53 0 -89.5 -38t-36.5 -90zM947 -318q0 83 61 144t145 61 q87 0 147 -61t60 -144q0 -141 -132 -193q47 -25 110 -27q325 0 333 408h140q-7 -227 -119 -372.5t-351 -145.5q-151 0 -272.5 94.5t-121.5 235.5zM1053 -318q0 -43 30.5 -72.5t72.5 -29.5q43 0 72.5 29.5t29.5 72.5q0 42 -30.5 72t-71.5 30q-42 0 -72.5 -31t-30.5 -71z" />
<glyph unicode="&#xe0e;" horiz-adv-x="1609" d="M91 216q0 102 72 176t174 74q42 0 90 -18q-22 174 -22 264q0 174 152 272q-102 46 -200 46q-50 0 -72 -3q18 213 183 350.5t385 137.5q242 0 394 -137.5t152 -376.5v-1815h-152q-30 91 -172.5 181.5t-256.5 121.5v-27q0 -122 -71.5 -207.5t-193.5 -85.5q-113 0 -177.5 67 t-64.5 165q0 116 83 185.5t202 69.5q18 0 98 -13q15 141 140 213l102 -61q-113 -73 -118 -182q303 -105 444 -253v1624q0 185 -116 298t-297 113q-129 0 -248.5 -74t-163.5 -189q201 -18 305 -166q-206 -69 -204 -276q0 -148 34 -303q14 -69 14 -159q0 -110 -73 -184 t-176 -74q-102 0 -174 71.5t-72 174.5zM213 216q0 -53 36 -89t88 -36q53 0 91 36t38 89q0 54 -38 91t-91 37q-54 0 -89 -38t-35 -90zM431 -590q0 -117 126 -119q133 0 133 171q0 27 -7 57q-34 11 -80 11q-170 0 -172 -120z" />
<glyph unicode="&#xe0f;" horiz-adv-x="1609" d="M91 216q0 102 72 176t174 74q42 0 90 -18q-22 174 -22 264q0 174 152 272q-102 46 -200 46q-50 0 -72 -3q18 213 183 350.5t385 137.5q242 0 394 -137.5t152 -376.5v-1815h-152l-205 231l-167 -227l-209 227q-4 -116 -75 -183.5t-167 -67.5q-117 0 -180 68.5t-63 166.5 q0 109 72.5 175.5t177.5 66.5q72 0 126 -26q7 133 155 220l102 -61q-130 -79 -135 -213l185 -196l178 239l220 -246v1624q0 185 -116 298t-297 113q-129 0 -248.5 -74t-163.5 -189q201 -18 305 -166q-206 -69 -204 -276q0 -148 34 -303q14 -69 14 -159q0 -110 -73 -184 t-176 -74q-102 0 -174 71.5t-72 174.5zM213 216q0 -53 36 -89t88 -36q53 0 91 36t38 89q0 54 -38 91t-91 37q-54 0 -89 -38t-35 -90zM296 -603q0 -113 120 -113q141 0 141 209q-33 33 -113 33q-148 0 -148 -129z" />
<glyph unicode="&#xe10;" horiz-adv-x="1298" d="M-54 -618q0 91 76 141t180 50q87 0 131 -21q22 156 167 232l103 -56q-155 -76 -159 -224l166 -194l163 83l182 -113v171q-19 -4 -61 -4q-80 0 -136.5 51t-56.5 123t56.5 123t136.5 51q75 0 132.5 -47.5t57.5 -126.5v-439h-148l-163 102l-166 -98l-170 207 q-4 -105 -76 -166t-172 -61q-243 3 -243 216zM65 -629q0 -98 116 -98q145 0 145 120q0 21 -8 50q-37 26 -129 26q-126 -7 -124 -98zM98 1110q11 174 132.5 289.5t322.5 115.5q80 0 214 -41.5t206 -41.5q91 0 111 83l117 -26q-61 -196 -221 -198q-83 0 -228 46.5t-221 46.5 q-87 0 -168.5 -52t-90.5 -120q379 -76 538 -135q261 -95 263 -228v-549q0 -333 -303 -333q-300 0 -300 333v192q-43 -15 -94 -15q-95 0 -159.5 63t-64.5 157q0 99 64.5 165.5t159.5 66.5q98 0 164.5 -59.5t66.5 -164.5v-416q0 -197 163 -198q166 0 166 198v549 q0 91 -368 181q-220 58 -470 91zM278 701q0 -42 27.5 -70t70.5 -28q42 0 71.5 28t29.5 70q0 43 -30.5 72.5t-70.5 29.5q-43 0 -70.5 -30.5t-27.5 -71.5zM803 -379q0 -87 91 -87q90 0 90 87q0 83 -90 83q-91 0 -91 -83z" />
<glyph unicode="&#xe11;" horiz-adv-x="1746" d="M57 1030q0 163 94.5 311t249.5 178l95 -131l103 131q278 -33 276 -370q0 -117 -96 -311t-96 -314l-17 -322q43 159 92 283l311 819q80 213 230 211q235 0 235 -303v-1212h-135v1212q0 170 -111 172q-43 0 -91 -100l-481 -1284h-170v553q0 122 102.5 305.5t102.5 301.5 q0 205 -122 228l-133 -160l-135 156q-122 -83 -165 -220q54 22 122 22q109 0 174 -70.5t65 -175.5q0 -109 -70.5 -177.5t-172.5 -68.5q-129 0 -197 105q-61 95 -60 231zM192 944q0 -54 34.5 -88.5t87.5 -34.5q54 0 88.5 34.5t34.5 88.5q0 53 -34.5 86.5t-88.5 33.5 q-53 0 -87.5 -33.5t-34.5 -86.5z" />
<glyph unicode="&#xe12;" horiz-adv-x="2014" d="M122 962q0 185 87 337q98 166 268 212l206 -216l203 220q167 -29 256.5 -181t89.5 -333v-550q311 -105 435 -255v1290h137v-1486h-137q-98 163 -307 268q7 -22 7 -52q0 -98 -67.5 -172t-182.5 -74q-112 0 -180.5 73.5t-68.5 176.5q0 98 66.5 170t160.5 80v514 q0 272 -174 387l-242 -218l-224 222q-87 -58 -142.5 -170.5t-55.5 -227.5q0 -109 78 -315.5t81 -335.5q30 64 115 148q98 90 131 140q-94 11 -148.5 74t-54.5 150q0 94 63.5 158t160.5 64q94 0 160.5 -65.5t61.5 -156.5q-8 -174 -243 -419t-246 -419h-135v344 q0 113 -79.5 313t-79.5 305zM561 842q0 -54 32 -86.5t86 -32.5t87 32.5t33 86.5q0 53 -34 86.5t-86 33.5q-54 0 -86 -34t-32 -86zM990 216q0 -53 35 -89t89 -36q53 0 91 36t38 89q0 54 -38 91t-91 37q-54 0 -89 -38t-35 -90z" />
<glyph unicode="&#xe13;" horiz-adv-x="2057" d="M113 1027q33 213 184 350.5t358 137.5q235 0 366.5 -128.5t131.5 -367.5v-838q87 113 242 187q185 91 218 117q95 83 96 253v748h135v-740q0 -228 -72 -298q152 -65 152 -235q0 -106 -71 -176t-182 -70q-106 0 -178 69t-72 177v22q-137 -54 -243 -235h-162v1005 q0 390 -368 390q-123 0 -226.5 -72t-143.5 -191q212 -15 301 -166q-91 -19 -159 -98.5t-68 -177.5v-246q49 22 114 22q106 0 178 -72t72 -174q0 -109 -70.5 -181t-179.5 -72t-179.5 73t-70.5 184v462q0 206 197 298q-145 58 -300 43zM340 216q0 -53 36.5 -89t89.5 -36 q54 0 92 36t38 89q0 54 -38 91t-92 37q-53 0 -89.5 -38t-36.5 -90zM1543 213q0 -54 37 -92t91 -38q53 0 91 38t38 92q0 53 -38 90t-91 37q-54 0 -91 -37.5t-37 -89.5z" />
<glyph unicode="&#xe14;" horiz-adv-x="1480" d="M122 962q0 257 170 405t424 148q261 0 407 -137.5t146 -372.5v-1005h-137v984q0 409 -435 411q-173 0 -306.5 -119.5t-133.5 -295.5q0 -109 61 -296.5t61 -289.5q0 -76 -7 -102q46 98 155 219q87 94 178 194q-95 0 -159.5 64.5t-64.5 159.5q0 94 64.5 159t159.5 65 q94 0 159 -65t65 -159q0 -182 -267.5 -463t-278.5 -466h-137v340q0 110 -62 313.5t-62 308.5zM586 929q0 -50 34.5 -84.5t84.5 -34.5t83 34.5t33 84.5t-33 83t-83 33t-84.5 -34t-34.5 -82z" />
<glyph unicode="&#xe15;" horiz-adv-x="1480" d="M122 962q0 185 83 337q98 170 269 216l235 -207l216 207q167 -29 261 -192q83 -141 83 -318v-1005h-137v984q0 281 -181 391l-242 -222l-258 222q-188 -123 -190 -395q0 -116 61 -322.5t61 -357.5q37 76 152.5 170t154.5 152q-87 7 -146 68t-59 152q0 94 62.5 158 t157.5 64q94 0 159 -64t65 -158q0 -174 -265.5 -417.5t-276.5 -424.5h-137v340q0 110 -64 313.5t-64 308.5zM596 845q0 -49 33 -83.5t83 -34.5t84.5 34.5t34.5 83.5q0 50 -34.5 83.5t-84.5 33.5t-83 -34t-33 -83z" />
<glyph unicode="&#xe16;" horiz-adv-x="1431" d="M98 1030q30 210 197 347.5t384 137.5q242 0 391 -136t149 -374v-1005h-135v990q0 192 -113.5 298.5t-300.5 106.5q-130 0 -246.5 -74t-162.5 -189q231 -18 300 -163q-87 -18 -155.5 -99.5t-68.5 -175.5v-246q61 26 114 26q106 0 180 -74t74 -180q0 -113 -72 -181.5 t-182 -68.5q-105 0 -177 71.5t-72 178.5v470q0 205 192 300q-102 42 -296 40zM329 216q0 -53 36 -89t90 -36t91 36t37 89q0 54 -38 91t-90 37q-54 0 -90 -38t-36 -90z" />
<glyph unicode="&#xe17;" horiz-adv-x="1628" d="M65 1265q0 102 74 176t175 74q102 0 176 -74t74 -176v-741q-7 -174 -18 -252q22 76 68 213l307 819q80 213 261 211q235 0 235 -303v-1212h-137v1212q0 170 -109 172q-68 0 -118 -100l-481 -1284h-145v1042q-50 -26 -113 -26q-101 0 -175 74t-74 175zM185 1265 q0 -53 38 -91t91 -38q54 0 92 38t38 91q0 54 -38 92t-92 38q-53 0 -91 -38t-38 -92z" />
<glyph unicode="&#xe18;" horiz-adv-x="1269" d="M76 1114q11 170 123 285.5t304 115.5q87 0 227.5 -41.5t209.5 -41.5q90 0 105 87l119 -26q-58 -185 -217 -185q-83 0 -229 43.5t-222 43.5q-80 0 -157.5 -53.5t-88.5 -126.5q409 -83 505 -112q296 -98 294 -250v-564q0 -315 -416 -315q-417 0 -417 315v590h136v-598 q0 -185 281 -187q281 0 281 187v561q0 90 -368 181q-224 57 -470 91z" />
<glyph unicode="&#xe19;" horiz-adv-x="1591" d="M65 1265q0 102 74 176t175 74q102 0 176 -74t74 -176v-1117q76 83 270 170q217 98 280 152q129 102 129 261v755h135v-774q0 -181 -83 -264q159 -65 159 -232q0 -101 -73 -173.5t-177 -72.5q-101 0 -173.5 71.5t-72.5 174.5v26q-235 -94 -362 -242h-169v1042 q-50 -26 -113 -26q-101 0 -175 74t-74 175zM185 1265q0 -53 38 -91t91 -38q54 0 92 38t38 91q0 54 -38 92t-92 38q-53 0 -91 -38t-38 -92zM1077 220q0 -54 38 -91.5t89 -37.5q54 0 92 37.5t38 91.5t-38 91t-92 37q-53 0 -90 -38t-37 -90z" />
<glyph unicode="&#xe1a;" horiz-adv-x="1620" d="M65 1265q0 102 74 176t175 74q102 0 176 -74t74 -176v-932q0 -239 357 -239q352 0 352 239v1153h137v-1164q0 -352 -489 -352q-492 0 -494 352v720q-50 -26 -113 -26q-101 0 -175 74t-74 175zM185 1265q0 -53 38 -91t91 -38q54 0 92 38t38 91q0 54 -38 92t-92 38 q-53 0 -91 -38t-38 -92z" />
<glyph unicode="&#xe1b;" horiz-adv-x="1620" d="M65 1265q0 102 74 176t175 74q102 0 176 -74t74 -176v-932q0 -239 357 -239q352 0 352 239v1785h137v-1796q0 -352 -489 -352q-492 0 -494 352v720q-50 -26 -113 -26q-101 0 -175 74t-74 175zM185 1265q0 -53 38 -91t91 -38q54 0 92 38t38 91q0 54 -38 92t-92 38 q-53 0 -91 -38t-38 -92z" />
<glyph unicode="&#xe1c;" horiz-adv-x="1443" d="M152 0v1265q0 102 72 176t177 74q102 0 176 -74t74 -176q0 -98 -72 -173.5t-178 -75.5q-53 0 -112 26v-837l347 537h102l357 -537v1281h137v-1486h-152l-390 599l-387 -599h-151zM278 1265q0 -53 37 -91t90 -38q54 0 92 38t38 91q0 54 -38 92t-92 38q-53 0 -90 -38 t-37 -92z" />
<glyph unicode="&#xe1d;" horiz-adv-x="1443" d="M152 0v1265q0 102 72 176t177 74q102 0 176 -74t74 -176q0 -98 -72 -173.5t-178 -75.5q-53 0 -112 26v-837l347 537h102l357 -537v1913h137v-2118h-152l-390 599l-387 -599h-151zM278 1265q0 -53 37 -91t90 -38q54 0 92 38t38 91q0 54 -38 92t-92 38q-53 0 -90 -38 t-37 -92z" />
<glyph unicode="&#xe1e;" horiz-adv-x="1692" d="M65 1265q0 102 74 176t175 74q102 0 176 -74t74 -176v-791q0 -95 -18 -265q26 126 68 276l276 1001h129l276 -1001q43 -152 68 -276q-18 170 -18 265v1012h137v-1486h-167l-360 1315l-359 -1315h-169v1042q-50 -26 -113 -26q-101 0 -175 74t-74 175zM185 1265 q0 -53 38 -91t91 -38q54 0 92 38t38 91q0 54 -38 92t-92 38q-53 0 -91 -38t-38 -92z" />
<glyph unicode="&#xe1f;" horiz-adv-x="1692" d="M65 1265q0 102 74 176t175 74q102 0 176 -74t74 -176v-791q0 -95 -18 -265q26 126 68 276l276 1001h129l276 -1001q43 -152 68 -276q-18 170 -18 265v1644h137v-2118h-167l-360 1315l-359 -1315h-169v1042q-50 -26 -113 -26q-101 0 -175 74t-74 175zM185 1265 q0 -53 38 -91t91 -38q54 0 92 38t38 91q0 54 -38 92t-92 38q-53 0 -91 -38t-38 -92z" />
<glyph unicode="&#xe20;" horiz-adv-x="1609" d="M91 216q0 102 72 176t174 74q42 0 90 -18q-22 174 -22 264q0 174 152 272q-102 46 -200 46q-50 0 -72 -3q18 213 183 350.5t385 137.5q242 0 394 -137.5t152 -376.5v-1001h-137v984q0 185 -116 298t-297 113q-129 0 -248.5 -74t-163.5 -189q201 -18 305 -166 q-206 -69 -204 -276q0 -148 34 -303q14 -69 14 -159q0 -110 -65.5 -184t-183.5 -74q-102 0 -174 71.5t-72 174.5zM213 216q0 -53 36 -89t88 -36q53 0 91 36t38 89q0 54 -38 91t-91 37q-54 0 -89 -38t-35 -90z" />
<glyph unicode="&#xe21;" horiz-adv-x="1515" d="M65 1265q0 102 74 176t175 74q102 0 176 -74t74 -176v-817q376 -134 603 -307v1345h137v-1486h-148q-296 228 -553 300q11 -34 11 -69q0 -109 -77.5 -185t-188.5 -76q-109 0 -185 76t-76 185t76 187t185 78q42 0 79 -11v557q-50 -26 -113 -26q-101 0 -175 74t-74 175z M185 1265q0 -53 38 -91t91 -38q54 0 92 38t38 91q0 54 -38 92t-92 38q-53 0 -91 -38t-38 -92zM209 235q0 -57 41.5 -99t97.5 -42q57 0 98.5 42t41.5 99t-41.5 99t-98.5 42q-58 0 -98.5 -42t-40.5 -99z" />
<glyph unicode="&#xe22;" horiz-adv-x="1420" d="M159 1182q0 148 85 240.5t237 92.5q94 0 155 -63.5t61 -152.5q0 -87 -57 -149t-159 -62q-141 0 -196 124q-4 -11 -4 -59q0 -106 66 -194t173 -88h214v-129h-218q-83 0 -140.5 -60t-57.5 -158v-176q0 -254 379 -254q376 0 376 254v1138h135v-1149q0 -368 -511 -367 q-516 0 -516 367v194q0 87 52 166.5t128 109.5q-202 87 -202 375zM361 1299q0 -117 116 -117q54 0 88 31.5t34 85.5q0 53 -34 87.5t-88 34.5q-53 0 -84.5 -34.5t-31.5 -87.5z" />
<glyph unicode="&#xe23;" horiz-adv-x="1219" d="M94 1114q23 401 368 401q80 0 226 -39.5t209 -39.5q37 0 72 87l119 -30q-58 -181 -194 -181q-80 0 -229 41.5t-225 41.5q-68 0 -127.5 -59.5t-62.5 -120.5q242 -42 477 -124.5t235 -237.5v-633q0 -102 -68.5 -176t-181.5 -74q-102 0 -176 73.5t-74 176.5q0 102 74 176 t176 74q65 0 113 -26v398q0 155 -731 272zM583 220q0 -54 38 -91.5t91 -37.5q54 0 92 37.5t38 91.5t-38 91t-92 37q-53 0 -91 -38t-38 -90z" />
<glyph unicode="&#xe24;" horiz-adv-x="1431" d="M98 1030q30 210 197 347.5t384 137.5q242 0 391 -136t149 -374v-1763h-135v1748q0 192 -113.5 298.5t-300.5 106.5q-130 0 -246.5 -74t-162.5 -189q231 -18 300 -163q-87 -18 -155.5 -99.5t-68.5 -175.5v-246q61 26 114 26q106 0 180 -74t74 -180q0 -105 -74 -177.5 t-180 -72.5q-105 0 -177 71.5t-72 178.5v470q0 205 192 300q-102 42 -296 40zM329 216q0 -53 36 -89t90 -36t91 36t37 89q0 54 -38 91t-90 37q-54 0 -90 -38t-36 -90z" />
<glyph unicode="&#xe25;" horiz-adv-x="1443" d="M80 1121q25 174 205 289q166 105 381 105q220 0 379 -102q185 -122 187 -329v-1084h-137v648q0 133 -140 212q-117 65 -272 65q-152 0 -258.5 -81.5t-106.5 -210.5v-189q54 26 126 26q105 0 177.5 -74t72.5 -176t-72.5 -176t-177.5 -74q-117 0 -190 76t-73 178v409 q0 188 152 311q141 112 337 112q264 0 425 -151v187q0 136 -144 227q-126 76 -276 76q-159 0 -288 -69q-141 -75 -174 -205h-133zM314 216q0 -53 36.5 -89t89.5 -36q54 0 91 36t37 89q0 54 -38 91t-90 37q-53 0 -89.5 -38t-36.5 -90z" />
<glyph unicode="&#xe26;" horiz-adv-x="1609" d="M91 216q0 102 72 176t174 74q42 0 90 -18q-22 174 -22 264q0 174 152 272q-102 46 -200 46q-50 0 -72 -3q18 213 183 350.5t385 137.5q242 0 394 -137.5t152 -376.5v-1759h-137v1742q0 185 -116 298t-297 113q-129 0 -248.5 -74t-163.5 -189q201 -18 305 -166 q-206 -69 -204 -276q0 -148 34 -303q14 -69 14 -159q0 -110 -73 -184t-176 -74q-102 0 -174 71.5t-72 174.5zM213 216q0 -53 36 -89t88 -36q53 0 91 36t38 89q0 54 -38 91t-91 37q-54 0 -89 -38t-35 -90z" />
<glyph unicode="&#xe27;" horiz-adv-x="1269" d="M37 1121q83 394 516 394q217 0 360 -113.5t143 -321.5v-860q0 -102 -73 -176t-176 -74q-102 0 -176 73.5t-74 176.5q0 102 74 176t176 74q64 0 114 -26v612q0 337 -375 339q-296 0 -368 -274h-141zM679 220q0 -54 38 -91.5t90 -37.5q53 0 91 37.5t38 91.5t-38 91t-91 37 q-54 0 -91 -38t-37 -90z" />
<glyph unicode="&#xe28;" horiz-adv-x="1487" d="M126 966q0 246 166.5 397.5t416.5 151.5q159 0 299 -65q137 122 145 180h173q-14 -91 -205 -252q155 -126 155 -348v-1030h-136v1019q0 167 -132 269q-26 -23 -194 -148q133 -54 133 -211q0 -91 -64.5 -155.5t-155.5 -64.5q-113 0 -178 87q-53 -80 -105 -228 q-61 -181 -61 -322v-246h-137v348q0 109 -60 310.5t-60 307.5zM265 980q0 -83 31 -199q43 -167 44 -191q73 387 259 531l298 235q-90 37 -196 39q-174 0 -305 -119.5t-131 -295.5zM607 929q0 -50 34 -84.5t82 -34.5q50 0 84.5 34.5t34.5 84.5t-34.5 83t-84.5 33t-83 -34 t-33 -82z" />
<glyph unicode="&#xe29;" horiz-adv-x="1659" d="M65 1265q0 102 74 176t175 74q102 0 176 -74t74 -176v-932q0 -239 372 -239q376 0 376 239v277q-113 -25 -187 -27q-174 0 -302.5 95t-128.5 232q0 87 60 145.5t143 58.5q87 0 148 -58.5t61 -145.5q0 -133 -133 -194q46 -26 152 -26q102 0 187 37v759h135v-683 q90 68 148 174l83 -72q-54 -102 -231 -243v-340q0 -352 -507 -352q-511 0 -513 352v720q-50 -26 -113 -26q-101 0 -175 74t-74 175zM185 1265q0 -53 38 -91t91 -38q54 0 92 38t38 91q0 54 -38 92t-92 38q-53 0 -91 -38t-38 -92zM796 910q0 -42 30.5 -72.5t70.5 -30.5 q43 0 75.5 30.5t32.5 72.5q0 43 -32.5 74.5t-75.5 31.5q-42 0 -71.5 -32.5t-29.5 -73.5z" />
<glyph unicode="&#xe2a;" horiz-adv-x="1443" d="M80 1121q25 174 205 289q166 105 381 105q216 0 390 -109q80 91 104 211h135q-26 -152 -142 -298q79 -102 79 -235v-1084h-137v618q0 133 -140 213q-117 64 -272 63q-152 0 -258.5 -81.5t-106.5 -209.5v-159q54 26 126 26q105 0 177.5 -74t72.5 -176t-72.5 -176 t-177.5 -74q-117 0 -190 76t-73 178v379q0 189 152 311q141 113 337 113h24q170 140 286 272q-140 94 -305 96q-159 0 -288 -69q-141 -75 -174 -205h-133zM314 216q0 -53 36.5 -89t89.5 -36q54 0 91 36t37 89q0 54 -38 91t-90 37q-53 0 -89.5 -38t-36.5 -90zM834 1008 q159 -39 261 -133v217q0 53 -35 120q-105 -113 -226 -204z" />
<glyph unicode="&#xe2b;" horiz-adv-x="1616" d="M65 1265q0 102 74 176t175 74q102 0 176 -74t74 -176v-821q0 -33 -18 -235q46 94 83 167l307 564q54 94 124 133q-91 72 -91 192q0 102 74 176t176 74t177 -74t75 -176q0 -144 -126 -216q61 -65 61 -231v-818h-137v818q0 174 -91 175q-57 0 -136 -133l-489 -860h-126 v1042q-50 -26 -113 -26q-101 0 -175 74t-74 175zM185 1265q0 -53 38 -91t91 -38q54 0 92 38t38 91q0 54 -38 92t-92 38q-53 0 -91 -38t-38 -92zM1092 1265q0 -53 37.5 -91t89.5 -38q54 0 92 38t38 91q0 54 -38 92t-92 38q-53 0 -90 -38t-37 -92z" />
<glyph unicode="&#xe2c;" horiz-adv-x="1718" d="M65 1265q0 102 74 176t175 74q102 0 176 -74t74 -176v-893q0 -61 -11 -187q22 65 65 163l279 531h130l281 -531q11 -26 70 -163q-7 122 -7 187v670q-50 -26 -113 -26q-102 0 -176 74t-74 175q0 102 74 176t176 74q61 0 113 -29q76 33 96 148h174q-33 -141 -167 -243 q34 -68 34 -126v-1265h-167l-379 738l-379 -738h-156v1042q-50 -26 -113 -26q-101 0 -175 74t-74 175zM185 1265q0 -53 38 -91t91 -38q54 0 92 38t38 91q0 54 -38 92t-92 38q-53 0 -91 -38t-38 -92zM1128 1265q0 -53 38 -91t92 -38t92 38t38 91q0 54 -38 92t-92 38t-92 -38 t-38 -92z" />
<glyph unicode="&#xe2d;" horiz-adv-x="1465" d="M98 1121q37 178 199 286t397 108q224 0 379 -105q181 -122 181 -330v-758q-7 -352 -508 -352q-500 0 -500 352v466q0 102 74 176t176 74t176 -74t74 -176t-68 -176t-182 -74q-65 0 -113 26v-212q0 -258 372 -258q364 0 362 258v704q0 159 -133 256q-122 83 -298 83 q-155 0 -285 -72q-140 -80 -166 -202h-137zM368 788q0 -54 38 -91.5t90 -37.5q53 0 91 37.5t38 91.5t-38 92t-91 38q-54 0 -91 -38t-37 -92z" />
<glyph unicode="&#xe2e;" horiz-adv-x="1407" d="M141 1243q0 145 188 220q145 58 326 56q289 0 459 -185q61 102 64 185h145q-26 -156 -152 -294q26 -54 26 -152v-736q0 -368 -503 -367q-511 0 -513 367v353q0 102 74 176t176 74t177 -74t75 -176t-65 -176t-187 -74q-65 0 -113 26v-114q0 -258 376 -258q368 0 366 263 v768q-163 -109 -499 -109q-420 0 -420 227zM278 1243q0 -105 290 -107q285 2 466 92q-42 73 -153 123.5t-230 50.5q-133 0 -242 -39q-133 -46 -131 -120zM303 690q0 -54 38 -91.5t90 -37.5q54 0 92 37.5t38 91.5t-38 91t-92 37t-91 -38t-37 -90z" />
<glyph unicode="&#xe2f;" horiz-adv-x="1480" d="M205 1273q0 98 71.5 170t171.5 72q98 0 170 -72t72 -170q0 -83 -54 -148q209 72 261 361h137q228 0 228 -235v-1251h-137v1240q0 116 -117 123q-133 -371 -440 -370q-178 0 -270.5 78t-92.5 202zM333 1276q0 -49 30.5 -79t80.5 -30t81.5 30t31.5 79q0 50 -32.5 82.5 t-80.5 32.5q-50 0 -80.5 -32.5t-30.5 -82.5z" />
<glyph unicode="&#xe30;" horiz-adv-x="1352" d="M117 390q0 98 72 170.5t172 72.5q98 0 170 -72.5t72 -170.5q0 -129 -111 -201q61 -15 94 -15q206 7 312.5 135t113.5 335h137q-8 -257 -156 -422t-383 -165q-192 0 -325 73q-167 86 -168 260zM117 1193q0 98 72 170.5t172 72.5q98 0 170 -72.5t72 -170.5 q0 -129 -111 -200q61 -14 94 -16q206 7 312.5 135t113.5 335h137q-8 -257 -156 -422t-383 -165q-192 0 -325 72q-167 87 -168 261zM235 390q0 -53 32.5 -85.5t84.5 -32.5q53 0 87.5 32.5t34.5 85.5q0 54 -34.5 87.5t-87.5 33.5q-54 0 -85.5 -33.5t-31.5 -87.5zM235 1193 q0 -53 32.5 -84.5t84.5 -31.5q53 0 87.5 31.5t34.5 84.5q0 54 -34.5 88t-87.5 34q-54 0 -85.5 -34t-31.5 -88z" />
<glyph unicode="&#xe31;" d="M-890 2087q0 98 72 171t170 73q99 0 171 -70.5t72 -170.5q0 -129 -115 -203q54 -11 141 -11q185 4 307 148q105 133 115 322h142q-4 -257 -170.5 -422.5t-419.5 -165.5q-220 0 -352.5 91.5t-132.5 237.5zM-773 2096q0 -54 38 -88t87 -34q50 0 85.5 34t35.5 88t-36 89 t-85 35t-87 -36t-38 -88z" />
<glyph unicode="&#xe32;" horiz-adv-x="1196" d="M91 1114q3 159 126 280t318 121q220 0 334.5 -105.5t114.5 -281.5v-1128h-135v1132q0 113 -85 188t-233 75q-133 0 -212.5 -90t-87.5 -191h-140z" />
<glyph unicode="&#xe33;" horiz-adv-x="1196" d="M-614 2039q0 122 85 207t207 85t205.5 -85t83.5 -207t-84.5 -205.5t-204.5 -83.5q-122 0 -207 83.5t-85 205.5zM-488 2039q0 -69 49 -116t117 -47q65 0 114 47t49 116q0 68 -49 117t-114 49q-68 0 -117 -49t-49 -117zM91 1114q3 159 126 280t318 121q220 0 334.5 -105.5 t114.5 -281.5v-1128h-135v1132q0 113 -85 188t-233 75q-133 0 -212.5 -90t-87.5 -191h-140z" />
<glyph unicode="&#xe34;" d="M-1308 1857q4 197 165 319q144 109 344 109q512 0 610 -561q-436 156 -819 156q-137 0 -300 -23zM-1153 1974q80 11 180 11q364 0 636 -117q-166 308 -459 308q-264 0 -357 -202z" />
<glyph unicode="&#xe35;" d="M-1308 1857q4 197 165 319q144 109 344 109q303 0 462 -202v368h124v-625q17 -48 24 -102q-436 156 -819 156q-137 0 -300 -23zM-1153 1974q80 11 180 11q364 0 636 -117q-166 308 -459 308q-264 0 -357 -202z" />
<glyph unicode="&#xe36;" d="M-1308 1857q4 197 165 319q144 109 344 109q205 0 351 -98q-11 29 -11 59q0 76 55.5 131.5t131.5 55.5t130.5 -55.5t54.5 -131.5t-54.5 -130.5t-130.5 -54.5q-18 0 -50 7q96 -131 133 -344q-436 156 -819 156q-137 0 -300 -23zM-1153 1974q80 11 180 11q364 0 636 -117 q-166 308 -459 308q-264 0 -357 -202zM-372 2246q0 -43 29 -70.5t71 -27.5q43 0 70.5 27.5t27.5 70.5q0 42 -28.5 71t-69.5 29q-42 0 -71 -29t-29 -71z" />
<glyph unicode="&#xe37;" d="M-1308 1857q4 197 165 319q144 109 344 109q87 0 159 -15v181h124v-227q105 -50 179 -141v368h124v-625q17 -48 24 -102q-436 156 -819 156q-137 0 -300 -23zM-1153 1974q80 11 180 11q364 0 636 -117q-166 308 -459 308q-264 0 -357 -202z" />
<glyph unicode="&#xe38;" d="M-614 -383q0 83 59 142.5t142 59.5q84 0 142 -59.5t58 -142.5v-496h-131v307q-30 -11 -69 -11q-83 0 -142 58.5t-59 141.5zM-511 -379q0 -43 28 -70.5t70 -27.5q43 0 71 27.5t28 70.5q0 42 -29 70t-70 28q-42 0 -70 -28t-28 -70z" />
<glyph unicode="&#xe39;" d="M-1012 -383q0 83 59 142.5t143 59.5q83 0 141.5 -59.5t58.5 -142.5v-340q0 -87 133 -87q129 0 129 87v527h135v-498q0 -235 -272 -235q-257 0 -257 228v129q-29 -11 -68 -11q-84 0 -143 58.5t-59 141.5zM-910 -379q0 -43 28.5 -70.5t71.5 -27.5q42 0 70 27.5t28 70.5 q0 42 -29 70t-69 28q-43 0 -71.5 -28t-28.5 -70z" />
<glyph unicode="&#xe3a;" d="M-383 -261q0 43 30.5 70.5t71.5 27.5q42 0 71 -27.5t29 -70.5q0 -42 -29 -72.5t-71 -30.5q-43 0 -72.5 30.5t-29.5 72.5z" />
<glyph unicode="&#xe3f;" horiz-adv-x="1555" d="M285 117v1554q213 49 344 49h26v261h126v-268q423 -57 423 -401q0 -254 -242 -361q117 -43 205 -137q102 -113 102 -261q0 -398 -488 -459v-318h-126v307h-59q-141 0 -311 34zM427 224q73 -19 198 -19q206 0 341 76q166 91 166 268q0 171 -142 261q-130 76 -339 76h-224 v-662zM427 1012h267q174 0 272 85t98 211q0 155 -143 229q-116 61 -292 61q-76 0 -202 -26v-560z" />
<glyph unicode="&#xe40;" horiz-adv-x="767" d="M202 235v1280h135v-1056q53 29 122 29q105 0 179 -74t74 -179t-74 -181t-179 -76q-117 0 -194 83q-65 72 -63 174zM329 235q0 -54 38 -92t92 -38q53 0 90 38t37 92t-37.5 91.5t-89.5 37.5q-54 0 -92 -37.5t-38 -91.5z" />
<glyph unicode="&#xe41;" horiz-adv-x="1428" d="M202 235v1280h135v-1056q53 29 122 29q105 0 179 -74t74 -179t-74 -181t-179 -76q-117 0 -194 83q-65 72 -63 174zM329 235q0 -54 38 -92t92 -38q53 0 90 38t37 92t-37.5 91.5t-89.5 37.5q-54 0 -92 -37.5t-38 -91.5zM857 235v1280h136v-1056q54 29 121 29q105 0 179 -74 t74 -179t-74 -181t-179 -76q-117 0 -193 83q-64 72 -64 174zM984 235q0 -54 38 -92t92 -38q53 0 91 38t38 92t-38 91.5t-91 37.5q-54 0 -92 -37.5t-38 -91.5z" />
<glyph unicode="&#xe42;" horiz-adv-x="897" d="M-148 2111q18 357 350 355q61 0 197 -58t180 -58q69 0 83 94l115 -30q-54 -188 -178 -190q-61 0 -203.5 63t-206.5 63q-167 0 -178 -141q451 -133 451 -420v-1338q54 30 121 30q105 0 182 -74t77 -179q0 -106 -76 -182t-183 -76q-122 0 -193 84q-64 72 -64 174v1576 q0 105 -163 204t-311 103zM459 228q0 -54 36 -92t88 -38q53 0 93 38t40 92q0 53 -40 91t-93 38q-50 0 -87 -38t-37 -91z" />
<glyph unicode="&#xe43;" horiz-adv-x="915" d="M-159 2122q0 155 110 261.5t295 106.5q137 0 245 -86t108 -217q0 -80 -59 -220.5t-59 -216.5v-1299q54 30 126 30q102 0 177.5 -74t75.5 -179q0 -106 -75.5 -182t-177.5 -76q-122 0 -198 84q-65 72 -65 174v1550q0 65 35 146q80 192 80 239q0 94 -65 155t-159 61 q-141 0 -217 -87q102 15 170.5 -45t68.5 -160q0 -87 -60 -147t-143 -60q-84 0 -148.5 60t-64.5 182zM-57 2087q0 -43 28.5 -74.5t78.5 -31.5t77.5 31.5t27.5 74.5q0 42 -28.5 74.5t-76.5 32.5q-50 0 -78.5 -32.5t-28.5 -74.5zM477 228q0 -54 36 -92t90 -38t92.5 38t38.5 92 q0 53 -39.5 91t-91.5 38q-50 0 -88 -38t-38 -91z" />
<glyph unicode="&#xe44;" horiz-adv-x="923" d="M-133 2520h118q61 -330 72 -496l311 457q50 -4 85 -45.5t35 -85.5v-1899q54 30 126 30q102 0 178 -74t76 -179q0 -106 -76 -182t-178 -76q-122 0 -198 84q-64 72 -64 174v2049l-272 -394l-126 45q-19 253 -87 592zM481 228q0 -54 38 -92t91 -38q54 0 91 38t37 92 q0 53 -38 91t-90 38q-53 0 -91 -38t-38 -91z" />
<glyph unicode="&#xe45;" horiz-adv-x="775" d="M-329 1114q3 159 126 280t316 121q220 0 335.5 -105.5t115.5 -281.5v-1886h-137v1890q0 113 -85 188t-233 75q-133 0 -211.5 -90t-86.5 -191h-140z" />
<glyph unicode="&#xe46;" horiz-adv-x="1511" d="M231 1080q-11 376 348 485l187 -126l174 126q325 -126 325 -429v-1780h-140v1780q0 192 -174 300l-178 -137l-209 140q-159 -68 -181 -279q57 37 117 37q98 0 166 -68.5t68 -166.5t-67.5 -164.5t-166.5 -66.5q-117 0 -191 87t-78 262zM390 962q0 -50 30.5 -79.5 t79.5 -29.5t81.5 29.5t32.5 79.5t-32.5 82.5t-81.5 32.5q-50 0 -80 -32.5t-30 -82.5z" />
<glyph unicode="&#xe47;" d="M-1106 2039q0 296 322 296h249q185 0 198 272h128q0 -163 -83.5 -273t-245.5 -110h-261q-181 0 -181 -174q0 -83 40 -148q95 105 194 122q65 -57 185 -137q-3 30 -3 50q0 76 51 127t126 51q76 0 129 -53t53 -125q0 -83 -58.5 -137t-134.5 -54q-159 0 -364 163 q-102 -33 -193 -166q-151 94 -151 296zM-470 1937q0 -33 25 -59t58 -26q34 0 59 26t25 59t-24.5 58t-59.5 25q-33 0 -58 -25t-25 -58z" />
<glyph unicode="&#xe48;" d="M-337 2577v420h124v-420h-124z" />
<glyph unicode="&#xe49;" d="M-705 2975q0 79 57.5 135.5t136.5 56.5q76 0 129 -52.5t60 -139.5q0 -189 -170 -311q451 37 510 466h141q-54 -325 -281 -459q-181 -105 -503 -107h-69v72q126 54 178 148q-76 0 -132.5 55.5t-56.5 135.5zM-607 2975q0 -37 27 -62t64 -25t63 25t26 62t-25 63.5t-64 26.5 q-37 0 -64 -26.5t-27 -63.5z" />
<glyph unicode="&#xe4a;" d="M-849 2799q0 141 89.5 249t210.5 108l90 -113l83 113q113 -4 179.5 -78t66.5 -186q0 -137 -83 -224q87 7 159 109q95 129 97 346h120q-11 -564 -546 -566v83q152 76 152 244q0 130 -126 167l-105 -119l-106 119q-37 -4 -91 -43q-42 -30 -57 -79q19 7 36.5 10.5t35.5 3.5 q80 0 134.5 -56.5t54.5 -135.5q0 -80 -54.5 -135.5t-134.5 -55.5q-98 0 -151.5 65t-53.5 174zM-734 2747q0 -37 25.5 -62t64.5 -25q37 0 62 25t25 62t-25 64t-62 27t-63.5 -27t-26.5 -64z" />
<glyph unicode="&#xe4b;" d="M-535 2725v105h202v163h117v-163h201v-105h-201v-148h-117v148h-202z" />
<glyph unicode="&#xe4c;" d="M-675 2581q0 249 259 322l166 48q91 29 91 107h116q-11 -122 -120 -174q-61 -33 -170 -57q-105 -19 -133 -50q79 -8 132 -62.5t53 -133.5q0 -83 -56.5 -139t-136.5 -56q-83 0 -142 56t-59 139zM-568 2577q0 -37 28.5 -68.5t69.5 -31.5q37 0 65.5 31.5t28.5 68.5 t-27.5 67.5t-66.5 30.5q-42 0 -70 -30.5t-28 -67.5z" />
<glyph unicode="&#xe4d;" d="M-614 2039q0 122 85 207t207 85t205.5 -85t83.5 -207t-84.5 -205.5t-204.5 -83.5q-122 0 -207 83.5t-85 205.5zM-488 2039q0 -69 49 -116t117 -47q65 0 114 47t49 116q0 68 -49 117t-114 49q-68 0 -117 -49t-49 -117z" />
<glyph unicode="&#xe4e;" d="M-751 1955q0 95 76 159.5t172 64.5q-76 50 -76 143q0 220 290 220q104 0 172 -26l-35 -94q-64 18 -140 18q-174 0 -174 -118q0 -126 188 -146l-33 -89q-46 15 -90 16q-106 0 -172.5 -48t-66.5 -103q0 -102 170 -104q50 0 122 32l4 -95q-72 -29 -176 -31 q-94 0 -162.5 55.5t-68.5 145.5z" />
<glyph unicode="&#xe4f;" horiz-adv-x="1703" d="M213 618q0 264 185 452t455 188q261 0 450.5 -189.5t189.5 -450.5q0 -268 -188 -454t-452 -186q-268 0 -454 185t-186 455zM344 618q0 -217 146 -365t363 -148q213 0 360 150t147 363t-148 360t-359 147q-213 0 -361 -147t-148 -360zM477 618q0 155 110 265t266 110 q155 0 265 -110t110 -265q0 -156 -110 -267.5t-265 -111.5q-156 0 -266 111.5t-110 267.5zM610 618q0 -102 70.5 -172t172.5 -70t172 70t70 172q0 98 -70 170t-172 72t-172.5 -72t-70.5 -170z" />
<glyph unicode="&#xe50;" horiz-adv-x="1700" d="M144 546q0 242 191.5 406.5t513.5 164.5t515.5 -164.5t193.5 -406.5q0 -243 -193.5 -407.5t-515.5 -164.5t-513.5 164.5t-191.5 407.5zM285 546q0 -193 152.5 -322.5t407.5 -129.5q254 0 407.5 129.5t153.5 322.5q0 192 -153.5 323.5t-407.5 131.5q-253 0 -406.5 -131.5 t-153.5 -323.5z" />
<glyph unicode="&#xe51;" horiz-adv-x="1700" d="M137 507q0 285 199 446t474 161q365 0 560 -183.5t195 -460.5q0 -344 -187 -542h-166q216 177 216 516q0 242 -159 397.5t-455 155.5q-224 0 -383 -137t-159 -357q0 -181 106.5 -296.5t272.5 -115.5q217 0 307 198q-68 -30 -127 -32q-109 0 -182.5 70.5t-73.5 175.5 q0 109 79.5 182t183.5 73q130 0 201 -87.5t71 -211.5q0 -185 -109 -326q-130 -163 -383 -163q-220 0 -357 167q-126 152 -124 370zM690 503q0 -65 40 -103.5t104 -38.5q65 0 105.5 38.5t40.5 103.5t-41.5 106.5t-104.5 41.5q-64 0 -104 -41.5t-40 -106.5z" />
<glyph unicode="&#xe52;" horiz-adv-x="1700" d="M61 1610v133q231 -19 231 -246v-990q0 -427 605 -427q542 0 542 455q0 231 -51 355q-47 102 -112 103q-79 0 -130 -64.5t-58 -155.5h-87q-30 224 -191 224q-181 0 -207 -183q26 15 94 17q95 0 165 -70.5t70 -164.5q0 -95 -72 -165t-163 -70q-109 0 -181 87t-72 238 q0 182 92.5 305t266.5 123q170 0 242 -182q61 182 220 182q134 0 217 -134q90 -146 90 -427q0 -599 -678 -599q-735 0 -735 573v970q0 109 -98 113zM572 596q0 -50 38 -88t87 -38q54 0 89 38t35 88q0 53 -35 88.5t-89 35.5q-49 0 -87 -36t-38 -88z" />
<glyph unicode="&#xe53;" horiz-adv-x="1700" d="M130 507q0 607 442 607q257 0 357 -239q87 239 296 239q159 0 253 -104.5t94 -286.5v-723h-133v712q0 130 -58 209.5t-156 79.5q-87 0 -155.5 -95.5t-68.5 -208.5v-697h-141v701q0 113 -95 206.5t-204 93.5q-141 0 -224 -137q-72 -122 -72 -322q0 -65 13 -129 q57 79 177 79q102 0 174 -76t72 -177q0 -102 -72 -174t-192 -72q-145 0 -226 142.5t-81 371.5zM296 242q0 -61 41.5 -102.5t102.5 -41.5t102 41.5t41 102.5t-41.5 103t-101.5 42q-61 0 -102.5 -42t-41.5 -103z" />
<glyph unicode="&#xe54;" horiz-adv-x="1700" d="M109 520q0 288 195.5 444.5t520.5 156.5q365 0 490 57q243 113 291 391h129q-87 -398 -383 -516q-144 -58 -531 -56q-560 0 -560 -490q0 -196 99 -310t269 -114q220 0 416 58q-459 122 -449 423q3 106 76.5 172.5t176.5 66.5q109 0 179.5 -70.5t70.5 -179.5 q0 -79 -53 -151.5t-132 -87.5q98 -68 287 -109q98 -22 229 -59t211 -78l-69 -111q-205 91 -336 93q-87 0 -270 -39q-193 -37 -337 -41q-239 -7 -379.5 142t-140.5 408zM709 553q0 -61 41.5 -102.5t98.5 -41.5t99 43.5t42 100.5q0 61 -40 102.5t-101 41.5t-100.5 -43.5 t-39.5 -100.5z" />
<glyph unicode="&#xe55;" horiz-adv-x="1700" d="M109 520q0 288 195.5 444.5t529.5 156.5q-148 65 -148 224q0 102 72.5 174t170.5 72q101 0 173.5 -72t72.5 -174q0 -155 -145 -220q202 15 285 53q243 113 291 391h129q-87 -398 -383 -516q-144 -58 -531 -56q-560 0 -560 -490q0 -196 99 -310t269 -114q220 0 416 58 q-459 122 -449 423q3 106 76.5 172.5t176.5 66.5q109 0 179.5 -70.5t70.5 -179.5q0 -79 -53 -151.5t-132 -87.5q98 -68 287 -109q98 -22 229 -59t211 -78l-69 -111q-205 91 -336 93q-87 0 -270 -39q-193 -37 -337 -41q-239 -7 -379.5 142t-140.5 408zM709 553 q0 -61 41.5 -102.5t98.5 -41.5t99 43.5t42 100.5q0 61 -40 102.5t-101 41.5t-100.5 -43.5t-39.5 -100.5zM799 1345q0 -50 40 -90t90 -40q53 0 92 38t39 92t-40 93.5t-91 39.5q-54 0 -92 -39.5t-38 -93.5z" />
<glyph unicode="&#xe56;" horiz-adv-x="1700" d="M68 1569h163q145 -265 148 -614q202 159 489 159q344 0 531 -134q196 -144 196 -397q3 -614 -753 -613q-278 0 -426 96.5t-148 255.5q0 109 74 181t182 72q109 0 181 -72t72 -181q0 -144 -118 -217q112 -14 216 -14q289 3 434 117t145 367q0 189 -150.5 305.5 t-406.5 116.5q-405 0 -608 -285q-23 576 -221 857zM379 322q0 -65 40 -104.5t105 -39.5q64 0 105 39.5t41 104.5t-42 106.5t-104 41.5q-65 0 -105 -41.5t-40 -106.5z" />
<glyph unicode="&#xe57;" horiz-adv-x="1700" d="M91 496q0 285 100.5 451.5t263.5 166.5q209 0 287 -239q57 239 266 239q322 0 322 -470q0 -254 -94 -492q227 53 227 618q0 654 48 799h141q-68 -167 -65 -611v-133q0 -538 -153.5 -685t-360.5 -147h-20q144 383 144 651q0 357 -196 357q-76 0 -131.5 -95.5t-55.5 -208.5 v-177h-144v181q0 109 -67.5 204.5t-147.5 95.5q-102 0 -166.5 -125t-64.5 -327q0 -83 11 -140q57 83 174 83q105 0 179 -76t74 -181q0 -102 -75.5 -174t-177.5 -72q-152 0 -235 134t-83 373zM268 235q0 -54 44.5 -97.5t96.5 -43.5q61 0 104.5 42t43.5 99q0 68 -45.5 108 t-102.5 40t-99 -43.5t-42 -104.5z" />
<glyph unicode="&#xe58;" horiz-adv-x="1700" d="M122 538q0 576 685 576q57 0 147.5 -7.5t137.5 -7.5q162 0 238 72q98 94 98 333v65h133v-76q0 -527 -451 -527q-68 0 -172 7t-161 7q-253 0 -382.5 -117t-129.5 -310q0 -272 92 -364q155 212 352 285q53 -102 192 -221q170 -148 292 -148q145 0 217 104q-69 -11 -84 -13 q-105 0 -179 74t-74 181q0 106 73 180t180 74q106 0 180 -74t74 -180q0 -469 -376 -469q-277 0 -529 325q-50 -22 -162 -151.5t-126 -188.5q-265 133 -265 571zM1186 451q0 -57 41.5 -98.5t98.5 -41.5q58 0 99.5 41.5t41.5 98.5q0 58 -41.5 98.5t-99.5 40.5 q-57 0 -98.5 -41.5t-41.5 -97.5z" />
<glyph unicode="&#xe59;" horiz-adv-x="1700" d="M98 546q0 250 144.5 410.5t353.5 160.5q216 0 351 -188q15 185 148 185q33 0 130.5 -58.5t137.5 -58.5q123 0 123 215q0 205 -32 357h115q29 -193 29 -344q0 -348 -203 -350q-43 0 -158.5 61t-126.5 61q-57 0 -76 -140q26 -152 159 -365q174 -257 387 -431l-72 -104 q-170 134 -372 426q-159 227 -231 413q-26 68 -113 134.5t-193 70.5q-133 0 -248.5 -137t-115.5 -337q26 -281 192 -386q-14 42 -14 94q0 102 72 176t174 74q101 0 176 -74t75 -176t-74 -174t-177 -72q-272 -4 -416.5 149.5t-144.5 407.5zM520 235q0 -57 41.5 -99t97.5 -42 q57 0 98.5 42t41.5 99t-41.5 99t-98.5 42q-58 0 -98.5 -42t-40.5 -99z" />
<glyph unicode="&#xe5a;" horiz-adv-x="1977" d="M205 1273q0 98 71.5 170t171.5 72q98 0 170 -72t72 -170q0 -83 -54 -148q209 72 261 361h137q228 0 228 -235v-58q101 98 140 293h135q228 0 228 -235v-1251h-135v1240q0 116 -119 123q-83 -249 -249 -333v-1030h-137v1240q0 116 -117 123q-133 -371 -440 -370 q-178 0 -270.5 78t-92.5 202zM333 1276q0 -49 30.5 -79t80.5 -30t81.5 30t31.5 79q0 50 -32.5 82.5t-80.5 32.5q-50 0 -80.5 -32.5t-30.5 -82.5z" />
<glyph unicode="&#xe5b;" horiz-adv-x="2639" d="M292 694q0 285 117.5 439.5t328.5 154.5q170 0 269 -104t99 -287q0 -163 -64 -272q-80 -137 -232 -137q-83 0 -143 63t-60 146q0 87 58 147.5t145 60.5q98 0 163 -74v7q7 37 7 91q0 242 -229 242q-155 0 -239.5 -133t-84.5 -363q0 -209 104.5 -334t267.5 -125 q224 0 343.5 163t119.5 463q0 116 -11 177q212 -42 283 -401q33 109 35 213q0 72 -32 181q159 -46 278 -329q18 94 18 138q0 34 -18 141q163 -46 242 -318q37 50 39 133q0 46 -13 102q19 -4 163 -106q129 -94 270 -94h18q-75 -43 -155 -43q-126 0 -220 95 q-22 -182 -105 -207q-34 0 -76 124q-54 159 -80 186q0 -347 -102 -349q-22 0 -64 137q-47 151 -80 192q-22 -372 -144 -370q-22 0 -65 146q-54 189 -80 224q0 -723 -564 -723q-235 0 -371 162.5t-136 440.5zM557 1212q0 -26 22 -26q24 0 24 18h-7q0 -14 -17 -14 q-15 0 -15 22t15 24q11 0 17 -17h7q-7 19 -24 21q-22 0 -22 -28zM610 1186h8v26h26v-26h7v54h-7v-25h-26v25h-8v-54zM662 1186h35v7h-27v47h-8v-54zM705 697q0 -42 32.5 -74.5t72.5 -32.5q43 0 75.5 32.5t32.5 74.5q0 43 -32.5 74.5t-75.5 31.5q-42 0 -73.5 -32.5 t-31.5 -73.5zM705 1186h7v22h11q19 2 19 17t-19 15h-18v-54zM712 1212v24h11q11 0 11 -11t-11 -13h-11zM770 1204q0 -18 18 -18q19 0 19 15q-11 11 -30 24q0 11 11 11q8 -8 8 -11h7q0 15 -15 15q-18 0 -18 -15q11 -11 29 -24q0 -11 -11 -11t-11 14h-7zM814 1186h7v22h13 q19 2 19 17t-19 15h-20v-54zM821 1212v24h13q11 0 11 -11t-11 -13h-13zM864 1186h7v18l8 8l11 -26h11l-19 29l19 25h-11l-19 -28v28h-7v-54z" />
<glyph unicode="&#x2000;" horiz-adv-x="1583" />
<glyph unicode="&#x2001;" horiz-adv-x="3167" />
<glyph unicode="&#x2002;" horiz-adv-x="1583" />
<glyph unicode="&#x2003;" horiz-adv-x="3167" />
<glyph unicode="&#x2004;" horiz-adv-x="1055" />
<glyph unicode="&#x2005;" horiz-adv-x="791" />
<glyph unicode="&#x2006;" horiz-adv-x="527" />
<glyph unicode="&#x2007;" horiz-adv-x="527" />
<glyph unicode="&#x2008;" horiz-adv-x="395" />
<glyph unicode="&#x2009;" horiz-adv-x="633" />
<glyph unicode="&#x200a;" horiz-adv-x="175" />
<glyph unicode="&#x200c;" d="M-54 -583v2033h111v-2033h-111z" />
<glyph unicode="&#x200d;" d="M-192 1103l138 140l-138 148l66 59l126 -138l130 138l66 -59l-139 -148l139 -140l-66 -65l-73 76v-1697h-111v1697l-76 -76z" />
<glyph unicode="&#x200e;" d="M-54 -583v1902h478l-63 69l59 59l198 -196l-198 -198l-59 64l63 69h-367v-1769h-111z" />
<glyph unicode="&#x200f;" d="M-614 1251l198 196q7 -11 25.5 -29.5t33.5 -29.5l-63 -69h477v-1902h-111v1769h-366l63 -69l-59 -64z" />
<glyph unicode="&#x2010;" horiz-adv-x="817" d="M76 625v126h662v-126h-662z" />
<glyph unicode="&#x2011;" horiz-adv-x="817" d="M76 625v126h662v-126h-662z" />
<glyph unicode="&#x2012;" horiz-adv-x="817" d="M76 625v126h662v-126h-662z" />
<glyph unicode="&#x2013;" horiz-adv-x="1363" d="M80 625v126h1200v-126h-1200z" />
<glyph unicode="&#x2014;" horiz-adv-x="2726" d="M83 625v126h2550v-126h-2550z" />
<glyph unicode="&#x2018;" horiz-adv-x="934" d="M278 1413q0 228 146 402q83 98 155 137l57 -65q-212 -137 -227 -340q22 3 18 3q54 0 95.5 -41.5t41.5 -95.5q0 -61 -41.5 -104.5t-98.5 -43.5q-61 0 -103.5 43.5t-42.5 104.5z" />
<glyph unicode="&#x2019;" horiz-adv-x="934" d="M278 1284q212 137 225 342q-22 -4 -18 -4q-54 0 -95.5 42t-41.5 94q0 61 41.5 104.5t98.5 43.5q65 0 106.5 -42t41.5 -106q0 -228 -144 -402q-87 -98 -159 -137z" />
<glyph unicode="&#x201a;" horiz-adv-x="934" d="M278 -357q212 137 225 342q-15 -3 -26 -3q-64 0 -96.5 41.5t-32.5 93.5q0 61 41.5 104.5t98.5 43.5q65 0 106.5 -42t41.5 -106q0 -228 -144 -402q-87 -98 -159 -135z" />
<glyph unicode="&#x201c;" horiz-adv-x="1400" d="M296 1413q0 228 148 402q83 98 155 137l56 -65q-213 -137 -228 -340q23 3 21 3q53 0 94 -41.5t41 -95.5q0 -61 -41.5 -104.5t-97.5 -43.5q-61 0 -104.5 43.5t-43.5 104.5zM734 1413q0 228 148 402q84 98 156 137l57 -65q-213 -137 -227 -340q22 3 18 3q54 0 95.5 -41.5 t41.5 -95.5q0 -61 -41.5 -104.5t-99.5 -43.5q-61 0 -104.5 43.5t-43.5 104.5z" />
<glyph unicode="&#x201d;" horiz-adv-x="1400" d="M296 1284q213 137 228 342q-23 -4 -21 -4q-53 0 -94 42t-41 94q0 61 41.5 104.5t97.5 43.5q65 0 106.5 -42t41.5 -106q0 -228 -144 -402q-87 -98 -159 -137zM734 1284q213 137 228 342q-22 -4 -18 -4q-54 0 -95.5 42t-41.5 94q0 61 41.5 104.5t98.5 43.5q65 0 106.5 -42 t41.5 -106q0 -228 -144 -402q-87 -98 -159 -137z" />
<glyph unicode="&#x201e;" horiz-adv-x="1400" d="M296 -357q213 137 228 342q-15 -3 -28 -3q-65 0 -96.5 41.5t-31.5 93.5q0 61 41.5 104.5t97.5 43.5q65 0 106.5 -42t41.5 -106q0 -228 -144 -402q-87 -98 -159 -135zM734 -357q213 137 228 342q-15 -3 -26 -3q-65 0 -97 41.5t-32 93.5q0 61 41.5 104.5t98.5 43.5 q65 0 106.5 -42t41.5 -106q0 -228 -144 -402q-87 -98 -159 -135z" />
<glyph unicode="&#x2020;" horiz-adv-x="1415" d="M148 1095v124l492 -15v592h137v-592l492 15v-124l-492 15v-1240h-137v1240z" />
<glyph unicode="&#x2021;" horiz-adv-x="1415" d="M148 424v125l492 -14v575l-492 -15v124l492 -15v592h137v-592l492 15v-124l-492 15v-575l492 14v-125l-492 16v-570h-137v570z" />
<glyph unicode="&#x2022;" horiz-adv-x="817" d="M91 758q0 134 90.5 226.5t227.5 92.5q133 0 225.5 -94.5t92.5 -224.5q0 -133 -92.5 -225.5t-225.5 -92.5t-225.5 92.5t-92.5 225.5z" />
<glyph unicode="&#x2026;" horiz-adv-x="1813" d="M174 105q0 54 38 94t91 40q54 0 94 -40t40 -94q0 -53 -40 -90t-94 -37q-53 0 -91 38t-38 89zM781 105q0 54 38 94t91 40q54 0 93 -40t39 -94q0 -53 -40 -90t-92 -37q-53 0 -91 38t-38 89zM1384 105q0 54 37 94t90 40q54 0 94 -40t40 -94q0 -53 -40 -90t-94 -37 q-53 0 -90 38t-37 89z" />
<glyph unicode="&#x202f;" horiz-adv-x="633" />
<glyph unicode="&#x2030;" horiz-adv-x="3139" d="M130 1265q0 539 405 539t405 -539q0 -538 -405 -538t-405 538zM265 1265q0 -416 270 -416q268 0 268 416q0 417 -268 417q-269 0 -270 -417zM470 -33l1099 1837h129l-1099 -1837h-129zM1258 527q0 539 405 537q405 2 405 -537q0 -538 -405 -538t-405 538zM1395 527 q0 -416 268 -418q268 2 268 418q0 417 -268 417t-268 -417zM2198 527q0 539 405 537q405 2 405 -537q0 -538 -405 -538t-405 538zM2335 527q0 -416 268 -418q268 2 268 418q0 417 -268 417t-268 -417z" />
<glyph unicode="&#x2032;" horiz-adv-x="473" d="M57 1406l145 398h207l-250 -398h-102z" />
<glyph unicode="&#x2033;" horiz-adv-x="810" d="M57 1406l145 398h207l-250 -398h-102zM394 1406l144 398h208l-250 -398h-102z" />
<glyph unicode="&#x2039;" horiz-adv-x="691" d="M43 670l416 501h159l-416 -501l420 -489h-160z" />
<glyph unicode="&#x203a;" horiz-adv-x="691" d="M72 181l420 489l-416 501h159l416 -501l-420 -489h-159z" />
<glyph unicode="&#x2044;" horiz-adv-x="612" d="M-137 0l751 1804h137l-751 -1804h-137z" />
<glyph unicode="&#x205f;" horiz-adv-x="791" />
<glyph unicode="&#x20a3;" horiz-adv-x="1363" d="M-50 357v117h278v1330h1019v-126h-871v-685h814v-125h-814v-394h506v-117h-506v-357h-148v357h-278z" />
<glyph unicode="&#x20ab;" horiz-adv-x="1518" d="M87 -292h1334v-117h-1334v117zM105 659q0 285 155.5 470.5t425.5 185.5q326 0 489 -273v571h-492v126h492v174h148v-174h181v-126h-181v-1299q0 -216 11 -314h-137q-7 98 -7 228q-174 -261 -481 -261q-278 0 -441 190.5t-163 501.5zM250 655q0 -564 477 -564 q189 0 318.5 122t129.5 303v215q0 209 -140.5 337.5t-322.5 128.5q-220 0 -341 -151.5t-121 -390.5z" />
<glyph unicode="&#x20ac;" horiz-adv-x="1537" d="M0 568v122h105q-18 113 -18 215q0 87 11 168h-98v120h126q79 289 300.5 463t517.5 174q292 0 492 -95l-45 -122q-205 87 -440 89q-228 0 -411 -137t-259 -372h951v-120h-982q-11 -80 -11 -172q0 -113 22 -211h971v-122h-936q83 -216 262.5 -341t392.5 -125q235 0 440 87 l45 -121q-202 -94 -492 -94q-285 0 -500.5 161t-302.5 433h-141z" />
<glyph unicode="&#x2113;" horiz-adv-x="791" d="M83 773l185 128v477q0 318 198 320q106 0 161.5 -77.5t55.5 -210.5q0 -209 -74 -354.5t-211 -234.5v-571q0 -122 76 -120q68 0 205 94v-141q-76 -42 -142.5 -68t-105.5 -26q-163 0 -163 264v493l-116 -80zM398 977q87 79 125 180t38 227q0 83 -17 139.5t-70 56.5 q-76 0 -76 -202v-401z" />
<glyph unicode="&#x2122;" horiz-adv-x="1912" d="M54 1758v107h771v-107h-329v-840h-113v840h-329zM849 918l65 947h124l311 -801l310 801h126l63 -947h-116l-47 749l-294 -749h-83l-296 749l-46 -749h-117z" />
<glyph unicode="&#x2126;" horiz-adv-x="1714" d="M133 0v126h439v222q-152 61 -273 241.5t-121 407.5q0 333 185.5 514.5t493.5 181.5q307 0 492 -181.5t185 -514.5q0 -227 -121.5 -407.5t-272.5 -241.5v-222h440v-126h-575v437q383 181 383 571q0 246 -150 401.5t-381 155.5q-232 0 -381.5 -155.5t-149.5 -401.5 q0 -390 383 -571v-437h-576z" />
<glyph unicode="&#x212e;" horiz-adv-x="1185" d="M117 758q0 345 140.5 520.5t345.5 175.5q228 0 342.5 -187t123.5 -533h-801q8 -333 92 -484.5t243 -151.5q113 0 194.5 76t107.5 216h140q-90 -416 -442 -416q-239 0 -362.5 195t-123.5 589zM272 845h660q-18 239 -102 362t-227 123q-152 0 -231.5 -123t-99.5 -362z" />
<glyph unicode="&#x2153;" horiz-adv-x="2029" d="M113 1523l270 238q79 -7 79 -105v-860h163v-91h-462v91h166v762l-144 -126zM427 -33l1077 1802h126l-1077 -1802h-126zM1262 72l57 120q87 -72 200 -70q140 0 220 71.5t80 185.5q0 167 -160 167q-105 0 -166 -54l-54 94q189 134 213 152q87 72 87 141q0 76 -126 76 q-170 0 -218 -167l-111 57q102 235 342 235q239 0 239 -198q0 -68 -53.5 -140t-118.5 -98q251 -37 251 -261q0 -174 -113.5 -278.5t-300.5 -108.5q-167 -3 -268 76z" />
<glyph unicode="&#x2154;" horiz-adv-x="2029" d="M61 705q7 155 261 398q102 94 199 196.5t97 204.5q0 163 -163 163q-181 0 -202 -209l-127 24q15 144 101.5 223.5t216.5 79.5q137 0 222 -74t85 -207q0 -155 -205 -368q-156 -159 -296 -315h512l-16 -116h-685zM427 -33l1077 1802h126l-1077 -1802h-126zM1262 72l57 120 q87 -72 200 -70q140 0 220 71.5t80 185.5q0 167 -160 167q-105 0 -166 -54l-54 94q189 134 213 152q87 72 87 141q0 76 -126 76q-170 0 -218 -167l-111 57q102 235 342 235q239 0 239 -198q0 -68 -53.5 -140t-118.5 -98q251 -37 251 -261q0 -174 -113.5 -278.5 t-300.5 -108.5q-167 -3 -268 76z" />
<glyph unicode="&#x2155;" horiz-adv-x="2029" d="M113 1523l270 238q79 -7 79 -105v-860h163v-91h-462v91h166v762l-144 -126zM427 -33l1077 1802h126l-1077 -1802h-126zM1243 80l52 94q61 -37 116.5 -56.5t118.5 -19.5q109 0 197 72t88 198q0 94 -72 147t-163 53q-83 0 -141 -76l-79 -4l35 565h518l-15 -117h-379 l-19 -246q26 7 51 7h55q152 0 245 -96t93 -229q0 -178 -117.5 -288t-311.5 -110q-170 0 -272 106z" />
<glyph unicode="&#x2156;" horiz-adv-x="2029" d="M61 705q7 155 261 398q102 94 199 196.5t97 204.5q0 163 -163 163q-181 0 -202 -209l-127 24q15 144 101.5 223.5t216.5 79.5q137 0 222 -74t85 -207q0 -155 -205 -368q-156 -159 -296 -315h512l-16 -116h-685zM427 -33l1077 1802h126l-1077 -1802h-126zM1243 80l52 94 q61 -37 116.5 -56.5t118.5 -19.5q109 0 197 72t88 198q0 94 -72 147t-163 53q-83 0 -141 -76l-79 -4l35 565h518l-15 -117h-379l-19 -246q26 7 51 7h55q152 0 245 -96t93 -229q0 -178 -117.5 -288t-311.5 -110q-170 0 -272 106z" />
<glyph unicode="&#x2157;" horiz-adv-x="2029" d="M133 773l56 121q87 -73 201 -73q141 0 220.5 72.5t79.5 186.5q0 167 -159 167q-105 0 -167 -54l-53 95q189 133 213 151q86 72 86 141q0 76 -125 76q-171 0 -220 -167l-110 58q102 235 341 235q238 0 238 -198q0 -69 -52.5 -141t-117.5 -98q250 -37 250 -261 q0 -174 -114 -278.5t-299 -108.5q-166 -3 -268 76zM427 -33l1077 1802h126l-1077 -1802h-126zM1243 80l52 94q61 -37 116.5 -56.5t118.5 -19.5q109 0 197 72t88 198q0 94 -72 147t-163 53q-83 0 -141 -76l-79 -4l35 565h518l-15 -117h-379l-19 -246q26 7 51 7h55 q152 0 245 -96t93 -229q0 -178 -117.5 -288t-311.5 -110q-170 0 -272 106z" />
<glyph unicode="&#x2158;" horiz-adv-x="2029" d="M122 977q4 253 143 520q166 322 414 329v-723h166l-7 -126h-159v-235h-133v235h-424zM261 1103h285v560q-106 -91 -194 -272q-84 -166 -91 -288zM427 -33l1077 1802h126l-1077 -1802h-126zM1243 80l52 94q61 -37 116.5 -56.5t118.5 -19.5q109 0 197 72t88 198 q0 94 -72 147t-163 53q-83 0 -141 -76l-79 -4l35 565h518l-15 -117h-379l-19 -246q26 7 51 7h55q152 0 245 -96t93 -229q0 -178 -117.5 -288t-311.5 -110q-170 0 -272 106z" />
<glyph unicode="&#x2159;" horiz-adv-x="2029" d="M113 1523l270 238q79 -7 79 -105v-860h163v-91h-462v91h166v762l-144 -126zM387 -33l1076 1802h124l-1076 -1802h-124zM1232 376q0 260 170 466.5t431 249.5l4 -102q-159 -46 -287 -165q-109 -98 -159 -218q80 68 215 68q122 0 212.5 -89.5t90.5 -259.5q0 -148 -85 -246 t-229 -98q-182 0 -276 120q-87 109 -87 274zM1363 326q0 -98 59.5 -163t153.5 -65q98 0 152 65t54 163q0 101 -55.5 169.5t-150.5 68.5q-94 0 -153.5 -68.5t-59.5 -169.5z" />
<glyph unicode="&#x215a;" horiz-adv-x="2029" d="M102 792l53 94q61 -37 116 -56.5t119 -19.5q110 0 197.5 72.5t87.5 197.5q0 95 -72 147.5t-163 52.5q-83 0 -140 -76l-80 -3l33 564h520l-15 -117h-379l-18 -246q26 8 51 8h54q152 0 244.5 -96.5t92.5 -229.5q0 -178 -117.5 -288t-309.5 -110q-171 0 -274 106zM387 -33 l1076 1802h124l-1076 -1802h-124zM1232 376q0 260 170 466.5t431 249.5l4 -102q-159 -46 -287 -165q-109 -98 -159 -218q80 68 215 68q122 0 212.5 -89.5t90.5 -259.5q0 -148 -85 -246t-229 -98q-182 0 -276 120q-87 109 -87 274zM1363 326q0 -98 59.5 -163t153.5 -65 q98 0 152 65t54 163q0 101 -55.5 169.5t-150.5 68.5q-94 0 -153.5 -68.5t-59.5 -169.5z" />
<glyph unicode="&#x215b;" horiz-adv-x="2029" d="M113 1523l270 238q79 -7 79 -105v-860h163v-91h-462v91h166v762l-144 -126zM387 -33l1076 1802h124l-1076 -1802h-124zM1251 292q0 91 45 163t114 117q-69 37 -97.5 92.5t-28.5 119.5q0 126 83 203t220 77t220.5 -77t83.5 -203q0 -64 -29 -119t-93 -93q155 -87 155 -280 q0 -148 -89 -231t-248 -83q-155 0 -245.5 83t-90.5 231zM1375 285q0 -83 59 -135t153 -52q91 0 152 52t61 135q0 79 -53.5 145t-159.5 73q-105 -7 -158.5 -71t-53.5 -147zM1410 792q0 -54 47 -97.5t130 -65.5q84 19 131 66t47 97q0 57 -47 104.5t-131 47.5q-83 0 -130 -47.5 t-47 -104.5z" />
<glyph unicode="&#x215c;" horiz-adv-x="2029" d="M133 773l56 121q87 -73 201 -73q141 0 220.5 72.5t79.5 186.5q0 167 -159 167q-105 0 -167 -54l-53 95q189 133 213 151q86 72 86 141q0 76 -125 76q-171 0 -220 -167l-110 58q102 235 341 235q238 0 238 -198q0 -69 -52.5 -141t-117.5 -98q250 -37 250 -261 q0 -174 -114 -278.5t-299 -108.5q-166 -3 -268 76zM387 -33l1076 1802h124l-1076 -1802h-124zM1251 292q0 91 45 163t114 117q-69 37 -97.5 92.5t-28.5 119.5q0 126 83 203t220 77t220.5 -77t83.5 -203q0 -64 -29 -119t-93 -93q155 -87 155 -280q0 -148 -89 -231t-248 -83 q-155 0 -245.5 83t-90.5 231zM1375 285q0 -83 59 -135t153 -52q91 0 152 52t61 135q0 79 -53.5 145t-159.5 73q-105 -7 -158.5 -71t-53.5 -147zM1410 792q0 -54 47 -97.5t130 -65.5q84 19 131 66t47 97q0 57 -47 104.5t-131 47.5q-83 0 -130 -47.5t-47 -104.5z" />
<glyph unicode="&#x215d;" horiz-adv-x="2029" d="M102 792l53 94q61 -37 116 -56.5t119 -19.5q110 0 197.5 72.5t87.5 197.5q0 95 -72 147.5t-163 52.5q-83 0 -140 -76l-80 -3l33 564h520l-15 -117h-379l-18 -246q26 8 51 8h54q152 0 244.5 -96.5t92.5 -229.5q0 -178 -117.5 -288t-309.5 -110q-171 0 -274 106zM387 -33 l1076 1802h124l-1076 -1802h-124zM1251 292q0 91 45 163t114 117q-69 37 -97.5 92.5t-28.5 119.5q0 126 83 203t220 77t220.5 -77t83.5 -203q0 -64 -29 -119t-93 -93q155 -87 155 -280q0 -148 -89 -231t-248 -83q-155 0 -245.5 83t-90.5 231zM1375 285q0 -83 59 -135 t153 -52q91 0 152 52t61 135q0 79 -53.5 145t-159.5 73q-105 -7 -158.5 -71t-53.5 -147zM1410 792q0 -54 47 -97.5t130 -65.5q84 19 131 66t47 97q0 57 -47 104.5t-131 47.5q-83 0 -130 -47.5t-47 -104.5z" />
<glyph unicode="&#x215e;" horiz-adv-x="2029" d="M166 1645l58 124h662l-18 -121q-145 -196 -237.5 -410.5t-92.5 -536.5h-140q3 272 83 496t228 448h-543zM387 -33l1076 1802h124l-1076 -1802h-124zM1251 292q0 91 45 163t114 117q-69 37 -97.5 92.5t-28.5 119.5q0 126 83 203t220 77t220.5 -77t83.5 -203 q0 -64 -29 -119t-93 -93q155 -87 155 -280q0 -148 -89 -231t-248 -83q-155 0 -245.5 83t-90.5 231zM1375 285q0 -83 59 -135t153 -52q91 0 152 52t61 135q0 79 -53.5 145t-159.5 73q-105 -7 -158.5 -71t-53.5 -147zM1410 792q0 -54 47 -97.5t130 -65.5q84 19 131 66t47 97 q0 57 -47 104.5t-131 47.5q-83 0 -130 -47.5t-47 -104.5z" />
<glyph unicode="&#x2202;" horiz-adv-x="1200" d="M105 383q0 329 243 522q209 166 512 168q50 0 76 -4q-7 503 -209 503q-166 0 -253 -260l-126 72q137 333 375 333q369 0 369 -648q0 -397 -126 -690q-174 -397 -539 -397q-137 0 -222 98q-98 109 -100 303zM268 383q0 -246 202 -246q209 0 344 314q107 243 118 485 q-26 4 -72 4q-281 0 -444 -178q-148 -159 -148 -379z" />
<glyph unicode="&#x2206;" horiz-adv-x="1794" d="M0 0l897 1789l899 -1789h-1796zM242 133h1312l-657 1314z" />
<glyph unicode="&#x220f;" horiz-adv-x="1689" d="M205 -209v2013h1281v-2013h-148v1887h-986v-1887h-147z" />
<glyph unicode="&#x2211;" horiz-adv-x="1555" d="M94 -37l755 862l-755 816v163h1353v-126h-1197l743 -807v-98l-743 -856h1254v-126h-1410v172z" />
<glyph unicode="&#x2212;" horiz-adv-x="1555" d="M209 625v126h1140v-126h-1140z" />
<glyph unicode="&#x221a;" horiz-adv-x="1324" d="M87 871v106h296l250 -829l560 1641h133l-640 -1826h-118l-287 908h-194z" />
<glyph unicode="&#x221e;" horiz-adv-x="2340" d="M202 842q0 163 107 276.5t324 113.5q246 0 549 -342q235 340 524 342q196 0 315 -117.5t119 -318.5q0 -163 -108 -277t-323 -114q-268 0 -553 346q-227 -344 -520 -346q-196 0 -315 117.5t-119 319.5zM318 834q0 -140 83.5 -229t238.5 -89q130 0 254.5 100t193.5 222 q-261 289 -452 287q-159 0 -238.5 -87t-79.5 -204zM1254 799q261 -288 452 -288q159 0 238.5 87.5t79.5 204.5q0 141 -83.5 229.5t-238.5 88.5q-130 0 -254.5 -100t-193.5 -222z" />
<glyph unicode="&#x222b;" horiz-adv-x="915" d="M-148 -372l18 122q47 -18 134 -15q159 12 198 204l242 1550q50 337 352 337q79 0 133 -11l-28 -117q-19 4 -59 4q-113 0 -179.5 -48t-87.5 -172l-242 -1525q-57 -347 -326 -347q-90 0 -155 18z" />
<glyph unicode="&#x2248;" horiz-adv-x="1555" d="M170 285v29q0 160 89 250.5t215 90.5q144 0 316 -119.5t309 -119.5q163 0 170 239h119v-22q0 -174 -97 -269q-79 -79 -199 -79q-148 0 -316.5 123t-301.5 123q-178 0 -185 -246h-119zM170 788v30q0 159 89 250.5t215 91.5q144 0 316 -119.5t309 -119.5q163 0 170 239h119 v-24q0 -174 -97 -268q-79 -80 -199 -80q-148 0 -316.5 123t-301.5 123q-178 0 -185 -246h-119z" />
<glyph unicode="&#x2260;" horiz-adv-x="1555" d="M209 387v124h394l178 368h-572v126h633l163 336h155l-167 -336h356v-126h-417l-181 -368h598v-124h-663l-205 -420h-144l205 420h-333z" />
<glyph unicode="&#x2264;" horiz-adv-x="1555" d="M216 61v113h1122v-113h-1122zM296 662v180l951 449v-142l-820 -398l820 -399v-139z" />
<glyph unicode="&#x2265;" horiz-adv-x="1555" d="M216 61v113h1122v-113h-1122zM296 213v139l818 399l-818 398v142l951 -449v-180z" />
<glyph unicode="&#x25ca;" horiz-adv-x="1461" d="M126 751l525 757h159l528 -757l-528 -751h-159zM250 751l481 -690l481 690l-481 688z" />
<glyph unicode="&#x25cc;" horiz-adv-x="1515" d="M65 777q0 30 18.5 51t49.5 21q30 0 51 -21t21 -51t-21 -49t-51 -19q-29 0 -48.5 18.5t-19.5 49.5zM113 542q0 30 19.5 49t48.5 19q30 0 51 -19t21 -49t-20 -51t-52 -21q-29 0 -48.5 20.5t-19.5 51.5zM113 1008q0 30 19.5 51t48.5 21q30 0 51 -21t21 -51q0 -29 -20 -48.5 t-52 -19.5q-29 0 -48.5 18.5t-19.5 49.5zM246 333q0 30 19.5 49t48.5 19q30 0 51.5 -19t21.5 -49t-21.5 -51t-51.5 -21q-29 0 -48.5 21t-19.5 51zM246 1215q0 30 19.5 51.5t48.5 21.5q30 0 51.5 -21.5t21.5 -51.5q0 -29 -21.5 -47.5t-51.5 -18.5q-29 0 -48.5 18.5 t-19.5 47.5zM448 202q0 29 18.5 47.5t49.5 18.5q30 0 50 -18.5t20 -47.5q0 -30 -20 -51t-50 -21q-29 0 -48.5 20t-19.5 52zM448 1349q0 29 18.5 50.5t49.5 21.5q30 0 50 -21.5t20 -50.5q0 -30 -20 -49.5t-50 -19.5q-29 0 -48.5 19.5t-19.5 49.5zM683 155q0 30 20 51.5 t52 21.5q29 0 49.5 -21.5t20.5 -51.5q0 -29 -20.5 -50.5t-49.5 -21.5q-30 0 -51 21.5t-21 50.5zM683 1395q0 29 20 50.5t52 21.5q29 0 49.5 -21.5t20.5 -50.5q0 -30 -20.5 -51t-49.5 -21q-30 0 -51 20t-21 52zM921 1349q0 29 20.5 50.5t51.5 21.5q30 0 48.5 -21.5 t18.5 -50.5q0 -30 -18.5 -49.5t-48.5 -19.5q-29 0 -50.5 19.5t-21.5 49.5zM925 202q0 29 20.5 47.5t51.5 18.5q30 0 48.5 -18.5t18.5 -47.5q0 -30 -18.5 -51t-48.5 -21q-29 0 -50.5 20t-21.5 52zM1121 1215q0 30 21.5 51.5t50.5 21.5q30 0 49.5 -21.5t19.5 -51.5 q0 -29 -18.5 -47.5t-50.5 -18.5q-29 0 -50.5 18.5t-21.5 47.5zM1125 333q0 30 21 49t51 19t49 -19t19 -49t-18.5 -51t-49.5 -21q-30 0 -51 21t-21 51zM1254 1008q0 30 20.5 51t51.5 21q30 0 49.5 -21t19.5 -51q0 -29 -19.5 -48.5t-49.5 -19.5q-29 0 -50.5 18.5t-21.5 49.5z M1258 542q0 30 20.5 49t51.5 19q30 0 49.5 -19t19.5 -49t-19.5 -51t-49.5 -21q-29 0 -50.5 20.5t-21.5 51.5zM1308 777q0 30 18.5 51t48.5 21q29 0 50.5 -21t21.5 -51t-20.5 -49t-51.5 -19q-30 0 -48.5 18.5t-18.5 49.5z" />
<glyph unicode="&#x25fc;" horiz-adv-x="1287" d="M0 0v1288h1288v-1288h-1288z" />
<glyph unicode="&#xf700;" horiz-adv-x="1272" d="M98 1110q11 174 132.5 289.5t322.5 115.5q80 0 214 -41.5t206 -41.5q91 0 111 83l117 -26q-61 -196 -221 -198q-83 0 -228 46.5t-221 46.5q-87 0 -168.5 -52t-90.5 -120q379 -76 538 -135q261 -95 263 -228v-549q0 -333 -303 -333q-300 0 -300 333v192q-43 -15 -94 -15 q-95 0 -159.5 63t-64.5 157q0 99 64.5 165.5t159.5 66.5q98 0 164.5 -59.5t66.5 -164.5v-416q0 -197 163 -198q166 0 166 198v549q0 91 -368 181q-220 58 -470 91zM278 701q0 -42 27.5 -70t70.5 -28q42 0 71.5 28t29.5 70q0 43 -30.5 72.5t-70.5 29.5q-43 0 -70.5 -30.5 t-27.5 -71.5z" />
<glyph unicode="&#xf701;" d="M-1617 1857q4 197 163 319q144 109 344 109q512 0 610 -561q-436 156 -819 156q-137 0 -298 -23zM-1463 1974q79 11 179 11q365 0 636 -117q-166 308 -458 308q-265 0 -357 -202z" />
<glyph unicode="&#xf702;" d="M-1617 1857q4 197 163 319q144 109 344 109q303 0 462 -202v368h124v-625q17 -48 24 -102q-436 156 -819 156q-137 0 -298 -23zM-1463 1974q79 11 179 11q365 0 636 -117q-166 308 -458 308q-265 0 -357 -202z" />
<glyph unicode="&#xf703;" d="M-1617 1857q4 197 163 319q144 109 344 109q205 0 352 -98q-12 29 -12 59q0 76 55.5 131.5t131.5 55.5t130.5 -55.5t54.5 -131.5t-54.5 -130.5t-130.5 -54.5q-18 0 -50 7q97 -131 133 -344q-436 156 -819 156q-137 0 -298 -23zM-1463 1974q79 11 179 11q365 0 636 -117 q-166 308 -458 308q-265 0 -357 -202zM-683 2246q0 -43 29 -70.5t71 -27.5q43 0 70.5 27.5t27.5 70.5q0 42 -28.5 71t-69.5 29q-42 0 -71 -29t-29 -71z" />
<glyph unicode="&#xf704;" d="M-1617 1857q4 197 163 319q144 109 344 109q87 0 159 -15v181h126v-227q105 -50 177 -141v368h124v-625q17 -48 24 -102q-436 156 -819 156q-137 0 -298 -23zM-1463 1974q79 11 179 11q365 0 636 -117q-166 308 -458 308q-265 0 -357 -202z" />
<glyph unicode="&#xf705;" d="M-755 1782v543h141v-543h-141z" />
<glyph unicode="&#xf706;" d="M-1125 2231q0 83 60 138.5t144 55.5q94 0 149.5 -61t55.5 -151q0 -213 -174 -341q507 37 568 518h156q-58 -361 -311 -507q-209 -122 -561 -122h-76v80q148 61 204 175q-217 26 -215 215zM-1016 2220q0 -43 29 -70.5t69 -27.5q43 0 71.5 27.5t28.5 70.5t-28.5 70.5 t-71.5 27.5q-42 0 -70 -27.5t-28 -70.5z" />
<glyph unicode="&#xf707;" d="M-1276 2054q0 140 94 255.5t220 115.5l91 -122l90 122q117 -3 185.5 -81t68.5 -196q0 -141 -83 -235q86 7 162 115q98 140 100 362h128q-19 -590 -568 -590v87q155 76 155 253q0 137 -129 171l-113 -121l-109 124q-34 -3 -87.5 -43t-64.5 -77q54 8 67 8q205 -12 205 -206 q-18 -192 -200 -192q-102 0 -157 72t-55 178zM-1156 1996q0 -42 28.5 -66t67.5 -24q37 0 64 24t27 66q0 43 -27 68.5t-64 25.5t-66.5 -25.5t-29.5 -68.5z" />
<glyph unicode="&#xf708;" d="M-1073 1992v104h216v200h130v-200h216v-104h-216v-210h-130v210h-216z" />
<glyph unicode="&#xf709;" d="M-969 1989q0 264 268 336l177 54q95 33 97 115h120q-11 -130 -124 -187q-65 -33 -183 -61q-109 -19 -137 -48q83 -8 138.5 -67t55.5 -142q0 -87 -59 -145.5t-146 -58.5t-147 58.5t-60 145.5zM-860 1985q0 -43 30.5 -72.5t71.5 -29.5q42 0 72.5 29.5t30.5 72.5t-30.5 72.5 t-72.5 29.5q-43 0 -72.5 -29.5t-29.5 -72.5z" />
<glyph unicode="&#xf70a;" d="M-352 1819v545h139v-545h-139z" />
<glyph unicode="&#xf70b;" d="M-886 2277q0 84 60 138.5t143 54.5q95 0 150.5 -60t55.5 -151q0 -213 -174 -342q507 37 568 519h155q-57 -360 -311 -508q-209 -122 -560 -121h-76v80q148 61 205 174q-216 26 -216 216zM-777 2266q0 -42 28.5 -71t69.5 -29q43 0 71.5 29t28.5 71q0 43 -28.5 70.5 t-71.5 27.5t-70.5 -28.5t-27.5 -69.5z" />
<glyph unicode="&#xf70c;" d="M-1088 2020q0 141 95.5 255.5t219.5 114.5l90 -120l93 120q116 -4 184.5 -81.5t68.5 -193.5q0 -141 -83 -235q87 7 163 112q98 141 98 365h129q-18 -590 -569 -592v87q155 76 155 255q0 137 -128 170l-114 -122l-110 126q-33 -4 -86.5 -43.5t-64.5 -78.5q53 7 68 7 q206 -11 204 -203q0 -193 -200 -194q-102 0 -157.5 72t-55.5 179zM-966 1963q0 -43 28 -67t67 -24q37 0 63.5 24t26.5 67q0 42 -26.5 68t-63.5 26t-66 -26.5t-29 -67.5z" />
<glyph unicode="&#xf70d;" d="M-564 2016v113h216v202h135v-202h217v-113h-217v-212h-135v212h-216z" />
<glyph unicode="&#xf70e;" d="M-709 1989q0 264 269 336l179 54q95 33 95 115h120q-11 -130 -124 -187q-65 -33 -182 -61q-109 -19 -136 -48q83 -8 137.5 -67t54.5 -142q0 -87 -58.5 -145.5t-145.5 -58.5q-86 0 -147.5 58.5t-61.5 145.5zM-599 1985q0 -43 30.5 -72.5t72.5 -29.5q43 0 72.5 29.5 t29.5 72.5t-30.5 72.5t-71.5 29.5q-42 0 -72.5 -29.5t-30.5 -72.5z" />
<glyph unicode="&#xf70f;" horiz-adv-x="1938" d="M113 1027q33 213 184 350.5t358 137.5q235 0 366.5 -128.5t131.5 -367.5v-716q0 -212 235 -212q231 0 229 212v1183h137v-1175q0 -341 -370 -341q-368 0 -368 344v691q0 390 -368 390q-123 0 -226.5 -72t-143.5 -191q212 -15 301 -166q-91 -19 -159 -98.5t-68 -177.5 v-246q49 22 114 22q106 0 178 -72t72 -174t-58.5 -177.5t-191.5 -75.5q-109 0 -179.5 69t-70.5 188v462q0 206 197 298q-145 58 -300 43zM340 216q0 -53 36.5 -89t89.5 -36q54 0 92 36t38 89q0 54 -38 91t-92 37q-53 0 -89.5 -38t-36.5 -90z" />
<glyph unicode="&#xf710;" d="M-1295 2083q0 98 71 170t171 72q98 0 170.5 -69t72.5 -169q0 -130 -115 -204q54 -11 141 -11q185 4 307 148q105 133 113 322h144q-4 -257 -170.5 -422.5t-419.5 -165.5q-220 0 -352.5 91.5t-132.5 237.5zM-1178 2090q0 -53 37.5 -86.5t87.5 -33.5t85.5 33.5t35.5 86.5 q0 54 -36.5 90t-84.5 36q-50 0 -87.5 -36t-37.5 -90z" />
<glyph unicode="&#xf711;" d="M-1149 2039q0 122 86 207t206 85q123 0 206 -85t83 -207t-83 -205.5t-206 -83.5q-122 0 -207 83.5t-85 205.5zM-1023 2039q0 -69 49 -116t117 -47q65 0 114 47t49 116q0 68 -49 117t-114 49q-68 0 -117 -49t-49 -117z" />
<glyph unicode="&#xf712;" d="M-1406 2039q0 296 322 296h250q185 0 198 272h129q0 -163 -84 -273t-247 -110h-261q-181 0 -181 -174q0 -83 40 -148q95 105 195 122q65 -57 185 -137q-4 30 -4 50q0 76 51 127t127 51t129.5 -53t53.5 -125q0 -83 -59.5 -137t-134.5 -54q-160 0 -363 163 q-102 -33 -194 -166q-152 94 -152 296zM-770 1937q0 -33 25 -59t59 -26q33 0 58 26t25 59t-24 58t-59 25q-34 0 -59 -25t-25 -58z" />
<glyph unicode="&#xf713;" d="M-648 2577v420h124v-420h-124z" />
<glyph unicode="&#xf714;" d="M-1103 2975q0 79 56.5 135.5t136.5 56.5q76 0 129.5 -52.5t60.5 -139.5q0 -189 -170 -311q452 37 511 466h140q-53 -325 -281 -459q-181 -105 -503 -107h-69v72q126 54 178 148q-76 0 -132.5 55.5t-56.5 135.5zM-1005 2975q0 -37 27 -62t64 -25t63 25t26 62t-25 63.5 t-64 26.5q-37 0 -64 -26.5t-27 -63.5z" />
<glyph unicode="&#xf715;" d="M-1326 2799q0 141 88.5 249t210.5 108l91 -113l83 113q113 -4 179.5 -78t66.5 -186q0 -137 -83 -224q87 7 159 109q94 129 94 346h123q-12 -564 -546 -566v83q151 76 151 244q0 130 -125 167l-106 -119l-105 119q-37 -4 -91 -43q-42 -30 -57 -79q18 7 35.5 10.5t36.5 3.5 q79 0 134 -56.5t55 -135.5q0 -80 -55 -135.5t-134 -55.5q-98 0 -151.5 65t-53.5 174zM-1212 2747q0 -37 26 -62t65 -25q37 0 62 25t25 62t-25 64t-62 27t-64 -27t-27 -64z" />
<glyph unicode="&#xf716;" d="M-845 2725v105h201v163h117v-163h201v-105h-201v-148h-117v148h-201z" />
<glyph unicode="&#xf717;" d="M-882 2607q0 264 268 336l177 54q95 33 97 113h120q-11 -130 -124 -185q-65 -33 -183 -61q-109 -19 -135 -48q83 -8 137.5 -67t54.5 -142q0 -87 -58 -146.5t-147 -59.5q-87 0 -147 59.5t-60 146.5zM-773 2603q0 -43 30.5 -72.5t72.5 -29.5q43 0 72.5 29.5t29.5 72.5 t-30.5 72.5t-71.5 29.5q-42 0 -72.5 -29.5t-30.5 -72.5z" />
<glyph unicode="&#xf718;" d="M-614 -1128q0 83 59 141t142 58q84 0 142 -58t58 -141v-467h-131v276q-30 -11 -69 -11q-83 0 -142 59t-59 143zM-511 -1125q0 -42 28 -71t70 -29q43 0 71 29t28 71q0 43 -29 70.5t-70 27.5q-42 0 -70 -28.5t-28 -69.5z" />
<glyph unicode="&#xf719;" d="M-1012 -1132q0 83 59 141.5t143 58.5q83 0 141.5 -58.5t58.5 -141.5v-259q0 -87 133 -87q129 0 129 87v444h135v-413q0 -235 -272 -235q-257 0 -257 228v44q-29 -11 -68 -11q-84 0 -143 59.5t-59 142.5zM-910 -1128q0 -43 28.5 -71.5t71.5 -28.5q42 0 70 28.5t28 71.5 q0 42 -29 70t-69 28q-43 0 -71.5 -29t-28.5 -69z" />
<glyph unicode="&#xf71a;" d="M-383 -1030q0 42 30.5 70t71.5 28q42 0 71 -28t29 -70q0 -43 -29 -72.5t-71 -29.5q-43 0 -72.5 29.5t-29.5 72.5z" />
<glyph unicode="&#xf71b;" horiz-adv-x="1609" d="M91 216q0 102 72 176t174 74q42 0 90 -18q-22 174 -22 264q0 174 152 272q-102 46 -200 46q-50 0 -72 -3q18 213 183 350.5t385 137.5q242 0 394 -137.5t152 -376.5v-1815h-152q-30 91 -172.5 181.5t-256.5 121.5v-27q0 -122 -71.5 -207.5t-193.5 -85.5q-113 0 -177.5 67 t-64.5 165q0 116 83 185.5t202 69.5q18 0 98 -13q15 141 140 213l102 -61q-113 -73 -118 -182q303 -105 444 -253v1624q0 185 -116 298t-297 113q-129 0 -248.5 -74t-163.5 -189q201 -18 305 -166q-206 -69 -204 -276q0 -148 34 -303q14 -69 14 -159q0 -110 -73 -184 t-176 -74q-102 0 -174 71.5t-72 174.5zM213 216q0 -53 36 -89t88 -36q53 0 91 36t38 89q0 54 -38 91t-91 37q-54 0 -89 -38t-35 -90zM431 -590q0 -117 126 -119q133 0 133 171q0 27 -7 57q-34 11 -80 11q-170 0 -172 -120z" />
<glyph unicode="&#xf71c;" horiz-adv-x="1609" d="M91 216q0 102 72 176t174 74q42 0 90 -18q-22 174 -22 264q0 174 152 272q-102 46 -200 46q-50 0 -72 -3q18 213 183 350.5t385 137.5q242 0 394 -137.5t152 -376.5v-1815h-152l-205 231l-167 -227l-209 227q-4 -116 -75 -183.5t-167 -67.5q-117 0 -180 68.5t-63 166.5 q0 109 72.5 175.5t177.5 66.5q72 0 126 -26q7 133 155 220l102 -61q-130 -79 -135 -213l185 -196l178 239l220 -246v1624q0 185 -116 298t-297 113q-129 0 -248.5 -74t-163.5 -189q201 -18 305 -166q-206 -69 -204 -276q0 -148 34 -303q14 -69 14 -159q0 -110 -73 -184 t-176 -74q-102 0 -174 71.5t-72 174.5zM213 216q0 -53 36 -89t88 -36q53 0 91 36t38 89q0 54 -38 91t-91 37q-54 0 -89 -38t-35 -90zM296 -603q0 -113 120 -113q141 0 141 209q-33 33 -113 33q-148 0 -148 -129z" />
<glyph unicode="&#xf71d;" horiz-adv-x="1718" d="M65 1265q0 102 74 176t175 74q102 0 176 -74t74 -176v-893q0 -61 -11 -187q22 65 65 163l279 531h130l281 -531q11 -26 70 -163q-7 122 -7 187v670q-50 -26 -113 -26q-102 0 -176 74t-74 175q0 102 74 176t176 74q61 0 113 -29q76 33 96 148h174q-33 -141 -167 -243 q34 -68 34 -126v-1265h-167l-379 738l-379 -738h-156v1042q-50 -26 -113 -26q-101 0 -175 74t-74 175zM185 1265q0 -53 38 -91t91 -38q54 0 92 38t38 91q0 54 -38 92t-92 38q-53 0 -91 -38t-38 -92zM1128 1265q0 -53 38 -91t92 -38t92 38t38 91q0 54 -38 92t-92 38t-92 -38 t-38 -92z" />
<glyph horiz-adv-x="1196" d="M-1149 2039q0 122 86 207t206 85q123 0 206 -85t83 -207t-83 -205.5t-206 -83.5q-122 0 -207 83.5t-85 205.5zM-1023 2039q0 -69 49 -116t117 -47q65 0 114 47t49 116q0 68 -49 117t-114 49q-68 0 -117 -49t-49 -117zM91 1114q3 159 126 280t318 121q220 0 334.5 -105.5 t114.5 -281.5v-1128h-135v1132q0 113 -85 188t-233 75q-133 0 -212.5 -90t-87.5 -191h-140z" />
<glyph />
<glyph horiz-adv-x="817" />
<glyph d="M-1095 1955q0 95 75.5 159.5t170.5 64.5q-76 50 -76 143q0 220 292 220q102 0 171 -26l-34 -94q-65 18 -140 18q-174 0 -174 -118q0 -126 188 -146l-33 -89q-46 15 -91 16q-105 0 -171.5 -48t-66.5 -103q0 -102 170 -104q50 0 120 32l4 -95q-72 -29 -174 -31 q-94 0 -162.5 55.5t-68.5 145.5z" />
</font>
</defs>
</svg>
